<?xml version="1.0" standalone="no"?>
<!DOCTYPE svg PUBLIC "-//W3C//DTD SVG 1.1//EN" "http://www.w3.org/Graphics/SVG/1.1/DTD/svg11.dtd" >
<svg>
<metadata>
Created by FontForge 20120731 at Mon Oct 13 08:05:48 2014
 By Orthosie Webhosting
Copyright (c) 2004, SUDTIPOS. Expanded and digitized from the Bluemlein Script collection by Alejandro Paul. All rights reserved.
</metadata>
<defs>
<font id="MrDafoeRegular" horiz-adv-x="300" >
  <font-face 
    font-family="MrDafoeRegular"
    font-weight="400"
    font-stretch="normal"
    units-per-em="1000"
    panose-1="2 0 5 6 2 0 0 2 0 2"
    ascent="800"
    descent="-200"
    x-height="323"
    cap-height="721"
    bbox="-421 -416 1391 981"
    underline-thickness="50"
    underline-position="-50"
    unicode-range="U+0020-FB02"
  />
<missing-glyph horiz-adv-x="250" 
 />
    <glyph glyph-name=".notdef" horiz-adv-x="250" 
 />
    <glyph glyph-name=".null" horiz-adv-x="0" 
 />
    <glyph glyph-name="nonmarkingreturn" horiz-adv-x="250" 
 />
    <glyph glyph-name="space" unicode=" " horiz-adv-x="250" 
 />
    <glyph glyph-name="space" unicode="&#xa0;" horiz-adv-x="250" 
 />
    <glyph glyph-name="exclam" unicode="!" horiz-adv-x="549" 
d="M761 642q0 -5 -19.5 -29.5t-52 -61t-74.5 -81.5t-88 -92t-92.5 -92.5t-87.5 -82.5t-74 -62.5t-52 -32.5q-2 -2 -5 -3q-5 -3 -11 -3q-11 0 -19 7t-8 11t3 7q25 24 66.5 71t90 103t98.5 115t91.5 108.5t69 83t31.5 38.5q10 15 20 27q8 10 18 18.5t20 8.5q2 0 21 -10t50 -39
l2 -2q2 -2 2 -7zM175 57q0 -17 -9 -30.5t-22 -23.5t-27 -15t-24 -5q-6 0 -11 4t-8.5 9t-5.5 10.5t-2 7.5q0 5 1 9.5t6 9.5q10 12 22 23q11 8 26.5 15.5t35.5 7.5q5 -1 9 -4q3 -2 6 -6.5t3 -11.5z" />
    <glyph glyph-name="quotedbl" unicode="&#x22;" horiz-adv-x="395" 
d="M550 639q0 -11 -20 -34t-45.5 -45.5t-48.5 -39.5t-30 -17q-8 0 -15 5t-7 13q0 11 13.5 34t37.5 58q10 14 18 24t16.5 16t19 8.5t25.5 2.5q14 0 25 -4.5t11 -20.5zM405 639q0 -11 -20 -34t-45.5 -45.5t-48.5 -39.5t-30 -17q-8 0 -15 5t-7 13q0 11 13.5 34t37.5 58
q10 14 18 24t16.5 16t19 8.5t25.5 2.5q14 0 25 -4.5t11 -20.5z" />
    <glyph glyph-name="numbersign" unicode="#" horiz-adv-x="579" 
d="M770 348q0 -13 -22 -18q-70 1 -115.5 2t-78.5 2l-30 -82q4 1 12 1q16 0 33.5 -6.5t32.5 -16t24.5 -21t9.5 -20.5q0 -6 -6 -11t-16 -7q-37 1 -66 1t-53 1q-23 -65 -36.5 -100t-14.5 -52q-6 -12 -17.5 -25t-24.5 -23t-26.5 -16.5t-22.5 -6.5q-8 0 -11 6.5t-3 14.5
q0 36 11.5 66.5t25 56t25.5 46t13 37.5h-86q-19 -39 -25 -62t-10 -34q-3 -8 -13 -19.5t-23.5 -23t-27.5 -19.5t-24 -8q-16 0 -16 21q0 1 1 4t6 16.5t15.5 42.5t30.5 82h-64t-38 -0.5t-20 -1.5t-11 -2t-10.5 -2t-17.5 -3q-2 -1 -6 -2t-14 -1q-7 0 -13 3.5t-6 11.5l-5 57
q0 1 2 4l4.5 4.5t7.5 4.5h220q8 22 16 42t16 44q-26 0 -37.5 -1t-17.5 -2t-11.5 -2.5t-20.5 -3.5q-3 -1 -7 -2t-14 -1q-6 0 -12.5 3.5t-7.5 11.5l-4 58q-1 10 38.5 11.5t120.5 1.5q16 45 22.5 64t9 27.5t3.5 14t6 23.5l2 21q2 5 7 9t13 4l58 -16v-1q0 -1 0.5 -1.5t0.5 -1.5
q0 1 -3.5 -9t-9.5 -29t-15 -46t-19 -59h95q4 14 7.5 32t7 34.5t8.5 27.5t14 11q3 0 5 -1q22 -6 34.5 -10t18.5 -6.5t7 -4t1 -3.5q0 -7 -6.5 -27.5t-17.5 -53.5h72q9 3 19 3q16 0 34 -6.5t32.5 -16t24 -21t9.5 -20.5zM472 335q-20 1 -41.5 1h-48.5q-7 -21 -14 -42.5
t-13 -41.5q18 1 35.5 1h33.5h19l29 82v0z" />
    <glyph glyph-name="dollar" unicode="$" horiz-adv-x="678" 
d="M842 479q0 -11 -12 -26t-36.5 -28.5t-63.5 -23t-93 -9.5h-20.5t-24.5 1.5t-21 4t-9 7.5q0 6 15.5 12.5t38.5 12.5t50 13t50 15.5t38.5 19t15.5 23.5q0 5 -7.5 8t-32.5 3q-30 0 -79.5 -3.5t-109.5 -17t-127 -40.5t-133 -74q-10 -7 -18 -15q-7 -7 -12 -15t-5 -15
q0 -10 21.5 -16t51.5 -9t62 -4t53 -1q31 0 61 -4.5t54 -14.5t38.5 -27.5t14.5 -43.5q0 -35 -26 -67t-69 -59.5t-98.5 -49.5t-115.5 -37l-10 -16q-12 -19 -26 -38.5l-28 -39t-27 -38t-23 -34.5q-1 -3 -2 -5q-2 -5 -7 -5q-11 0 -20.5 16.5t-9.5 38.5q0 20 14 46t34 54
q-25 -4 -47.5 -5.5t-43.5 -1.5t-47.5 6t-50 17.5t-40 27.5t-16.5 36q0 5 4 8t16 4q31 4 57 8q23 4 45 8t33 9q2 0 5 1q2 0 4 0.5t4 0.5q4 0 4 -2q0 -1 -2 -3.5t-9 -7.5q-18 -11 -32 -14.5t-14 -8.5q0 -2 11 -2q14 0 54.5 6.5t92 18.5t108 28t103.5 35t77.5 40.5t30.5 43.5
q0 10 -15 15t-32 5q-19 0 -41 -2t-51 -2q-19 0 -44 0.5t-51.5 3.5t-51.5 9.5t-45 18t-32.5 29.5t-12.5 45q0 12 20.5 45t66.5 70.5t119.5 72.5t179.5 50q19 19 41.5 41t45.5 42.5t44.5 38t38.5 28.5q2 1 5 2q2 1 4.5 2t4.5 1q7 0 10 -3l3 -2q11 -8 14 -11t3 -6q0 -4 -3 -7
q-72 -69 -115 -118q8 0 26 -1.5t40.5 -5.5t46 -12.5t43.5 -21.5t32.5 -32.5t12.5 -46.5z" />
    <glyph glyph-name="percent" unicode="%" horiz-adv-x="754" 
d="M522 642q0 -18 -8 -43t-20.5 -52t-28.5 -52.5t-31 -44.5q-23 -27 -47.5 -51t-50 -42t-50 -28t-46.5 -10q-11 1 -24 4t-24.5 11t-19.5 22.5t-8 38.5q0 30 18.5 70.5t53 82t84 79t111.5 60.5q13 0 14.5 -4.5t9.5 -5.5q7 1 10.5 5t14.5 5q5 0 11.5 -2.5t14.5 -10.5
q4 -4 8 -9q3 -5 5.5 -10.5t2.5 -12.5zM798 655q0 -5 -23.5 -34.5t-63 -74.5t-90 -101t-105.5 -114t-110.5 -114.5t-103.5 -102t-85 -76t-56 -37.5q-2 -2 -5 -3q-5 -3 -11 -3q-11 0 -19 7t-8 11t3 7q19 18 52.5 54t76 81.5t91 98.5t96.5 105.5t92.5 101.5t79 87.5t56.5 63
t25 28.5q10 15 20 27q8 10 18 18.5t20 8.5q1 0 1 0.5t2 0.5q3 0 12 -5.5t31 -25.5l2 -2q2 -2 2 -7zM779 303q0 -18 -8 -43t-20.5 -52t-28.5 -52.5t-31 -44.5q-23 -27 -47.5 -51t-50 -42t-50 -28t-46.5 -10q-11 1 -24 4t-24.5 11t-19.5 22.5t-8 38.5q0 30 18.5 70.5t53 82
t84 79t111.5 60.5q13 0 14.5 -4.5t9.5 -5.5q7 1 10.5 5t14.5 5q5 0 11.5 -2.5t14.5 -10.5q4 -4 8 -9q3 -5 5.5 -10.5t2.5 -12.5zM465 626q0 2 -2 2q-5 0 -20.5 -7t-35 -18t-39.5 -26t-33 -31q-26 -24 -44 -51t-29 -49.5t-15.5 -37.5t-4.5 -17q0 -8 5 -8q18 0 38.5 13.5
t39.5 31t33 33.5t17 22q8 6 23 24t30 39.5t26 43t11 36.5zM722 287q0 2 -2 2q-5 0 -20.5 -7t-35 -18t-39.5 -26t-33 -31q-26 -24 -44 -51t-29 -49.5t-15.5 -37.5t-4.5 -17q0 -8 5 -8q18 0 38.5 13.5t39.5 31t33 33.5t17 22q8 6 23 24t30 39.5t26 43t11 36.5z" />
    <glyph glyph-name="ampersand" unicode="&#x26;" horiz-adv-x="923" 
d="M778 771q0 -4 -3 -7q-43 -42 -78 -78.5t-59 -63.5q41 -3 65.5 -13t38 -23.5t18 -29t4.5 -28.5q0 -8 -0.5 -14.5t-1.5 -11.5q-3 1 -8 7.5t-11 8.5l-9 3q-45 15 -112 15q-56 0 -117.5 -10t-115.5 -26.5t-93.5 -38t-51.5 -45.5q-2 -6 -2 -8q0 -18 23.5 -28.5t53 -15.5
t57 -6.5t36.5 -1.5h19q27 0 40.5 -4.5t13.5 -29.5q0 -24 -9.5 -31t-20.5 -6l-56 3q-19 1 -53 -2t-73 -9.5t-79.5 -16.5t-73.5 -22.5t-54 -27t-21 -30.5q0 -12 14 -23.5t32 -21t35.5 -16t24.5 -9.5q57 -20 113 -28.5t110 -8.5q75 0 136.5 11.5t105 26.5t67.5 28.5t24 17.5
q0 3 -12.5 5t-25.5 2q-23 0 -51.5 -3.5t-54.5 -8t-46 -8.5t-25 -6q-9 -4 -16 -4q-5 0 -5 1t-1 5q28 23 59 40t61 27.5t56 15.5t44 5q19 0 31.5 -6.5t19.5 -17t10 -23t3 -24.5q0 -31 -18 -56.5t-49 -45t-71.5 -34t-86.5 -24t-93.5 -14t-91.5 -4.5h-25q-15 -20 -31.5 -43.5
t-33.5 -47.5t-32.5 -47t-27.5 -42l-2 -6q-3 -5 -8 -5q-11 0 -22 18.5t-11 42.5q0 28 22.5 64.5t51.5 74.5q-65 10 -106.5 31t-64.5 45.5t-31.5 50t-8.5 45.5q0 35 17 61t42 44.5t55 31t55 21t42 12.5t17 7q0 1 -0.5 2t-0.5 2q-1 1 -1 2q-14 15 -24 31.5t-10 39.5q0 11 3 25
t11 30q19 39 54.5 66.5t79.5 45.5t92 27.5t92 12.5q21 21 46.5 46t51.5 48.5t50.5 43t43.5 31.5q2 1 5 3q2 1 5 2t6 1q6 0 10 -4q14 -11 18 -14.5t4 -6.5z" />
    <glyph glyph-name="quotesingle" unicode="'" horiz-adv-x="249" 
d="M405 639q0 -11 -20 -34t-45.5 -45.5t-48.5 -39.5t-30 -17q-8 0 -15 5t-7 13q0 11 13.5 34t37.5 58q10 14 18 24t16.5 16t19 8.5t25.5 2.5q14 0 25 -4.5t11 -20.5z" />
    <glyph glyph-name="parenleft" unicode="(" horiz-adv-x="453" 
d="M553 640q0 -8 -10 -17q-113 -47 -194 -119.5t-133 -155t-76.5 -167t-24.5 -154.5q0 -60 17 -104.5t49 -62.5q5 -5 5 -7q0 -5 -6.5 -7t-8.5 -2q-37 0 -63 23t-43 57t-25 72.5t-8 69.5q0 72 22.5 144t61 137.5t89.5 121.5t107.5 97.5t116 65t115.5 23.5q5 0 7 -6t2 -9z" />
    <glyph glyph-name="parenright" unicode=")" horiz-adv-x="401" 
d="M501 434q0 -72 -22.5 -144t-61 -137.5t-89.5 -121.5t-107.5 -97.5t-116.5 -65t-115 -23.5q-5 0 -7 6t-2 9q0 8 10 17q113 47 194 119.5t133 155t76.5 167t24.5 154.5q0 60 -17 104.5t-49 62.5q-5 5 -5 7q0 5 6.5 7t8.5 2q37 0 63 -23t43 -57t25 -72.5t8 -69.5z" />
    <glyph glyph-name="asterisk" unicode="*" horiz-adv-x="461" 
d="M591 400q0 -9 -9 -11q-26 0 -44 0.5t-31.5 1t-24 1t-21.5 0.5q9 -15 17.5 -30t16.5 -29q7 -5 9.5 -13.5t2.5 -17.5q0 -14 -6 -25.5t-14 -11.5h-2q-5 1 -13 13t-17.5 28t-18.5 33.5t-16 29.5q-17 -19 -33.5 -36.5t-31.5 -34.5q-5 -11 -18 -16.5t-26 -5.5q-10 0 -17 3
t-7 10q0 4 3 9q23 25 44 48.5t41 45.5q-27 -1 -45.5 -2t-29.5 -3q-1 -1 -3 -1q-2 -1 -6 -1q-2 0 -5 2t-3 7l-2 35q0 3 4.5 4t15.5 2t31 1.5t50 0.5q-21 39 -33.5 66t-12.5 35q2 8 10.5 12.5t16.5 4.5q6 0 8 -4q12 -21 29 -51t28 -52q39 42 66.5 67t35.5 25q7 0 14.5 -10
t7.5 -16q0 -4 -2 -6q-17 -19 -33.5 -36.5t-33.5 -34.5q9 0 22 -0.5t37 -0.5q2 2 7 2q7 0 14.5 -4t13.5 -9.5t10 -12t4 -12.5z" />
    <glyph glyph-name="plus" unicode="+" horiz-adv-x="538" 
d="M553 253q0 -9 -6 -13q-4 -4 -9 -5q-52 1 -85.5 2t-57.5 1.5t-44.5 1.5t-45.5 1q-39 -42 -75 -81.5t-70 -75.5q-8 -19 -30 -28.5t-43 -9.5q-17 0 -28.5 6t-11.5 17q0 7 5 15q37 41 72.5 80.5t69.5 75.5q-46 -1 -77 -2.5t-49 -5.5q-1 -1 -4 -2t-10 -1q-6 0 -10 4t-4 11
l-3 57v1q0 4 4 7q1 1 18 2.5t46.5 2t70 1t88.5 0.5q36 38 67 69.5t55.5 54t41 35t23.5 12.5q6 0 12.5 -5t12 -11.5t9 -14t3.5 -12.5q0 -6 -3 -9q-29 -32 -56.5 -61t-54.5 -58q15 0 36 -0.5t61 -0.5q6 3 13 3q14 0 28 -9t25 -22q16 -16 16 -33z" />
    <glyph glyph-name="comma" unicode="," horiz-adv-x="126" 
d="M122 54q0 -11 -12 -29t-28 -36.5t-31.5 -33.5t-22.5 -19q-8 -6 -13 -6q-3 0 -3 3q0 5 8 15t16 23l6 10q-5 -2 -12 -3.5t-12 -1.5q-5 1 -9 4q-9 5 -9 18q0 16 11 32t26.5 28t31.5 19.5t26 7.5q2 -1 5 -1q2 -1 4 -1t4 -2q8 -10 11 -15.5t3 -11.5z" />
    <glyph glyph-name="hyphen" unicode="-" horiz-adv-x="563" 
d="M499 238q0 -10 -5 -18.5t-16 -10.5q-42 1 -69 1.5t-45 0.5h-30.5t-25.5 0.5t-31 1t-47 1.5q-2 -1 -5 -2t-10 -1q-6 0 -9 4q-1 1 -1 11l10 57q2 2 19 2t47.5 -1t65.5 -1q44 0 86 3q7 3 14 3q14 0 25.5 -9t18.5 -22q8 -10 8 -20z" />
    <glyph glyph-name="period" unicode="." horiz-adv-x="126" 
d="M122 54q0 -5 -1 -9.5t-6 -9.5q-13 -17 -29 -30q-14 -11 -31 -20t-37 -9q-5 1 -9 4q-9 5 -9 18q0 16 11 32t26.5 28t31.5 19.5t26 7.5q2 -1 5 -1q2 -1 4 -1t4 -2q8 -10 11 -15.5t3 -11.5z" />
    <glyph glyph-name="slash" unicode="/" horiz-adv-x="571" 
d="M765 655q0 -5 -23.5 -34.5t-63 -74.5t-90 -101t-105.5 -114t-110.5 -114.5t-103.5 -102t-85 -76t-56 -37.5q-2 -2 -5 -3q-5 -3 -11 -3q-11 0 -19 7t-8 11t3 7q19 18 52.5 54t76 81.5t91 98.5t96.5 105.5t92.5 101.5t79 87.5t56.5 63t25 28.5q10 15 20 27q8 10 18 18.5
t20 8.5q1 0 1 0.5t2 0.5q3 0 12 -5.5t31 -25.5l2 -2q2 -2 2 -7z" />
    <glyph glyph-name="zero" unicode="0" horiz-adv-x="571" 
d="M711 560q0 -21 -11 -44.5t-30 -47t-44.5 -45.5t-53.5 -40q-8 -26 -21.5 -67.5t-35 -89t-50.5 -96t-68 -87t-88 -63t-109 -24.5q-35 0 -61 10t-45.5 26.5t-32.5 37t-22 42.5q-20 51 -22 117q0 23 10.5 68t34.5 99t62.5 110.5t96 103t134.5 76.5t177 30q22 0 53 -5.5
t59 -18.5t47.5 -35.5t19.5 -56.5zM627 602q0 6 -6 11t-23 5q-81 0 -148.5 -30t-122 -77.5t-95.5 -107.5t-68.5 -119t-41.5 -111.5t-14 -86.5q0 -11 3.5 -24.5t22.5 -13.5q30 0 74 13t97 48t113 97.5t124 160.5q-30 -17 -61 -26t-58 -9q-27 4 -48 12q-18 7 -32.5 18t-14.5 30
q0 12 20 23q23 10 44 21q18 10 38 21.5t34 23.5q2 2 4 5q5 5 8 5q6 0 6 -8q0 -4 -4.5 -12.5t-23.5 -20.5q-11 -9 -15.5 -13.5t-4.5 -7.5l1 -1q6 0 22.5 10.5t38 27t44.5 36.5t42.5 39.5t32 35.5t12.5 25z" />
    <glyph glyph-name="one" unicode="1" horiz-adv-x="442" 
d="M533 661q0 -3 -2 -5q-82 -133 -152 -245t-124 -207q-25 -45 -44.5 -81t-34.5 -68.5t-25.5 -63.5t-17.5 -65q0 -2 -1 -5t-6 -3q-2 0 -12.5 5t-22 13.5t-21 20.5t-9.5 26q0 22 16 71t51 118.5t91.5 158.5t137.5 193q-14 -12 -28 -22q-13 -8 -28 -14.5t-32 -6.5q-6 0 -16 1
t-20 5t-18.5 11t-10.5 19q1 5 3.5 10t9.5 10q51 43 76.5 59.5t34.5 18.5q7 0 7 -5q0 -6 -3 -13t-3 -8q0 -2 2 -2q26 4 52 17.5t48 28t37 27.5t19 18q1 2 3 4q4 4 9 5q3 0 7 -1t9 -5q18 -12 18 -20z" />
    <glyph glyph-name="two" unicode="2" horiz-adv-x="612" 
d="M679 470q0 -39 -27 -82.5t-75.5 -89t-116.5 -92.5t-150 -92l-12 -8q-5 -3 -8.5 -6.5t-3.5 -5.5q0 -3 9 -3q39 0 84 -6.5t88.5 -22t84 -42.5t70.5 -68q0 -1 1 -2q2 -2 2 -4q0 -3 -5 -3q-6 0 -37.5 7t-82.5 16t-119 16t-149 7q-16 0 -30 -0.5t-33 -2.5t-45 -7t-65 -14
q-1 -1 -2 -1h-7q-72 48 -72 75q0 31 99 41q6 0 48.5 20.5t103.5 55t130 79t128 93.5t98 98t39 92q0 9 -4 17.5t-15 15.5t-31 11.5t-51 4.5q-7 0 -44.5 -3.5t-93.5 -21.5t-125.5 -56.5t-139.5 -108.5q-8 -8 -14 -16q-5 -7 -9 -14.5t-4 -13.5q0 -11 16 -11q13 0 45.5 9.5
t71.5 26.5t78 41.5t67 56.5q6 6 10 11q4 4 8 7.5t6 3.5q1 -2 3 -3q1 -2 2 -2.5t1 -2.5q0 -33 -28 -70.5t-68.5 -69t-85 -52t-77.5 -20.5q-28 4 -50 19q-19 13 -35 38.5t-15 70.5q0 39 35 86.5t91.5 88.5t128.5 68.5t146 27.5q76 0 122 -21.5t71.5 -51.5t34 -61.5t8.5 -52.5z
" />
    <glyph glyph-name="three" unicode="3" horiz-adv-x="640" 
d="M680 478q-4 -27 -26.5 -53.5t-50.5 -48.5t-54 -37.5t-36 -21.5l-5 -3q-8 -2 -8 -6q0 -2 2 -4q1 -1 3 -1q29 -12 48.5 -30t19.5 -55q0 -51 -27.5 -92t-70.5 -73t-95.5 -55t-101 -38t-87.5 -22t-56 -7q-27 0 -48 7t-34.5 17t-20.5 22t-7 23q1 5 5 9q2 -4 8 -6.5t22 -2.5
q39 0 86 11t95.5 28.5t94.5 41t82.5 48.5t60 50t26.5 46v2q0 8 -7.5 12t-16.5 6q-11 3 -24 3q-28 0 -58 -3.5t-55.5 -8t-43 -8t-20.5 -3.5q-12 0 -17.5 2t-8 5t-3.5 7t-5 9q-6 7 -6 17q2 14 18.5 26t34.5 12q10 0 38 9.5t64.5 25t76.5 35.5t74 41.5t57 43t25 39.5
q0 12 -18 19t-41 10t-45 3.5t-31 0.5q-72 0 -149 -21t-171 -68q-5 -3 -20 -3q-10 0 -22.5 3t-23.5 8.5t-19 13.5t-8 17q1 5 3.5 10.5t7.5 10.5q20 17 60.5 38t92 39t110.5 30t116 12q72 0 114 -16t63.5 -38.5t27 -47t5.5 -40.5z" />
    <glyph glyph-name="four" unicode="4" horiz-adv-x="594" 
d="M746 718q0 -10 -16 -15q-23 -11 -71.5 -41.5t-107.5 -73t-122 -92t-115 -98t-85 -92t-33 -73.5q0 -2 3 -2q1 0 11 2q8 3 26 6q16 2 45.5 4t79.5 3q54 54 121.5 120t145.5 128l3 3q2 1 4.5 2t5.5 1q8 0 15 -8l10 -11q1 -1 2 -3t2 -3t1 -3q0 -4 -4 -8q-15 -17 -36 -42
t-45 -54t-50.5 -60.5t-53.5 -61.5q42 -6 86 -15t81 -23t60.5 -34t23.5 -47q0 -6 -5 -6q-2 0 -3.5 0.5l-4.5 1.5q-1 4 -17 7.5t-41 6.5t-55.5 5t-61 3.5t-58.5 2.5t-48 1h-24t-27 -1q-26 -29 -55.5 -60.5t-56 -62.5t-45 -60t-21.5 -53q0 -3 -1 -5q-2 -4 -7 -4q-3 0 -11 5.5
t-17 15t-16.5 21.5t-9.5 26v16q0 8 4.5 18.5t16.5 28.5t33.5 44.5t54.5 65.5q-38 0 -57 -2t-31.5 -4t-24 -4t-34.5 -2q-8 0 -17 4t-17 18q-7 1 -12 5q-11 7 -11 24q0 36 28 86.5t77.5 106t115.5 112.5t141.5 106t157.5 86.5t162 54.5l5 -5q6 -6 6 -12z" />
    <glyph glyph-name="five" unicode="5" horiz-adv-x="641" 
d="M752 585q0 -6 -24 -10.5t-60 -8t-79.5 -6.5t-82.5 -5t-68 -3t-36 -2q-36 -28 -69.5 -69t-54.5 -83q31 9 51.5 16.5t36.5 12.5t29 7.5t28 2.5q39 0 72 -9.5t57 -29t37 -49t13 -68.5q0 -53 -19 -98t-51.5 -81.5t-75 -65t-90 -47.5t-96.5 -29t-93 -10q-31 0 -55 10
t-40.5 26.5t-25 38t-8.5 45.5q0 25 7 31.5t16 8.5q2 0 15 1.5t28.5 3.5t29.5 4t17 2q9 0 9 -5q0 -2 -5.5 -4t-5.5 -10q0 -9 5.5 -15.5t14 -10.5t18 -6t17.5 -2q30 0 66.5 8.5t73.5 23.5t71.5 35t61 44t42.5 50t16 53q0 16 -9.5 26t-24.5 15t-32.5 7t-32.5 2q-29 0 -60.5 -6
t-59.5 -13q-33 -9 -64 -19q-14 0 -21.5 7.5t-12.5 16.5t-10.5 17.5t-15.5 10.5q-13 3 -13 19q0 35 23 79.5t58 87.5l-14 -2q-5 0 -15.5 2t-20.5 7.5t-17.5 16.5t-7.5 29q0 13 25 26t56.5 23t60 16.5t35.5 8.5q3 0 9.5 -0.5t6.5 -4.5q-7 -7 -7 -11q0 -3 4 -3h2q22 4 42 8.5
t40 8t42 6t48 2.5q24 0 51 -2.5t50 -7.5t38.5 -13t16.5 -20q3 -3 9 -8t12 -11l11 -11t5 -7z" />
    <glyph glyph-name="six" unicode="6" horiz-adv-x="401" 
d="M573 687q0 -3 -18 -12.5t-42.5 -22t-51 -26t-43.5 -23.5q-21 -13 -53.5 -35t-70.5 -51.5t-78.5 -65.5t-77.5 -77l-33 -44q65 62 116 94t102 32q63 -6 97 -40.5t31 -94.5q-3 -57 -30 -120.5t-72.5 -117t-108.5 -89t-139 -35.5q-33 0 -58.5 16t-43 44.5t-26.5 67t-9 82.5
q0 43 17.5 97t51 110.5t81 112t108 102t133 79.5t154.5 45q39 -4 51.5 -11.5t12.5 -15.5v-1v0zM356 339q0 43 -33 46q-34 0 -79 -23.5t-86 -62.5t-69.5 -89.5t-28.5 -103.5q0 -14 1.5 -28t6 -25.5t13.5 -19t23 -7.5q38 -1 82 27t82 73t63 101t25 112z" />
    <glyph glyph-name="seven" unicode="7" horiz-adv-x="503" 
d="M657 541q0 -4 -5 -6.5t-19 -5t-39.5 -5.5t-66.5 -7q-2 0 -7 -0.5l-10 -1t-9 -2t-4 -3.5q0 -5 7 -6.5t7 -13.5q0 -9 -13 -17l-152 -143q-2 -1 -4 -3q-4 -4 -4 -6q0 -3 4 -3q3 0 6.5 1t5.5 1q14 0 35 -2t41 -9t34 -19t14 -33q0 -5 -1.5 -6.5t-9.5 -2.5q-72 -4 -118 -12
t-74 -17.5t-42 -20t-22 -19.5q-37 -49 -67 -90q-13 -18 -25.5 -36t-23 -34t-18.5 -29.5t-11 -20.5q-1 0 -2 -5t-2 -11t-2 -11t-2 -5q-3 0 -13 4.5t-21.5 12t-20 16t-8.5 16.5q0 5 1 12.5t4 17.5q6 25 20 54q12 25 33 58t56 69q2 0 2 2q0 4 -4 11.5t-8.5 16t-8 16t-3.5 10.5
q0 12 3 17.5t14 9t33 7t60 11.5q2 0 8.5 4.5t23.5 18.5q51 46 93 84l36 32t33.5 28.5t27.5 21.5t17 12q2 1 5 3q2 2 3.5 2.5t1.5 2.5q0 3 -7 3q-5 0 -9 -1q-61 -7 -120 -12q-51 -5 -107.5 -8.5t-99.5 -3.5q-6 0 -16.5 2t-21 8t-18 17t-7.5 29q0 8 7.5 15.5t20.5 14t29 13
t33 11.5q40 12 91 22q4 0 10.5 -0.5t6.5 -4.5t-7 -9t-7 -7q0 -1 2 -1q5 0 11 2q23 4 57 8.5t70.5 8.5t72.5 6t63 2q50 0 83.5 -9.5t35.5 -33.5q3 -3 9 -8.5t12.5 -11.5t11.5 -11t5 -7z" />
    <glyph glyph-name="eight" unicode="8" horiz-adv-x="502" 
d="M706 612q0 -23 -20.5 -49.5t-44.5 -49.5q-29 -26 -65 -52l-218 -157q33 -34 47 -70.5t15 -84.5q0 -24 -12 -55t-44 -59.5t-88 -48.5t-144 -20q-24 0 -49.5 5.5t-46.5 16.5t-34.5 26.5t-13.5 36.5q0 31 27.5 64.5t65.5 64.5t78 58t65 47q-18 18 -37.5 38.5t-35 42.5
t-26 46t-10.5 49q0 35 19 64t52 52t77 40t93 28.5t101 17.5t102 6q83 0 115 -16t32 -41zM559 525q0 8 -24.5 19t-85.5 11q-47 0 -85 -10.5t-65.5 -26.5t-42.5 -34.5t-15 -33.5q0 -8 8 -22t20 -29t26 -29.5t26 -23.5l228 164q2 1 5 4q2 2 3.5 5t1.5 6zM311 148q0 26 -11 44.5
t-30 41.5q-55 -34 -98 -67q-18 -15 -35.5 -31t-31 -32t-22 -32t-8.5 -31q0 -17 12.5 -19.5t26.5 -2.5q28 0 62.5 10.5t64.5 28t50 41t20 49.5z" />
    <glyph glyph-name="nine" unicode="9" horiz-adv-x="558" 
d="M687 654q0 -38 -19 -90.5t-51 -113t-74 -124.5t-89 -126.5t-95 -119t-91 -100.5q-22 -24 -48 -43q-22 -17 -49 -32.5t-53 -20.5h-6q-8 0 -21.5 2.5t-43.5 12.5q-3 1 -6 4q-6 4 -6 10v2q0 11 32 21q46 13 109.5 76t153.5 175q-51 -28 -103 -37q-14 -2 -32 -4q-23 2 -42 13
t-33 27t-22 34t-8 34q0 66 30 126.5t77.5 113t105.5 95t113.5 72.5t102.5 46.5t72 16.5q16 0 33 -4t31 -12.5t23 -21.5t9 -32zM627 655q0 4 -1 8t-5 4q-24 -4 -65.5 -30t-89.5 -64.5t-97 -85.5t-89 -94.5t-65 -90t-25 -72.5q0 -14 16 -14q8 0 16 1.5t16 3.5q40 7 92.5 29.5
t96.5 61.5q42 57 78.5 111t63.5 100t42.5 80t15.5 52z" />
    <glyph glyph-name="colon" unicode=":" horiz-adv-x="289" 
d="M383 396q0 -5 -1 -9.5t-6 -9.5q-13 -17 -29 -30q-14 -11 -31 -20t-37 -9q-5 1 -9 4q-9 5 -9 18q0 16 11 32t26.5 28t31.5 19.5t26 7.5q2 -1 5 -1q2 -1 4 -1t4 -2q8 -10 11 -15.5t3 -11.5zM142 54q0 -5 -1 -9.5t-6 -9.5q-13 -17 -29 -30q-14 -11 -31 -20t-37 -9q-5 1 -9 4
q-9 5 -9 18q0 16 11 32t26.5 28t31.5 19.5t26 7.5q2 -1 5 -1q2 -1 4 -1t4 -2q8 -10 11 -15.5t3 -11.5z" />
    <glyph glyph-name="semicolon" unicode=";" 
d="M394 396q0 -5 -1 -9.5t-6 -9.5q-13 -17 -29 -30q-14 -11 -31 -20t-37 -9q-5 1 -9 4q-9 5 -9 18q0 16 11 32t26.5 28t31.5 19.5t26 7.5q2 -1 5 -1q2 -1 4 -1t4 -2q8 -10 11 -15.5t3 -11.5zM153 54q0 -11 -12 -29t-28 -36.5t-31.5 -33.5t-22.5 -19q-8 -6 -13 -6q-3 0 -3 3
q0 5 8 15t16 23l6 10q-5 -2 -12 -3.5t-12 -1.5q-5 1 -9 4q-9 5 -9 18q0 16 11 32t26.5 28t31.5 19.5t26 7.5q2 -1 5 -1q2 -1 4 -1t4 -2q8 -10 11 -15.5t3 -11.5z" />
    <glyph glyph-name="less" unicode="&#x3c;" horiz-adv-x="420" 
d="M439 486q0 -11 -10.5 -24t-40.5 -31l-244 -150l163 -146q23 -43 23 -62q0 -16 -8 -21t-19 -5q-9 0 -24 9t-33 23t-38.5 32.5t-39.5 37.5q-46 45 -98 103q-5 7 -9 13q-3 5 -5.5 11.5t-2.5 13.5q0 20 30 22q81 51 161.5 102t160.5 102q9 -2 17 -6q6 -4 11.5 -10t5.5 -14z
" />
    <glyph glyph-name="equal" unicode="=" horiz-adv-x="372" 
d="M451 328q0 -13 -15 -18q-59 1 -93.5 2.5t-60 2t-48 1t-56.5 0.5q-42 0 -59.5 -0.5t-25 -1.5t-11 -2.5t-16.5 -4.5q-1 -1 -4 -2t-10 -1q-5 0 -9 3.5t-5 11.5l-3 58q0 4 4 7q8 5 43 5.5t92 0.5h59t56.5 -0.5t47.5 -0.5h32q6 3 13 3q11 0 23.5 -6.5t22.5 -16t16.5 -21
t6.5 -20.5zM358 169q0 -6 -4 -11t-11 -7q-59 1 -93.5 2.5t-60 2t-48 1t-56.5 0.5q-42 0 -59.5 -0.5t-25 -1.5t-11 -2.5t-16.5 -4.5q-1 -1 -4 -2t-10 -1q-5 0 -9 3.5t-5 11.5l-3 57q1 1 2 3q2 4 8 4q11 0 40.5 1.5t67 3t78 3t73.5 1.5q45 0 65 -3q6 3 13 3q11 0 23.5 -6.5
t22.5 -16t16.5 -21t6.5 -20.5z" />
    <glyph glyph-name="greater" unicode="&#x3e;" horiz-adv-x="420" 
d="M439 274q0 -9 -7.5 -15t-22.5 -7q-81 -51 -161.5 -102t-160.5 -102q-10 2 -17 6t-12 9.5t-5 14.5q0 11 10.5 24t40.5 31l244 150l-163 146q-23 43 -23 62q0 16 8 21t19 5q9 0 24 -9t33 -23.5t38 -33t40 -37.5q46 -45 98 -102q4 -7 8 -13q3 -5 6 -12t3 -13z" />
    <glyph glyph-name="question" unicode="?" horiz-adv-x="674" 
d="M692 539q0 -41 -23.5 -81t-71.5 -69l-233 -138q-11 -11 -18.5 -20t-7.5 -25l6 -27q0 -23 -22 -23q-12 0 -22.5 7t-18 18t-12 23.5t-4.5 23.5q0 18 10 36.5t41 42.5t88 56.5t151 78.5q9 7 20 16.5t20 20t15.5 22.5t6.5 24q0 16 -6.5 24.5t-17 12.5t-22.5 5t-24 1
q-42 0 -74.5 -10t-70.5 -24q-2 -1 -8 -3q-20 6 -35 13q-14 6 -24.5 15t-10.5 21q0 11 10 21q10 18 37.5 30.5t59.5 21t63.5 12.5t50.5 4q36 0 63.5 -10.5t46 -28.5t28 -41.5t9.5 -49.5zM335 68q0 -17 -9 -30.5t-22 -23t-27 -15t-24 -5.5q-6 0 -11 4q-5 3 -9.5 9.5t-6.5 17.5
q0 5 1 9.5t6 9.5q10 12 22 23q11 8 26.5 15.5t35.5 7.5q5 -1 9 -4q3 -2 6 -6.5t3 -11.5z" />
    <glyph glyph-name="at" unicode="@" horiz-adv-x="645" 
d="M689 364q0 -39 -14.5 -82t-39 -84.5t-58 -79t-70.5 -65.5t-76 -44.5t-76 -16.5q-9 0 -17.5 1t-16 5.5t-12 13.5t-4.5 25q0 7 1 17t2.5 19.5t3 17t1.5 10.5t-1 3q-2 0 -6 -4q-33 -35 -65 -62q-28 -23 -58.5 -42.5t-56.5 -19.5q-12 3 -22 10q-8 6 -15 16.5t-7 29.5
q0 21 18 52t48 66t68.5 70.5t80 64t83 46t76.5 17.5q11 0 18 -8t12 -19q2 2 6 5q3 2 6.5 3.5t7.5 1.5q5 0 8 -2.5t9 -9.5q5 -1 11.5 -6.5t6.5 -13.5q0 -4 -2.5 -10t-11.5 -14q-35 -43 -60.5 -73t-42.5 -51.5t-25.5 -36.5t-9.5 -28q-1 -9 4 -18t16 -9q22 0 61.5 19t78.5 56.5
t68 93.5t29 131q-8 29 -26 53q-16 20 -46 37t-81 17q-17 0 -44 -4.5t-60 -15.5t-69 -29.5t-71 -47t-66 -68t-53 -91.5q-15 0 -24 5t-9 13q0 26 12.5 59t35.5 66.5t55 65.5t71 57t84 40t95 15q66 0 111.5 -13t74 -35.5t41 -53t12.5 -65.5zM453 281q0 1 -3 1
q-20 0 -46.5 -12.5t-54.5 -32.5t-54.5 -43.5t-47 -46t-33.5 -40.5t-13 -26q0 -2 2 -2q5 0 18 8.5t31.5 22t40 31.5t43.5 36q51 43 113 98q4 4 4 6z" />
    <glyph glyph-name="A" unicode="A" horiz-adv-x="454" 
d="M669 547q0 -8 -7 -16q-14 -17 -32 -37q-15 -17 -35 -40t-42 -50q-2 -3 -16.5 -19t-35 -41.5t-44 -59t-43.5 -71t-33 -78t-13 -79.5q0 -36 3.5 -70.5t9.5 -63t13 -48.5t14 -27q0 -3 -7 -3q-37 0 -63 21.5t-43 53t-25 68.5t-8 69q0 23 6 49.5t13 46.5v2q0 1 0.5 2t0.5 2
q0 2 -1 2q-2 0 -7 -5q-28 -37 -62 -71q-29 -30 -68.5 -62.5t-86.5 -56.5l-10 -4t-11.5 -3t-13.5 -1q-20 0 -34 8.5t-22.5 23.5t-12.5 35t-4 43q0 48 25 109.5t69 126t104 126t131 109.5t149.5 77.5t158.5 29.5q20 -4 36 -10q14 -5 25 -13t11 -20q0 -3 -3 -6.5t-10 -4.5
q-2 -1 -3 -1q-2 -2 -2 -3q0 -4 4.5 -7.5t10 -8t10 -10t4.5 -14.5zM611 580q0 3 -5 3q-68 -11 -136.5 -48.5t-132 -89t-119 -111t-96.5 -114t-64.5 -98t-23.5 -63.5q0 -4 4 -4q17 4 64 38q19 15 47 38t66 57t86.5 80.5t110.5 108.5l192 193q7 7 7 10z" />
    <glyph glyph-name="B" unicode="B" horiz-adv-x="691" 
d="M741 534q0 -30 -22.5 -58.5t-50 -51.5t-51 -37.5t-26.5 -16.5q-7 -2 -7 -6q0 -3 3 -4q1 -1 3 -1q17 -7 31.5 -15t25.5 -20t17 -28.5t6 -39.5q0 -42 -25 -78.5t-64 -66.5t-86.5 -53t-91.5 -39t-80.5 -24t-52.5 -8q-33 0 -55 9.5t-36 20.5q-16 13 -26 31q-4 5 -7 5
q-5 0 -12 -14t-14 -30.5t-13 -30t-7 -13.5v1q-3 -10 -10 -10q-9 0 -17.5 10t-14.5 22.5t-9.5 23t-3.5 12.5q0 20 12.5 47t27.5 52q18 29 40 60q9 17 38.5 51.5t69.5 75t84.5 83.5t84 78t67.5 57.5t35 22.5q8 0 13.5 -4t8.5 -9q4 -6 5 -13q0 -8 -9 -13q-2 -1 -8.5 -8
t-16.5 -18t-22.5 -24.5t-25.5 -27.5l-68 -74q-2 -4 -2 -5q0 -2 3 -2q10 0 38 10t64 26t75.5 37t72 43t54 43t21.5 39q0 13 -18.5 20t-42.5 10.5t-47 4t-32 0.5q-79 0 -149 -13.5t-129 -35t-106 -46.5t-79.5 -48t-50 -40.5t-17.5 -22.5q0 -4 5 -4q18 0 49.5 11.5t63 26
t56.5 28t30 17.5q12 9 18 9q3 0 6 -5q-20 -34 -48.5 -61t-57.5 -46t-54 -29t-39 -10q-23 0 -39 10t-26.5 23t-15.5 26.5t-5 21.5q0 35 27 69.5t71.5 65.5t101.5 57t116 45.5t116 30t101 10.5q76 0 121.5 -18.5t69.5 -42.5t31 -47.5t7 -33.5zM621 295q0 8 -8 13t-18 7
q-11 3 -25 3q-28 0 -61 -6t-61.5 -12.5t-49 -12.5t-23.5 -6q-12 0 -17 3.5t-7.5 8t-4.5 8t-8 3.5q-4 0 -8 -4l-3 -3q-3 -3 -11.5 -14.5t-21 -28t-27.5 -37t-31 -41.5q-37 -49 -82 -110v-1q5 -9 20 -9h3h9q39 0 86 12t95.5 31.5t94 44.5t81 51.5t57 52.5t21.5 47z" />
    <glyph glyph-name="C" unicode="C" horiz-adv-x="511" 
d="M820 572q0 -23 -16 -49.5t-42.5 -53.5t-60.5 -51.5t-70.5 -43.5t-73 -30.5t-66.5 -11.5q-11 0 -25.5 3.5t-27.5 10t-22.5 17.5t-9.5 26q0 6 5 12t19 14q23 10 47 21q20 10 42 21.5t39 23.5l5 5q2 2 4.5 3.5t4.5 1.5q4 0 4 -8q0 -4 -6 -12.5t-28 -20.5q-14 -11 -19 -15
t-5 -6l1 -1q6 0 25 11t44 27.5t52 37.5t50 40.5t38 35.5t15 24q0 5 -5 9.5t-22 4.5q-84 0 -164 -32.5t-151 -83.5t-130 -114t-101.5 -124t-66.5 -113t-24 -81q0 -7 3.5 -14.5t17.5 -7.5q9 0 45.5 12t93.5 36t130.5 60.5t156.5 86.5q2 1 4 3q2 1 3 2t3 1t2 -2q0 -4 -12.5 -27
t-36.5 -55t-58.5 -68.5t-77.5 -68t-94 -52t-109 -20.5q-28 0 -49 8t-37 21t-26.5 29.5t-17.5 34.5q-17 40 -19 93q1 64 30.5 129t79.5 124t116 110.5t139 89.5t148.5 59.5t145.5 21.5q22 0 50 -4.5t52.5 -16.5t41 -32t16.5 -51z" />
    <glyph glyph-name="D" unicode="D" horiz-adv-x="776" 
d="M895 434q1 -40 -21 -92.5t-60.5 -108t-92 -109t-117 -96t-134.5 -69t-144 -26.5q-18 2 -32 12q-12 8 -22 24t-10 45q2 10 6 21q4 9 10 19.5t15 19.5l4 4q4 4 4 6h-1q-3 0 -10 -5l-181 -135q-5 -6 -11 -10q-5 -4 -11.5 -7t-12.5 -3q-5 0 -11 3l-24 23l-2 2q-1 1 -1 7
q0 4 2 10.5t7 16.5q4 8 20 34.5t44.5 66t69 90t92.5 106.5t116 115t140 115q6 6 13 10q6 4 12.5 7t14.5 3q5 0 10 -3l10 -6q8 -5 12 -11v-1q0 -1 0.5 -2t0.5 -2q0 -6 -5 -10l-70 -68q-69 -72 -131 -138q-26 -28 -53 -57.5t-51.5 -57t-44.5 -51.5t-32 -41q-8 -11 -8 -14
q0 -2 2 -2q3 0 6 3q23 15 51 32q24 14 55.5 31t67.5 34q1 1 4 2q4 2 9 2t8 -4l19 -23l2 -4q2 -4 2 -8q0 -5 -4 -8q0 -1 -11 -11.5t-24.5 -25t-24.5 -28.5t-12 -21q0 -2 1 -3q2 -2 4 -2q30 0 77 20.5t100 53.5t107 75.5t97.5 87t70.5 87.5t27 77q0 9 -10 28t-36.5 38.5
t-72 34t-117.5 14.5q-71 0 -138.5 -14.5t-127 -37.5t-110 -50.5t-86.5 -53.5t-56 -48t-20 -32q0 -3 3 -3q11 0 29.5 6t41.5 15.5t47.5 22t46.5 25t40 24t27 20.5q7 5 13 9q5 3 10.5 6t8.5 3q4 0 4 -11q0 -3 -9.5 -17t-26.5 -34.5t-40.5 -43.5t-51.5 -42t-59 -32t-64 -13
q-8 0 -23 6t-29.5 17.5t-25.5 29t-11 40.5q0 42 28 80.5t74.5 72t107 61t125 47t128 30t117.5 10.5q68 0 118 -12.5t85.5 -32t58 -44t35 -47.5t17.5 -43t5 -31z" />
    <glyph glyph-name="E" unicode="E" horiz-adv-x="493" 
d="M854 546q0 -5 -3.5 -8.5t-14.5 -4.5q-73 -3 -145 -7q-62 -4 -133 -10t-131 -15q-4 0 -8 -2q-8 -4 -8 -9q0 -3 1 -5q0 -1 -1 -3q-2 -4 -7 -9l-113 -121l-4 -4q-3 -3 -3 -7q0 -3 4 -3q1 0 11 2q19 1 39 2q17 1 38 1.5t41 0.5q23 0 41.5 -1t23.5 -5l9 -6.5t20.5 -15.5
t20.5 -19t9 -18q0 -6 -3.5 -10t-18.5 -6q-75 -8 -137 -13q-27 -3 -53.5 -5t-49 -4t-39 -3t-23.5 -1h-3q-2 0 -3.5 0.5t-3.5 0.5q-7 0 -17.5 -7t-18.5 -18l-122 -162q-2 -3 -3 -5q-2 -6 -2 -7q0 -3 3 -3q5 0 13 4q27 3 60 7q28 3 63.5 5.5t75.5 2.5q24 0 49 -1t49 -4
q4 0 14.5 -2t26 -10t35 -24t42.5 -45l2 -4l2 -4t1 -4q0 -3 -3 -5t-12 -2q-72 0 -141 -1q-60 -1 -124.5 -3t-113.5 -6q-2 -1 -4 -1h-9q-13 0 -30.5 3.5t-28.5 16.5q-1 1 -2 3q-2 1 -3.5 2t-3.5 1q-3 0 -7.5 -2t-10.5 -10l-1 -1q-1 -1 -2 -1q-2 0 -8.5 3.5t-14 11t-13 18.5
t-5.5 26t7 30q15 34 36 69q18 30 44 65.5t60 67.5q1 1 2 3t2 3t1 3q0 5 -8 5q-11 0 -22.5 6.5t-11.5 22.5q0 4 6 10t29 12l54 14q5 -1 10 2q10 3 23 19q33 32 61 58q24 23 47.5 43t33.5 25q2 1 4 3q5 5 5 7q0 3 -7 3q-5 0 -9 -1q-27 -4 -56 -8q-25 -3 -55 -5t-59 -2
q-45 0 -70 7.5t-37 16.5q-14 11 -17 25q0 15 20 26l117 46q1 0 3 1q2 0 3 0.5t3 0.5q4 0 8 -1.5t9 -6.5q1 -2 4 -3q4 -3 12 -3q5 0 38 8.5t87 19t124.5 19t150.5 8.5q43 0 89 -2.5t84 -11t62 -25t24 -44.5z" />
    <glyph glyph-name="F" unicode="F" horiz-adv-x="442" 
d="M851 515q0 -5 -3.5 -7t-17.5 -2q-2 0 -23.5 -0.5t-55.5 -1t-76.5 -1.5t-86.5 -3t-86 -5t-75 -6q-4 0 -10 -0.5t-6 -4.5q0 -5 7 -6.5t7 -13.5q0 -9 -13 -17l-127 -117q-2 -1 -4 -3q-4 -4 -4 -6q0 -3 7 -3q3 0 33.5 3t69.5 3q29 0 56 -3t48 -10.5t33.5 -20.5t12.5 -33
q0 -5 -1.5 -6.5t-9.5 -2.5q-12 -1 -27 -2q-13 -2 -31 -3.5t-38 -4.5q-88 -13 -139.5 -20t-80 -12.5t-40.5 -11.5t-20 -15q-37 -49 -67 -90q-13 -18 -25.5 -36t-23 -34t-18.5 -29.5t-11 -20.5q-1 0 -2 -5t-2 -11t-2 -11t-2 -5q-3 0 -13 4.5t-21.5 12t-20 16t-8.5 16.5
q0 5 1 12.5t4 17.5q6 25 20 54q12 25 33 58t56 69q2 0 2 2q0 4 -4 11.5t-8.5 16t-8 16t-3.5 10.5q0 10 2.5 16t12.5 10t29.5 7.5t52.5 9.5q3 1 6 1t7 1h1q2 0 8.5 3.5t22.5 19.5q44 39 81 71q16 13 31.5 26.5t29.5 25t24.5 19t15.5 10.5q2 1 5 3q2 2 3.5 2.5t1.5 2.5
q0 3 -7 3q-5 0 -9 -1q-49 -7 -99 -12q-43 -5 -93 -8.5t-93 -3.5q-6 0 -16.5 2t-21 8t-18 17t-7.5 29q0 14 25.5 27t58 23t61.5 17t36 9q4 0 10.5 -0.5t6.5 -4.5t-7 -9t-7 -7q0 -1 2 -1q5 0 11 2q56 11 118 20q53 8 118.5 14t131.5 6q78 0 145.5 -12t106.5 -46q3 -2 9 -7.5
t12.5 -11.5t11.5 -11.5t5 -7.5z" />
    <glyph glyph-name="G" unicode="G" horiz-adv-x="500" 
d="M771 532q0 -5 -7 -19.5t-35 -39.5q-49 -55 -95 -109q-20 -23 -40.5 -48t-40 -49.5t-37 -48t-30.5 -42.5q-59 -86 -119.5 -178t-130.5 -174t-153.5 -146t-189.5 -94q-11 0 -24 2.5t-24 8.5t-18.5 15t-7.5 22q0 22 18.5 56t57 70.5t96 71t135.5 57.5q4 2 12 3t16 12
l286 341l15 20q2 4 2 5q0 2 -1 2q-2 0 -5 -4l-13.5 -13.5l-30 -30l-32 -32t-19.5 -20.5q-29 -31 -72 -73t-91 -79.5t-97 -64t-90 -26.5q-26 0 -42.5 13.5t-26 33t-13 41.5t-3.5 39q0 63 36 129.5t95.5 129.5t136.5 119t159 98.5t163.5 67t150.5 24.5h1q18 0 32 -7
t23.5 -16.5t14.5 -19.5t5 -16q0 -5 -1 -7q12 -5 19 -9.5t10 -7.5q4 -4 5 -7zM706 548q0 4 -9 4q-41 0 -97 -18.5t-120 -52t-131.5 -81t-131 -105.5t-118.5 -125t-93 -140q-3 -5 -3 -7q0 -4 5 -4q21 0 65 24.5t102 65.5t126 95t138 111.5t137.5 115.5t123.5 108q6 6 6 9z
M122 -133q0 2 -2 2q-38 -13 -81.5 -47.5t-81.5 -72.5t-63 -70.5t-25 -42.5q0 -4 3 -5q2 -1 4 -1q8 0 27.5 13t45 34t53.5 47.5t52.5 52.5t43 50t24.5 40z" />
    <glyph glyph-name="H" unicode="H" horiz-adv-x="555" 
d="M901 676q0 -4 -3 -7q-38 -37 -83 -82.5t-85 -86.5t-66.5 -71t-26.5 -36q0 -5 8 -5q35 -1 48.5 -2t16.5 -4q2 -2 5 -4q5 -4 14 -5q4 0 17 -2.5t27.5 -7.5t26 -13t11.5 -19q0 -5 -4.5 -6.5t-29.5 -5.5q-41 -6 -78.5 -10.5t-68.5 -8.5t-52.5 -7t-28.5 -4q-6 -1 -10 -3
t-8.5 -4.5t-6.5 -7.5q-42 -54 -80 -106q-17 -22 -34 -45.5t-33 -46.5t-30.5 -44t-24.5 -37l-2 -6q-3 -5 -8 -5q-11 0 -22 18.5t-11 42.5q0 18 12.5 43.5t30.5 54t38.5 58t37.5 53.5l3 3q4 4 4 7q0 2 -4 2h-5l-130 -22q-4 0 -10.5 -2t-12.5 -10q-30 -42 -56 -77
q-22 -30 -41.5 -57t-23.5 -34q-7 -10 -13 -20q-5 -8 -10.5 -16t-7.5 -12q-1 -3 -3 -6q-4 -6 -10 -6q-4 0 -11 3.5t-13.5 10.5t-11.5 17.5t-5 25.5q0 6 7 24t18 40.5t26 47t31 44.5l2 4q1 2 2 3.5t1 3.5q0 4 -7 4l-47 2q-7 0 -20.5 8.5t-26.5 20.5t-23 26.5t-10 27.5
q0 9 10 9q27 -3 47 -5.5t37 -2.5q22 0 50.5 3.5t80.5 12.5q2 1 6 4q8 6 18 16q73 75 136 138q27 27 54.5 54t52.5 50t45.5 40t32.5 25q12 7 18 7q5 0 15 -9.5t10 -16.5q0 -5 -4 -9q-58 -63 -106 -116q-21 -23 -41 -45t-37 -41t-29.5 -32.5t-17.5 -19.5q-2 -2 -3 -4
q-3 -5 -3 -9q0 -7 11 -7q2 0 4 0.5t4 0.5q22 2 40 4q16 2 31.5 3.5t21.5 2.5h2q5 0 17.5 3t25.5 14q73 74 137 136q27 27 55.5 53.5t55 50t49 41.5t37.5 27q2 1 5 3q2 1 5 2t6 1q6 0 10 -4q14 -11 18 -14.5t4 -6.5z" />
    <glyph glyph-name="I" unicode="I" horiz-adv-x="385" 
d="M646 648q0 -36 -26.5 -86.5t-71 -109.5t-102 -121.5t-119 -122t-123.5 -111.5t-114 -89q-27 -20 -55 -35q-24 -13 -53 -23.5t-56 -10.5q-4 0 -8.5 0.5t-11.5 3.5t-18.5 8.5t-28.5 14.5q-3 1 -5 4q-5 5 -5 11q0 5 7.5 10t28.5 7q27 3 72.5 28.5t101.5 66.5t118 93.5
t123.5 108.5t117 112t98 104t67.5 84.5t25 53.5q0 8 -8 8q-25 0 -71.5 -19.5t-101.5 -50.5t-113 -70.5t-105 -80t-77 -78.5t-30 -66q0 -2 3 -2q13 0 44 18.5t66.5 45t68.5 54.5t50 48q5 5 9.5 7.5t6.5 2.5t4 -1q4 -2 4 -7q0 -4 -10.5 -23t-29 -46t-43.5 -57t-54 -55.5
t-61.5 -42t-64.5 -16.5q-18 0 -30 9t-19 22.5t-10 28t-3 25.5q0 48 27.5 97.5t71.5 96t100 87.5t114 71.5t112 48t94 17.5q16 0 33 -3t30.5 -11t22 -22t8.5 -37z" />
    <glyph glyph-name="J" unicode="J" horiz-adv-x="404" 
d="M670 652q0 -20 -13 -46q-9 -17 -30.5 -53.5t-51.5 -85.5t-67.5 -105.5t-77 -113t-80 -110t-77.5 -94.5q-12 -13 -34.5 -39.5t-53.5 -59t-68 -66t-78 -61.5t-84 -45.5t-85 -17.5q-9 0 -20 1.5t-20.5 6t-16 13.5t-6.5 23q0 26 16.5 55t43.5 58t61 55.5t69.5 47t68.5 32.5
t58 12q6 0 6 -6q0 -4 -4 -6.5t-25 -13.5q-19 -9 -44 -27.5t-51.5 -41.5t-52.5 -48.5t-46.5 -49.5t-33 -43.5t-12.5 -30.5q0 -4 4 -4q16 0 47.5 24t73 63.5t89.5 91.5t97.5 108.5t97.5 114t89 107.5t72.5 89t48.5 60q5 7 17 21.5t27 33.5t31 39t29.5 38t23 31t11.5 18
q2 3 4 7q2 3 3.5 6t1.5 6q0 4 -5 4q-45 0 -99 -24t-109 -61.5t-106 -84t-90.5 -91t-63.5 -82t-24 -58.5q0 -4 3 -4q6 0 19 8t38.5 27t66 50t100.5 77q5 6 10 10t9 7t7 3q0 -1 1 -1q2 -2 2 -3q0 -3 -3.5 -8t-9.5 -14q-24 -35 -55 -75.5t-64 -74.5t-66 -56.5t-62 -22.5
q-32 0 -50.5 26.5t-18.5 67.5q0 32 21 77.5t58 95.5t87 100t109 90t123.5 64.5t130.5 24.5q14 0 29 -3.5t27 -11.5t19.5 -20.5t7.5 -30.5z" />
    <glyph glyph-name="K" unicode="K" horiz-adv-x="496" 
d="M826 615q0 -40 -22 -76.5t-60.5 -70t-92.5 -64t-117.5 -58.5t-135.5 -54t-147 -49q-5 -1 -9 -3q-8 -4 -8 -7q0 -8 12.5 -28t33 -45.5t46.5 -54t52.5 -53.5t52 -44.5t45.5 -26.5q24 -9 28.5 -18.5t4.5 -13.5t-8 -8q-14 -7 -28 -12q-12 -5 -26 -8t-26 -3q-39 0 -75.5 30.5
t-70.5 74.5t-65 93t-58 87l-5 5q-6 6 -10 6t-7 -4q-33 -39 -59 -71.5t-46.5 -61.5t-36 -57.5t-28.5 -59.5q0 -3 -1 -5q-2 -4 -7 -4q-3 0 -11 5.5t-17 15t-16.5 21.5t-9.5 26q0 22 30 78.5t95 138.5t167.5 185t248.5 217l3 3q2 1 4.5 2t5.5 1q8 0 15 -8l10 -11q1 -1 2 -3
t2 -3t1 -3q0 -4 -4 -8q-18 -21 -43.5 -49t-53 -58.5t-55.5 -61.5t-51.5 -58t-41.5 -47.5t-25 -29.5q-3 -4 -6 -7q-6 -8 -6 -9t2 -1t10 3q31 9 75 27.5t91.5 42.5t94.5 51.5t84.5 52.5t60.5 46.5t23 34.5q0 2 -4 2q-9 0 -16 -5t-21 -5q-3 0 -6.5 2t-3.5 9q0 8 14 13
q12 5 35 18q19 11 51 31t80 54q1 1 4 3q6 4 10 4t12 -5t15.5 -13t13 -18t5.5 -20z" />
    <glyph glyph-name="L" unicode="L" horiz-adv-x="595" 
d="M895 602q0 -13 -16 -43t-52 -66t-93.5 -72t-140.5 -61q-9 -2 -17 -3q-7 -1 -14.5 -1.5t-13.5 -0.5q-11 0 -11 3t7 7q28 15 61 38t65.5 49t62.5 52.5t53 50.5t37 42.5t14 28.5q0 4 -6 4q-5 0 -14 -3q-30 -9 -70 -35q-34 -23 -81.5 -67t-105.5 -122q-48 -66 -89 -122
q-18 -24 -36 -48.5t-35 -46.5t-31 -39.5t-23 -27.5q-3 -2 -6 -6q-3 -3 -6 -7t-8 -9q64 -7 110.5 -10t85.5 -14t74.5 -35t77.5 -72q2 -3 5 -7q6 -8 6 -10q0 -3 -3 -3q-5 0 -13 4q-40 11 -95 20q-47 8 -113.5 14t-152.5 6h-42t-50 -1q-27 -26 -67.5 -50t-83 -43.5t-82.5 -31
t-66 -11.5q-18 0 -40 5.5t-42 17.5t-33.5 29.5t-13.5 41.5q0 12 16.5 37.5t61 51t122.5 45t201 19.5q116 132 200.5 237.5t154.5 180t135 114.5t142 40q6 0 18.5 -3t25 -11t21.5 -21.5t9 -34.5zM74 -13q-30 0 -69.5 -6t-75.5 -16t-61 -22.5t-25 -24.5q0 -10 24 -13
q18 0 38 1.5t45 9.5t55.5 24.5t68.5 46.5z" />
    <glyph glyph-name="M" unicode="M" horiz-adv-x="667" 
d="M993 642q0 -9 -20 -37t-53 -67.5t-74.5 -88.5t-85.5 -101t-85.5 -104.5t-74.5 -98.5t-53 -83.5t-20 -59.5q0 -33 2 -54.5t4.5 -34t4.5 -18t2 -7.5q0 -5 -6.5 -6t-14.5 -1q-10 0 -22 2t-23 11.5t-20 29t-14 55.5q0 33 8 64.5t26.5 67t49 77t75.5 96t106.5 123.5t141.5 159
q2 3 5 7q6 6 6 8t-7 -5q-31 -28 -71 -64t-82 -75t-84 -78.5t-78 -73.5t-62.5 -61t-38.5 -41q-18 -21 -42.5 -49t-48 -56.5t-43 -53t-27.5 -36.5q-2 -4 -4 -7q-4 -6 -10 -6q-13 0 -21 9.5t-13 23.5t-7 29.5t-2 27.5q10 38 29.5 87.5t46.5 103.5t60 109t71 104l47 61q1 3 3 6
q4 6 4 8l-1 1q-1 0 -10 -10q-40 -44 -73 -79l-28 -30t-25.5 -27.5t-19.5 -21.5t-11 -12t-13.5 -14.5t-26 -28.5t-34.5 -38l-38 -42q-46 -50 -102 -111q-37 -40 -71 -73q-29 -29 -60 -56.5t-52 -38.5q-27 -10 -51 -17q-20 -7 -39 -12t-27 -7q-2 0 -6.5 0.5t-4.5 4.5
q0 2 2.5 4.5l7.5 7.5q42 42 78 79q31 32 61 62l44 44q6 4 29 26t58 56t79 77.5t92 89t97.5 91.5t94 85t82 68t62.5 43l22 6q9 2 19 4t18 2q5 0 12 -1.5t7 -9.5q0 -7 -9 -16q-42 -62 -78 -116q-15 -23 -30.5 -46.5t-29 -44.5t-24 -38.5t-15.5 -27.5l-61 -115l-2 -4
q-1 -2 -1 -7q0 -1 0.5 -2.5t1.5 -0.5q88 72 167 143.5t145 128.5t116 93t79 36q5 0 6 -2t8 -2t14 7q4 3 8 7q4 2 8 4.5t9 2.5q2 0 5 -1.5t20 -12.5q1 0 3 -2l2 -4t1 -4z" />
    <glyph glyph-name="N" unicode="N" horiz-adv-x="503" 
d="M970 651q0 -2 -2 -4.5t-9 -6.5q-59 -33 -134 -98.5t-154 -148.5t-155.5 -175.5t-139.5 -179.5q-20 -33 -34 -51.5t-25.5 -27.5t-22 -10.5t-22.5 -1.5q-24 0 -38 27t-14 83q0 20 4 45t15 53q21 54 43 104q19 43 42 88t46 76q9 15 17 26q6 10 11.5 18.5t5.5 10.5
q0 3 -12 -12q-71 -91 -136 -171q-28 -34 -57.5 -69t-58 -67t-54.5 -59t-46 -44q-53 -56 -107 -105q-46 -43 -99 -86t-99 -68q-5 -4 -11 -7q-12 -7 -28 -7q-6 0 -17.5 4t-23 10.5t-20.5 16.5t-9 22q0 11 12 20l164 138l8 6q3 2 6.5 4.5t5.5 2.5t2 -2q0 -14 -18 -31t-44 -44
q-5 -5 -8.5 -9.5t-3.5 -6.5t2 -2t10 6q40 28 92.5 74t111 102.5t120 119t119.5 124.5q136 144 281 309q9 7 20 12q10 5 22.5 8.5t29.5 3.5q8 0 19.5 -2.5t11.5 -12.5q0 -6 -9 -18q-8 -19 -29.5 -57t-49 -87.5t-58 -105.5t-55.5 -110.5t-41.5 -102.5t-16.5 -81q0 -8 4 -8
q6 0 20 20q1 3 23 39.5t58.5 91t84.5 119t102 122.5t109.5 102t108.5 58q28 4 53 8q21 3 42 5.5t32 2.5q0 -1 1 -1z" />
    <glyph glyph-name="O" unicode="O" horiz-adv-x="497" 
d="M746 627q0 -24 -17.5 -65.5t-48.5 -94t-73 -111t-91 -116.5t-102 -110.5t-106 -93t-104 -64.5t-95 -24q-21 0 -43.5 9.5t-41 28.5t-30.5 45.5t-12 61.5q0 42 23 99t62.5 117.5t93 119.5t114.5 106t126 75.5t128 28.5q8 0 16.5 -1t16.5 -3q21 12 42 23q18 8 39.5 15.5
t40.5 7.5q23 0 35.5 -8.5t18.5 -18.5t7 -18.5zM681 602q0 3 -4 3q-25 0 -60.5 -19t-74.5 -48t-77.5 -62.5t-69.5 -62.5t-50.5 -49.5t-20.5 -21.5q-9 -13 -13 -13q-2 0 -2 5q0 7 1 10q0 3 1 5q4 14 18 39t29 48q18 27 39 58q7 13 7 16q0 2 -2 2q-3 0 -7 -3t-9 -6
q-5 -4 -11 -8q-100 -90 -159.5 -169t-91 -140t-41 -99t-9.5 -47q0 -10 2.5 -13t6.5 -3q21 0 57.5 22t82.5 58.5t97.5 84t102.5 98.5t97.5 101.5t82.5 93.5t57 75t21 45z" />
    <glyph glyph-name="P" unicode="P" horiz-adv-x="578" 
d="M782 483q0 -26 -18 -57t-48 -61.5t-69.5 -59t-82 -50.5t-85.5 -35t-80 -13q-21 0 -47.5 10.5t-45.5 45.5q-49 -66 -89 -122q-17 -24 -34 -48.5t-31.5 -45.5t-25 -38t-14.5 -26v-3q0 -2 0.5 -3.5t0.5 -3.5q0 -5 -1.5 -9.5t-6.5 -4.5t-13 4t-16 12.5t-14 22t-6 32.5v7.5
t1 8.5q3 23 29.5 65t67 93t89.5 105t96.5 101.5t88 83t64.5 48.5q16 8 24 8q6 0 15.5 -4.5t9.5 -14.5q0 -5 -4 -9q-21 -22 -39 -41q-16 -17 -31 -32.5t-20 -21.5q-6 -7 -25 -29t-40 -46q-25 -28 -54 -63q-1 -1 -1 -2q-1 -1 -1 -4q0 -7 9 -7q26 0 67 10.5t86.5 28.5t91 42
t82 52t59.5 57t23 58q0 19 -21 31.5t-51 20t-62 10.5t-54 3q-74 0 -141.5 -14.5t-126 -37t-106.5 -50t-82 -52.5t-52.5 -44.5t-18.5 -26.5q0 -5 7 -5q4 0 24.5 6t52 18t72.5 30.5t85 44.5l4 2q4 2 6 2t2 -2t-9 -14.5t-24 -30.5t-36 -37.5t-44.5 -36.5t-49.5 -28t-51 -11
q-14 0 -30.5 5.5t-30 17t-22.5 29.5t-9 42q0 39 41 89.5t112.5 95.5t168.5 76t209 31q40 0 88 -12t89.5 -36.5t69.5 -63.5t28 -93z" />
    <glyph glyph-name="Q" unicode="Q" horiz-adv-x="544" 
d="M679 440q0 -39 -27 -82.5t-75.5 -89t-116.5 -92.5t-150 -92l-12 -8q-5 -3 -8.5 -6.5t-3.5 -5.5q0 -3 9 -3q39 0 84 -6.5t88.5 -22t84 -42.5t70.5 -68q0 -1 1 -2q2 -2 2 -4q0 -3 -5 -3q-6 0 -37.5 7t-82.5 16t-119 16t-149 7q-63 0 -107 -1t-76 -3.5t-54.5 -6t-43 -8.5
t-42 -10.5t-50.5 -12.5q-1 -1 -2 -1h-7q-3 0 -15.5 3.5t-25.5 9.5t-23.5 15t-10.5 20q0 9 12 17q15 9 51.5 20.5t80 22t87 18t71.5 8.5q6 0 48.5 20.5t103.5 55t130 79.5t128 93.5t98 97.5t39 92q0 9 -4 17.5t-15 15.5t-31 11.5t-51 4.5q-7 0 -44.5 -3.5t-93.5 -21.5
t-125.5 -56.5t-139.5 -108.5q-8 -8 -14 -16q-5 -7 -9 -14.5t-4 -13.5q0 -11 16 -11q13 0 45.5 9.5t71.5 26.5t78 41.5t67 56.5q6 6 10 11q4 4 8 7.5t6 3.5q1 -2 3 -3q1 -2 2 -2.5t1 -2.5q0 -33 -28 -70.5t-68.5 -69t-85 -52t-77.5 -20.5q-28 4 -50 19q-19 13 -35 38.5
t-15 70.5q0 39 35 86.5t91.5 88.5t128.5 68.5t146 27.5q76 0 122 -21.5t71.5 -51.5t34 -61.5t8.5 -52.5z" />
    <glyph glyph-name="R" unicode="R" horiz-adv-x="650" 
d="M850 532q0 -31 -17 -63t-58.5 -66.5t-111.5 -72.5t-177 -81l-10 -4q-10 -4 -10 -10q0 -3 4 -7q41 -47 82 -90l37.5 -37.5t39 -38t39 -35t36.5 -28.5q2 -3 5 -6q6 -6 6 -12t-6 -10.5t-15.5 -7t-21 -3.5t-21.5 -1q-11 0 -25 1t-28.5 5.5t-29 13t-26.5 22.5q-52 56 -97 105
q-19 21 -39 43t-37.5 42t-32 38t-23.5 30q0 1 -1 2q-2 2 -3 2q-2 0 -5 -4q-23 -28 -52.5 -66t-57 -75.5t-49 -69.5t-28.5 -50q0 -3 -1 -9.5t-6 -6.5q-2 0 -10.5 3.5t-18 12t-17.5 21.5t-8 32q0 26 20 62q64 90 134 174q30 36 64.5 73t72 72t76.5 65.5t79 53.5l6 4q6 4 12 4
q4 0 15.5 -6t11.5 -19q0 -8 -8 -15q-38 -38 -72 -74q-29 -31 -59.5 -65t-48.5 -58q-4 -4 -7 -8q-6 -8 -6 -13q0 -3 5 -3h4q82 20 160 52q33 13 69.5 30t72 37.5t69 44.5t61.5 52l8 10l6 10t3 11q0 23 -39 35t-103 12q-48 0 -105.5 -6.5t-118.5 -19.5t-122.5 -32.5
t-117 -45.5t-101.5 -58.5t-77 -71.5q-8 -9 -8 -13q0 -3 4 -3q10 0 31 8t46.5 19t51.5 24t45 23q18 11 34 21q14 8 27 15t19 7t6 -3q0 -2 -7 -9q-14 -18 -39.5 -45.5t-57.5 -53.5t-67.5 -44.5t-69.5 -18.5q-29 0 -46 13t-26 30q-11 18 -14 43q0 12 6 28.5t23 37.5
q13 15 38 39.5t63 52t88.5 56t113.5 51.5t138 38t162 16q36 0 83 -7.5t88 -25.5t69.5 -48.5t28.5 -76.5z" />
    <glyph glyph-name="S" unicode="S" horiz-adv-x="566" 
d="M806 500q0 -12 -13.5 -28.5t-41 -31.5t-70.5 -25.5t-103 -10.5h-23t-27.5 1.5t-23 4.5t-9.5 8q0 7 17 14t43 14t55.5 14.5t55.5 17t43 21t17 25.5q0 5 -9 9t-35 4q-33 0 -88 -4t-122 -19t-141.5 -45t-146.5 -82q-11 -8 -20 -17q-8 -8 -13.5 -16.5t-5.5 -16.5
q0 -11 23.5 -17.5t56.5 -10t68.5 -4.5t59.5 -1q35 0 68.5 -5t60 -16t42.5 -30.5t16 -48.5q0 -37 -26 -71t-70 -63.5t-101.5 -53.5t-119.5 -41.5t-125 -27.5t-118 -10q-23 0 -52.5 6.5t-55.5 19t-44.5 30.5t-18.5 40q0 5 4.5 9t17.5 5q33 4 63 8q26 4 50.5 9t37.5 11q2 0 5 1
q2 0 4 0.5t4 0.5q5 0 5 -2q0 -4 -12 -13q-20 -11 -36 -15t-16 -10q0 -2 13 -2q16 0 60.5 7t102 20t119.5 31t114 39t86 44.5t34 48.5q0 11 -16.5 16.5t-35.5 5.5q-20 0 -45 -2t-57 -2t-76.5 2t-86 13t-70.5 35t-29 68q0 10 12 33t38.5 52t68.5 60.5t101 58.5t136 46t174 22
q6 0 25 -1t44.5 -5.5t53 -13t51 -23.5t38.5 -37t15 -53z" />
    <glyph glyph-name="T" unicode="T" horiz-adv-x="228" 
d="M780 566q0 -4 -4 -7t-20 -3q-12 0 -39 -0.5t-60.5 -1.5t-69.5 -3t-65.5 -5.5t-48.5 -8.5t-19 -12q0 -4 2 -6q0 -3 -1.5 -5.5t-6.5 -7.5q-95 -103 -179 -200q-36 -41 -72.5 -85t-70 -86t-61.5 -79.5t-45 -67.5q-1 -10 -4 -17q-2 -7 -6 -12t-10 -5q-4 0 -13.5 4.5t-19 13
t-16.5 21.5t-7 30t6.5 36.5t23 45.5t45 61t73 81.5t107 106t146.5 136.5q20 19 27 23.5t7 6.5q0 3 -10 3q-4 0 -8.5 -0.5t-11.5 -1.5l-306 -30q-2 -1 -5 -2t-13 -1q-8 0 -22.5 7.5t-29 18.5t-25.5 23.5t-11 22.5q0 6 5 13t19 12q19 8 38 14t35 11q18 5 35 9q1 0 3 1
q2 0 3 0.5t3 0.5q7 0 7 -7q0 -2 1.5 -5t9.5 -3q10 0 48.5 8.5t97.5 18.5t134 18.5t159 8.5q48 0 92 -6t78 -17.5t54.5 -29t20.5 -41.5z" />
    <glyph glyph-name="U" unicode="U" horiz-adv-x="573" 
d="M909 640q0 -6 -10 -17l-236 -243q-2 -3 -15.5 -17.5t-32 -37t-40 -53t-39.5 -65.5t-30 -73.5t-12 -77.5q0 -36 3.5 -70.5t9.5 -63t13 -48.5t14 -27q0 -3 -7 -3q-37 0 -63 21.5t-43 53t-25 68.5t-8 69q0 26 4.5 48t13 44.5t20.5 48.5t26 60q0 1 -2 1q-5 0 -24 -21.5
t-48.5 -53t-68 -69t-83.5 -69t-95 -53t-102 -21.5q-30 0 -46.5 7t-24.5 17.5t-9.5 22t-1.5 21.5q0 34 21.5 73.5t57 82t80.5 86.5t92 86.5t92 81.5t80.5 72t57.5 58.5t22 40.5q0 10 -15 10q-51 0 -107.5 -18.5t-113 -50.5t-110 -74t-99.5 -89q-9 -9 -14 -9q-3 0 -3 5
q0 4 1 6q0 2 1 4q30 79 84 133t113.5 88t114 49t85.5 15q78 0 115.5 -25.5t37.5 -70.5q0 -27 -32.5 -67.5t-81 -87.5t-105.5 -96.5t-106 -95.5t-81.5 -84.5t-32.5 -62.5q0 -4 4 -4q28 0 89.5 36t143.5 98t177.5 143.5t190.5 173.5l123 119q2 5 6 9q3 3 6.5 6t8.5 3q4 0 9 -3
q17 -11 33.5 -20.5t16.5 -19.5z" />
    <glyph glyph-name="V" unicode="V" horiz-adv-x="456" 
d="M939 569q0 -5 -2 -11.5t-10 -6.5q-58 -1 -121 -28.5t-128.5 -71t-131 -99t-127 -113.5t-118 -113t-103 -98t-82 -69.5t-55.5 -26.5q-7 0 -13 3q-6 5 -14.5 10.5t-16 10.5t-12.5 9t-5 7q0 5 12 22q34 36 68 76q29 35 63 78.5t64 91.5q29 48 56.5 97t48.5 91q25 48 46 93
q10 18 14.5 33.5t4.5 24.5q0 11 -8 11q-11 0 -37.5 -11.5t-61.5 -31.5t-74.5 -47t-76.5 -57t-68 -62.5t-47 -63.5q-3 -2 -5 -4q-6 -4 -7 -4q-3 0 -3 6q0 21 14 54t38 71.5t57 77.5t71.5 70t80 51t83.5 20q17 0 39.5 -2.5t43 -13.5t35 -32.5t14.5 -59.5q0 -11 -11.5 -48
t-37 -88.5t-65.5 -113t-98 -119.5q1 1 -5.5 -6t-14 -16.5t-14 -18t-6.5 -11.5q0 -2 3 -2q123 141 239 252q49 47 102 92.5t103.5 81t96.5 57t83 21.5q18 0 36 -3.5t32 -11t22.5 -19.5t8.5 -29z" />
    <glyph glyph-name="W" unicode="W" horiz-adv-x="820" 
d="M1110 612q0 -18 -21.5 -55t-57.5 -85.5t-85 -104.5t-103.5 -112t-112.5 -108t-113 -91.5t-104 -63.5t-86 -24q-11 0 -28 5t-32.5 17t-26.5 33.5t-11 54.5q3 33 13 67q8 29 25 64.5t46 70.5l23 27q0 -1 2 2.5t2 6.5q0 2 -1 2q-3 0 -9 -6q-110 -96 -182.5 -159
t-117.5 -99.5t-67 -51.5t-31 -15q-5 0 -10 3t-10 11q-15 19 -19 23.5t-4 11.5q0 6 2 17t9 28q23 70 78 154q23 35 55.5 76.5t76 88t99 96t124.5 101.5q5 4 9 8q4 3 7 7t3 6t-4 2q-25 0 -65.5 -13.5t-88 -36t-97 -51t-92.5 -57.5t-75 -56.5t-45 -48.5q-1 -3 -2 -5
q-4 -4 -7 -4t-4 1t-1 2q-1 1 -1 6q0 17 19 47.5t52.5 66t81 72.5t104.5 66.5t122 48.5t134 19q20 -7 37 -16q14 -8 25.5 -18t11.5 -22q0 -9 -5 -15q-60 -54 -117 -111q-50 -49 -104.5 -108t-97.5 -115l-72 -94q-2 -2 -3 -5q-3 -5 -3 -9v-1q0 -1 3 0q2 1 5.5 3t10.5 7
q104 73 198 142q40 29 82 60t80.5 60t72 55.5t56.5 46.5l2 2q2 2 6 2q5 0 9 -5q1 -3 6.5 -7.5t11.5 -10t11 -11.5t5 -11q0 -7 -6 -12q-26 -25 -59 -60.5t-67 -76.5t-66 -85t-57 -86.5t-40.5 -80.5t-15.5 -66q0 -9 9 -9q12 0 50.5 24t93 66.5t120 101.5t132 129t129 148
t110.5 160q2 6 5 11q5 10 8 19q1 3 4 7q2 2 5 4.5t8 2.5t10.5 -8.5t10.5 -21t8.5 -26.5t3.5 -25z" />
    <glyph glyph-name="X" unicode="X" horiz-adv-x="449" 
d="M872 647q0 -7 -8 -15q-67 -57 -137 -115l-63 -52.5t-67 -55.5t-68.5 -56t-65.5 -53q-23 -18 -44 -33.5t-34 -39.5q-25 -48 -36 -102.5t-11 -108.5t9.5 -102.5t25.5 -80.5q0 -3 -7 -3q-37 0 -63 21.5t-43 53t-25 68.5t-8 69q0 23 6 49.5t13 46.5v2q0 1 0.5 2t0.5 2
q0 2 -1 2q-2 0 -7 -5q-4 0 -10 -6q0 3 -21 -13t-54 -41.5t-74.5 -56t-83.5 -56.5t-80 -43.5t-64 -17.5q-9 0 -22.5 5.5t-25.5 13t-20.5 14.5t-8.5 10q0 8 14 18q43 28 79 53q31 21 58 41.5t34 30.5q2 1 5 2l4 2t4 1q3 0 3 -3q0 -6 -8 -16t-20 -21.5t-26.5 -23.5t-27.5 -21
q-2 -1 -3 -3q-2 -4 -2 -5q0 -2 2 -2t8 3q73 45 137 85q27 17 55.5 35t54 35t47.5 31.5t36 25.5q8 4 16 10q6 5 12.5 12.5t8.5 16.5q21 54 49 112q24 49 59 108.5t82 115.5q2 1 5 4q5 5 5 8q0 2 -3 2q-12 0 -43.5 -9.5t-73 -27t-89 -41t-92.5 -51.5t-83 -59.5t-61 -64.5
q-2 -2 -5 -4q-5 -3 -8 -3q-4 0 -4 5q0 24 20.5 57.5t55.5 69.5t82.5 71t102 63t113 45.5t116.5 17.5l11 -1.5t24 -7t23.5 -17t10.5 -32.5q0 -12 -16.5 -36.5t-38.5 -57t-43 -71t-30 -78.5q-1 -1 -1 -3q-1 -2 -1 -6t2 -4t9 5q95 68 173 128q33 25 66.5 51t62 49.5t50 41.5
t30.5 29l5 5q2 2 4.5 3.5t6.5 1.5t9 -3q14 -14 17.5 -18t3.5 -8z" />
    <glyph glyph-name="Y" unicode="Y" horiz-adv-x="602" 
d="M912 622q0 -8 -6 -14l-115 -124q-51 -58 -111 -133q-51 -64 -119 -153.5t-144 -201.5q-12 -18 -39 -53.5t-64 -78t-82.5 -87t-95.5 -81t-103 -60t-104 -23.5q-5 0 -14 3.5t-17.5 12t-15 21.5t-6.5 32q0 23 16.5 50t44 54t62.5 52t71.5 44.5t72 31t63.5 11.5h4
q53 62 100 116l40 46t38 43.5t32.5 37t22.5 25.5l159 175l8 10q3 4 5 7t1 3q-2 0 -17 -14l-119 -117q-4 -4 -26 -26.5t-56 -54t-76.5 -67t-87 -66t-87.5 -50.5t-78 -20q-12 0 -26.5 5t-26.5 16t-20.5 27.5t-8.5 39.5q0 11 4 31t19 48.5t44 65.5t80 82l267 238l24 24
q9 10 16.5 20t7.5 15q0 4 -6 4q-3 0 -43.5 -8t-104.5 -32.5t-145 -71.5t-165 -125q-3 -4 -7 -7q-7 -7 -15 -7h-3q-4 1 -4 5q0 7 7 16q4 4 8 9q41 68 96 122t114.5 91.5t118.5 57t107 19.5q16 0 35.5 -4t36.5 -15t28.5 -30t11.5 -49q0 -33 -32.5 -77.5t-81.5 -93.5
t-105.5 -99t-105.5 -94.5t-81.5 -80.5t-32.5 -57q0 -2 3 -2q19 0 57.5 21t86 54t100.5 73.5t102 79.5t88.5 71.5t61.5 50.5q8 6 21 17t29.5 25t35 30t36.5 31q42 36 90 78l59 58q2 2 6 5q8 6 16 6q5 0 10 -3l23 -16q1 -1 3 -4q4 -6 4 -11zM192 -91q0 1 -2 1t-4.5 -1t-5.5 -2
q-4 -2 -7 -3q-54 -29 -100.5 -68t-81 -76.5t-54 -67.5t-19.5 -41q0 -3 3 -3t4 1q1 0 2 1q43 25 88.5 67t83.5 83q44 48 85 99q8 8 8 10z" />
    <glyph glyph-name="Z" unicode="Z" horiz-adv-x="500" 
d="M765 567q0 -10 -16 -15q-100 -40 -212 -102q-96 -53 -216.5 -133.5t-248.5 -193.5l-12 -10q-5 -5 -8 -9t-3 -6t3 -2q1 0 11 2q32 10 69 18q32 7 72 13t82 6q45 0 87.5 -11.5t75.5 -32t53 -48t20 -59.5q0 -6 -5 -6q-2 0 -3.5 0.5l-4.5 1.5q-2 6 -27.5 11t-60.5 8t-74 5
t-69 2q-37 0 -81.5 -1t-90 -5t-88.5 -10.5t-77 -17.5q-2 -1 -5 -2t-11 -1t-17 4t-17 18q-7 1 -12 5q-11 7 -11 24q0 31 36 74t96 92t138.5 100t164.5 99t173 89.5t164 70.5q2 1 4 3q5 2 5 4t-4 2q-2 0 -5 -0.5t-8 -1.5q-53 -8 -106 -17q-45 -8 -97 -18.5t-97 -21.5
q-54 -14 -102.5 -20.5t-83.5 -6.5q-37 0 -57.5 10t-31.5 22q-12 14 -16 33q0 7 9 16q4 4 9 8q23 13 45 24q19 9 39 16.5t34 7.5q4 0 4 -3q0 -2 -3 -8v-2q0 -1 3 -1l3 1q46 15 106 26q51 10 122 18t161 8q37 0 66.5 -3.5t47.5 -14.5l67 -42l5 -5q6 -6 6 -12z" />
    <glyph glyph-name="bracketleft" unicode="[" horiz-adv-x="490" 
d="M619 588q0 -14 -12.5 -19t-30 -6.5t-37 -2t-32.5 -4.5q-5 -1 -30 -28t-58.5 -66.5t-72 -85t-70.5 -84t-53.5 -64.5l-21.5 -26q-49 -67 -77.5 -105t-28.5 -62q0 -22 25.5 -38t83.5 -37l2 -4l2 -4t1 -4q0 -8 -13.5 -11t-35.5 -3q-16 0 -35.5 1t-39 2.5t-38.5 3t-34 1.5
q-2 0 -8.5 3.5t-14 11t-13 18.5t-5.5 26t7 30q17 33 39 67q18 29 43.5 65.5t55.5 71.5q28 33 68 80.5t81 95t77.5 86t57.5 52.5q-14 0 -22 1t-12 3t-5 5.5t-1 9.5q0 4 0.5 6.5t0.5 4.5q0 16 20 27l184 31q19 0 30 -7t16 -16t6 -17t1 -9z" />
    <glyph glyph-name="backslash" unicode="\" horiz-adv-x="364" 
d="M383 20q-1 -2 -1 -3.5t-2 -3.5q-3 -4 -16.5 -11t-24.5 -7q-6 0 -9 3q-2 1 -2 3q-16 9 -34.5 51.5t-36.5 103.5t-34.5 133.5t-29.5 140t-20.5 122.5t-7.5 83q0 14 13 25.5t28.5 19t28 11.5t11.5 3q13 0 17 -14.5t3 -26.5l-3 -44q-3 -38 3.5 -90.5t17.5 -110t25.5 -117
t28.5 -112.5t26 -94.5t19 -64.5z" />
    <glyph glyph-name="bracketright" unicode="]" horiz-adv-x="529" 
d="M647 561q0 -15 -7 -30q-18 -33 -39 -67q-19 -29 -44 -65.5t-55 -71.5q-28 -33 -68 -80.5t-81 -95t-77.5 -86t-57.5 -52.5q28 0 34 -4t6 -15q0 -4 -0.5 -6.5t-0.5 -4.5q0 -16 -20 -27l-184 -31q-20 0 -30.5 7t-15.5 16t-6 17t-1 9q0 13 12.5 18.5t30 7t36.5 2t33 4.5
q5 1 30 28t58.5 66.5t72 85t70.5 84t53.5 64.5l21.5 26q49 67 77.5 105t28.5 62q0 22 -25.5 38t-83.5 37q-2 2 -3 4q-2 4 -2 8q0 8 13.5 11t35.5 3q16 0 35.5 -1t39 -2.5t38.5 -3t34 -1.5q2 0 8.5 -3.5t14 -11t13 -18.5t5.5 -26z" />
    <glyph glyph-name="asciicircum" unicode="^" horiz-adv-x="301" 
d="M371 383q-1 -8 -12 -10t-19 -2q-10 0 -23 16.5t-24 36.5t-19 38t-8 21q-20 -26 -49.5 -46t-60 -34.5t-57 -22t-41.5 -7.5q-12 0 -18 5t-6 10t2 9t4 7t7 3q26 5 52 20t50 34t45.5 40t38.5 38.5t29 28.5t17 11q13 0 24 -6.5t11 -7.5q5 2 9 2h9q17 -2 23 -6.5t6 -11.5
l-19 -65q0 -17 4.5 -34.5t10 -32t10 -24t4.5 -10.5z" />
    <glyph glyph-name="underscore" unicode="_" horiz-adv-x="430" 
d="M481 -71q0 -10 -5 -18.5t-16 -10.5q-64 1 -115 1.5t-95 0.5t-85 0.5t-84 2.5q-2 -1 -5 -2t-10 -1q-6 0 -9 4q-1 1 -1 11l10 57q2 2 19 2t47.5 -1t65.5 -1h24h38.5t46 0.5t46 1t38.5 0.5t24 1q7 3 14 3q14 0 25.5 -9t18.5 -22q8 -10 8 -20z" />
    <glyph glyph-name="grave" unicode="`" 
d="M317 384q-2 -4 -6 -7.5t-10 -3.5q-5 1 -28 12t-50 31t-51.5 49t-32.5 65q0 -2 1 8.5t5.5 23t14 23.5t26.5 11q6 0 13.5 -2.5t14.5 -17.5q5 -24 17 -50q10 -23 28.5 -52.5t47.5 -60.5q2 -5 5 -9q2 -4 3.5 -9.5t1.5 -10.5z" />
    <glyph glyph-name="a" unicode="a" horiz-adv-x="390" 
d="M592 285q0 -10 -9 -18q-89 -78 -165 -140q-32 -26 -64.5 -51.5t-60.5 -45t-49.5 -31.5t-31.5 -12q-17 0 -25.5 11.5t-8.5 43.5q0 7 1 17t2.5 19.5t3 17t1.5 10.5t-1 3q-2 0 -6 -4q-33 -35 -65 -62q-28 -23 -58.5 -42.5t-56.5 -19.5q-12 3 -22 10q-8 6 -15 16.5t-7 29.5
q0 20 18 51.5t48 66.5t68.5 70.5t80 64t83 46t76.5 17.5q11 0 18 -8t12 -19q2 2 6 5q3 2 6.5 3.5t7.5 1.5q5 0 8 -2.5t9 -9.5q5 -1 11.5 -6.5t6.5 -13.5q0 -4 -2.5 -10t-11.5 -14q-35 -43 -60.5 -73t-42.5 -51.5t-25.5 -36.5t-9.5 -28q57 27 139.5 82.5t181.5 128.5
q2 -2 4 -5q2 -2 3.5 -5t1.5 -7zM326 286q0 1 -3 1q-20 0 -46.5 -12.5t-54.5 -32.5t-54.5 -43.5t-47 -46t-33.5 -40.5t-13 -26q0 -2 2 -2q5 0 18 8.5t31.5 22t40 31.5t43.5 36q51 43 113 98q4 4 4 6z" />
    <glyph glyph-name="b" unicode="b" horiz-adv-x="353" 
d="M549 280q0 -10 -9 -18q-15 -14 -44 -39.5t-64 -51t-72.5 -44t-69.5 -18.5q-5 0 -9 0.5t-9 1.5l2 3q-27 -27 -56.5 -51.5t-58 -43t-54.5 -29.5t-46 -11q-43 0 -68.5 13.5t-25.5 50.5q0 28 14.5 62.5t37 68.5t48 66.5t48 57.5t37 39.5l14.5 14.5q66 77 107.5 131.5t66.5 91
t38.5 58t24 32t23 13.5t36.5 3q6 -1 15 -1.5t17 -3t14 -8t6 -15.5q0 -18 -13.5 -41.5t-35.5 -50t-50.5 -54.5t-57.5 -55q-70 -62 -157 -131q-2 -2 -3 -4q-3 -3 -3 -7t5 -4q37 24 73.5 38t68.5 15q12 0 22 -7q20 -17 27 -31t7 -32q0 -20 -21.5 -54.5t-54.5 -72.5
q27 6 64.5 28t72.5 46q40 28 84 61q2 -2 4 -5q2 -2 3.5 -5t1.5 -7zM323 296q0 3 -3 3q-28 0 -59 -16t-61 -41t-57 -55.5t-47.5 -59t-32.5 -51.5t-12 -34q0 -7 7 -7q22 0 50.5 17t58 43t57.5 57t50 60t35.5 52t13.5 32z" />
    <glyph glyph-name="c" unicode="c" horiz-adv-x="381" 
d="M572 285q0 -10 -9 -18q-21 -21 -55 -50.5t-75.5 -61t-88 -62.5t-93 -56t-90 -40t-78.5 -15q-13 0 -26.5 3t-25 12t-18.5 25t-7 42q0 40 17.5 76.5t47 68.5t66.5 57.5t76 44t76.5 28.5t67.5 10q24 0 36.5 -6t18.5 -14q7 -9 8 -20q0 -16 -11.5 -34.5t-31 -34.5t-47 -26.5
t-60.5 -10.5q-7 0 -16.5 2t-9.5 13q0 6 9 9q17 9 32 20q13 8 25.5 18.5t18.5 18.5l1 2q0 1 0.5 2.5t0.5 3.5q0 6 -5 6q-47 -7 -90 -35t-76 -62.5t-53 -68.5t-20 -53q0 -21 16 -21q39 0 78 11t85.5 35.5t103.5 62.5t133 92q14 10 29 21t31 22q2 -2 4 -5q2 -2 3.5 -5t1.5 -7z
" />
    <glyph glyph-name="d" unicode="d" horiz-adv-x="447" 
d="M741 653q0 -18 -14.5 -42t-38.5 -51t-54.5 -56.5t-63 -59.5t-64 -59t-57.5 -54q-33 -32 -67.5 -70t-63.5 -74t-47.5 -67.5t-18.5 -50.5q0 -3 4 -3q6 0 39 17.5t85 49t118 75t139 94.5q2 -2 4 -5q2 -2 3.5 -5t1.5 -7q0 -10 -9 -18q-77 -70 -147 -128q-30 -25 -61.5 -49.5
t-61.5 -45.5t-56 -36t-45 -21q-6 -2 -12 -3q-5 -1 -12 -1.5t-15 -0.5q-17 2 -35 13.5t-18 34.5q0 7 2.5 19t5 23.5t5 21t2.5 12.5t-1 3q-2 0 -6 -4q-33 -35 -65 -62q-28 -23 -58.5 -42.5t-56.5 -19.5q-12 3 -22 10q-8 6 -15 16.5t-7 29.5q0 20 18 51.5t48 66.5t68.5 70.5
t80 63.5t83 46t76.5 18q11 0 18 -8.5t12 -18.5q0 3 18.5 29t49.5 64t70.5 82t80 81.5t78 62t65.5 24.5q17 0 17 -16zM329 286q0 1 -3 1q-21 0 -47 -12.5t-54 -32.5t-54.5 -43.5t-47.5 -46t-33.5 -40.5t-12.5 -26q0 -2 2 -2q5 0 18 8.5t31.5 22t40 31.5t43.5 36q51 43 113 98
q4 4 4 6z" />
    <glyph glyph-name="e" unicode="e" horiz-adv-x="364" 
d="M586 285q0 -10 -9 -18q-21 -21 -55 -50.5t-75.5 -61t-88 -62.5t-93 -56t-90 -40t-78.5 -15q-77 0 -77 94q0 31 14.5 63.5t38.5 63.5t55 58t64 47.5t65.5 32.5t59.5 12q13 0 24.5 -5.5t20.5 -14t14.5 -18.5t5.5 -18q0 -18 -13.5 -37.5t-34.5 -38t-46.5 -35t-49.5 -29
t-43.5 -20t-28.5 -7.5q-5 0 -11 3t-11 12q-1 0 -3 1q-4 2 -7 2q-4 0 -10.5 -7.5t-13 -18.5t-11.5 -23.5t-5 -22.5q0 -14 12 -18q39 0 79.5 11t89 35.5t107.5 62.5t135 92q14 10 29 21t31 22q2 -2 4 -5q2 -2 3.5 -5t1.5 -7zM316 297q0 5 -6 5q-15 0 -40 -17t-49.5 -38
t-42.5 -40t-18 -24q0 -2 3 -2q7 0 21.5 7t31.5 18t34.5 24t32 26t24 24t9.5 17z" />
    <glyph glyph-name="f" unicode="f" horiz-adv-x="238" 
d="M557 640q0 -7 -4.5 -16t-16.5 -23l-488 -533q1 -1 3 -1t6 0.5t9 2.5q54 30 115 66q52 31 116.5 73t132.5 93q2 -2 4 -5q2 -2 3.5 -5t1.5 -7q0 -10 -9 -18q-69 -69 -138 -126q-29 -24 -61.5 -48.5t-64.5 -45t-63.5 -35.5t-58.5 -21q0 -3 3 -8t6.5 -13t6.5 -20.5t3 -31.5
q0 -27 -13.5 -60t-35.5 -67t-50 -66t-57 -57t-56 -40t-48 -15t-38 19.5t-25 70.5q0 18 5.5 46t24 67.5t54.5 92.5t97 122l545 617q2 6 6 10q3 4 9 7t15 3q6 -1 16.5 -1.5t20 -3t17 -8t7.5 -15.5zM23 -36q0 21 -8 27.5t-13 6.5t-8.5 -1.5t-6.5 -3.5q-4 -3 -6 -5
q-40 -39 -72.5 -86t-56 -89t-36.5 -72t-13 -34q0 -6 6 -6q13 0 34.5 14.5t45 38t47.5 52.5t43.5 58.5t31.5 55.5t12 44z" />
    <glyph glyph-name="g" unicode="g" horiz-adv-x="320" 
d="M390 269q0 -7 -7 -14q-3 -3 -16.5 -20.5t-33.5 -44t-44.5 -59t-49 -66.5t-48 -66t-40.5 -57q-49 -80 -104 -145q-24 -28 -51 -56t-57 -51t-61.5 -40t-64.5 -24q-7 0 -21 2t-27.5 9.5t-23.5 22t-10 38.5q0 21 15.5 45t40.5 48t55.5 46t60.5 39t56 27t42 10q8 0 8 -3
t-10 -10q-41 -28 -81.5 -60.5t-72.5 -64t-52.5 -58.5t-20.5 -42q0 -4 5 -4q10 0 53.5 30t109.5 107q27 31 52 59q21 24 42.5 49.5t33.5 41.5q11 15 28.5 35.5t34.5 39.5q19 22 41 44q5 7 9 12q3 5 5 8.5t1 3.5q-3 0 -11 -8q-30 -30 -59 -53q-26 -20 -54.5 -36.5t-51.5 -16.5
q-27 0 -41.5 19t-14.5 42q0 9 11 32t32 52.5t51.5 62t68 61t82 49.5t94.5 27q11 -3 22 -7q9 -4 17.5 -9t13.5 -13h1q1 0 2 0.5t3 0.5q8 0 15 -6q6 -5 11 -10q4 -5 7.5 -9.5t3.5 -9.5zM325 274q0 2 -4 2q-28 -6 -58.5 -21t-59.5 -35t-55 -42t-45 -41t-30.5 -33.5t-11.5 -19.5
q0 -3 4 -3q14 1 39 15t54 34.5t58.5 44t53.5 44.5t39.5 36.5t15.5 18.5z" />
    <glyph glyph-name="h" unicode="h" horiz-adv-x="410" 
d="M601 285q0 -10 -9 -18q-77 -70 -147 -128q-30 -25 -61.5 -49.5t-61.5 -45.5t-56 -36t-45 -21q-6 -2 -12 -3q-5 -1 -12 -1.5t-15 -0.5q-17 0 -25.5 15t-8.5 38q0 13 7 28.5t15 31t15 31t7 29.5q0 2 -2 2t-5.5 -1.5t-10.5 -7.5q-40 -31 -73 -59q-29 -24 -57 -49.5
t-39 -41.5q-1 -3 -4 -5q-6 -4 -12 -4q-5 0 -14.5 3.5t-13.5 17.5q0 15 24 57t63.5 99t90 122t102.5 126.5t101.5 113t87.5 80.5q7 6 20 10q11 4 30 7t48 3q3 -1 6 -3q6 -4 6 -8q0 -6 -7 -13q-84 -78 -157 -150q-31 -31 -63 -63.5t-60 -63.5t-50.5 -59t-35.5 -49
q-4 -4 -10.5 -14.5t-6.5 -13.5q0 -1 1 -1q4 0 18 11q30 22 56 41q23 17 44.5 32.5t32.5 23.5q3 2 8 4t12 3.5t18 1.5q7 -1 12 -3t9 -5t4 -8q0 -4 -2 -7q-21 -30 -39 -56q-16 -23 -30.5 -45t-19.5 -33q-9 -13 -15 -25q-6 -11 -10.5 -21.5t-4.5 -15.5t4 -5t16 6q44 24 97 57
q45 28 104 66.5t127 89.5q2 -2 4 -5q2 -2 3.5 -5t1.5 -7z" />
    <glyph glyph-name="i" unicode="i" 
d="M378 464q0 -5 -1 -9.5t-6 -9.5q-13 -17 -29 -30q-14 -11 -31 -20t-37 -9q-5 1 -9 4q-9 5 -9 18q0 16 11 32t26.5 28t31.5 19.5t26 7.5q2 -1 5 -1q2 -1 4 -1t4 -2q8 -10 11 -15.5t3 -11.5zM514 285q0 -10 -9 -18q-77 -70 -147 -128q-30 -25 -61.5 -49.5t-61.5 -45.5
t-56 -36t-45 -21q-6 -2 -12 -3q-5 -1 -12 -1.5t-15 -0.5q-13 0 -26.5 3t-25 12t-18.5 25t-7 42q0 17 10 41.5t25.5 51.5t34.5 53.5t36.5 48t31 36t18.5 16.5t11 5q5 2 11 4t12 2q7 0 21.5 -2t23.5 -6q1 -1 3 -2q1 -2 2 -3.5t1 -3.5q0 -4 -7 -11q-33 -34 -61 -67
q-24 -29 -47 -62.5t-33 -63.5l-4 -8q-4 -10 -4 -17q0 -11 12 -11q7 0 24 6q55 30 116 66q52 31 117 72.5t133 92.5q2 -2 4 -5q2 -2 3.5 -5t1.5 -7z" />
    <glyph glyph-name="j" unicode="j" horiz-adv-x="160" 
d="M360 486q0 -5 -1 -9.5t-6 -9.5q-13 -17 -29 -30q-14 -11 -31 -20t-37 -9q-5 1 -9 4q-9 5 -9 18q0 16 11 32t26.5 28t31.5 19.5t26 7.5q2 -1 5 -1q2 -1 4 -1t4 -2q8 -10 11 -15.5t3 -11.5zM255 330q0 -5 -6 -12q-117 -157 -204 -284t-157.5 -217t-130 -138.5t-120.5 -48.5
q-3 0 -12.5 3t-19.5 9.5t-18 17.5t-8 26q0 16 15 42t40 56t57 61t65.5 56t65.5 41t58 16q4 0 4 -2q0 -1 1 -1q0 -1 2 -1q1 0 4 3l280 369q2 4 6 8q7 7 22 7l43 -2l6 -2q7 -2 7 -7zM-124 -59q0 2 -2 2q-7 0 -26.5 -15.5t-45.5 -39.5t-54 -53.5t-51.5 -57t-38.5 -50.5t-15 -34
q0 -3 3 -3q10 0 31 18t46.5 45.5t52.5 59.5t49 60t36.5 47t14.5 21z" />
    <glyph glyph-name="k" unicode="k" horiz-adv-x="393" 
d="M527 596q0 -2 -14.5 -18.5t-39 -42.5t-58 -60.5t-70.5 -74.5t-76 -82.5t-76 -84.5q-1 0 -2 -2q-2 -4 -2 -8q0 -3 2 -3t4 1.5t3 2.5t7 6t13 10l18 14q28 18 58 33q26 12 56 22.5t59 10.5q6 -2 12 -6q5 -3 11.5 -8.5t13.5 -13.5q2 -2 4 -6q2 -3 3.5 -6.5t1.5 -8.5
q0 -18 -25.5 -43t-63.5 -49t-81.5 -42.5t-80.5 -24.5l-1 -2q0 -3 13.5 -19.5t33 -36t40 -38t34.5 -26.5q6 -3 11 -5q10 -5 16 -5q1 0 2 -1q2 -2 2 -4q0 -3 -6 -8q-7 -6 -16 -10q-8 -4 -17.5 -6.5t-21.5 -2.5q-22 0 -33.5 3.5t-26.5 18t-40.5 45t-74.5 84.5l-3 3q-2 1 -3.5 2
t-3.5 1q-4 0 -9 -5q-18 -14 -34 -31q-14 -14 -27 -33t-21 -40q0 -3 -2 -5q-4 -4 -10 -4h-1q-2 0 -9 1t-15.5 5.5t-17 13t-13.5 24.5q0 3 1 7t2.5 9t5.5 12q30 45 57.5 82.5t56 73t61.5 71.5t73.5 77.5t92 91t117.5 113.5q27 22 39 31t30 9h11q11 0 17 -2t9 -4q4 -3 4 -6z
M361 262q0 1 -2 3l-1 1q-17 -2 -48 -18.5t-62 -36.5q-36 -24 -76 -53q-4 -4 -4 -7q0 -2 3 -2q8 0 25.5 7.5t38.5 18.5t43.5 24.5t40.5 26t30 22.5t12 14z" />
    <glyph glyph-name="l" unicode="l" horiz-adv-x="329" 
d="M601 570q0 -8 -4 -16q-4 -9 -28 -40.5t-73 -80.5t-126 -111.5t-186 -132.5q-39 -25 -53 -48.5t-14 -43.5q0 -19 5 -25t12 -6q14 0 38 10t54 26.5t64 38t67 43.5q77 52 166 118q2 -2 4 -5q2 -2 3.5 -5t1.5 -7q0 -10 -9 -18q-77 -70 -147 -128q-30 -25 -61.5 -49.5
t-61.5 -45.5t-56 -36t-45 -21q-6 -2 -12 -3q-5 -1 -12 -1.5t-15 -0.5q-14 0 -27.5 3t-25 14.5t-18.5 34t-7 62.5q0 16 13 50.5t40 80t68 98t96 104t125 98t156 80.5q5 1 9 2t9 2t10 1q9 0 16.5 -6.5t12.5 -14.5q6 -10 11 -21zM502 533q0 1 -1 2q-2 0 -10 -4q-4 -2 -7 -4
q-26 -17 -63 -48.5t-75 -67t-71 -70.5t-49 -58q-4 -5 -4 -8q0 -2 2 -2q9 0 33 18t55 45.5t64.5 60.5t61.5 61.5t46 49.5t18 25z" />
    <glyph glyph-name="m" unicode="m" horiz-adv-x="643" 
d="M816 266q0 -10 -9 -18q-80 -78 -152 -140q-31 -26 -63 -51.5t-61 -45t-54 -31.5t-41 -12q-13 0 -26.5 3t-25 12t-18.5 25t-7 42q0 11 5 28t19 37l43 59q1 2 3 5q1 2 2 3.5t1 2.5t-6 -4q-40 -33 -77 -62.5t-66.5 -52t-50 -37t-28.5 -18.5q-3 -2 -6 -3t-6 -1.5t-8 -0.5
q-12 0 -22.5 6t-10.5 24q0 10 5 18q16 23 33 45q14 18 29.5 37.5t26.5 30.5l17 17q2 2 2 4t-2 2t-6 -4l-107 -84q-38 -30 -60 -46.5t-33 -24.5t-15 -9.5t-7 -1.5t-9.5 2t-13 5.5t-11.5 9t-5 11.5q0 3 3 8q65 71 102.5 122.5t59 85.5t32.5 50.5t23 16.5q11 0 23.5 -11
t12.5 -24q0 -12 -8 -25q-9 -18 -19 -33q-8 -14 -17.5 -26.5t-16.5 -19.5q-3 -3 -3 -6q0 -2 2 -2l3 1l134 93q17 12 28 18.5t17.5 10.5t11 5t7.5 1q2 0 7 -1.5t10 -4t9 -7t4 -10.5q0 -7 -5 -14l-65 -89q-4 -4 -7 -8q-6 -8 -6 -11l1 -1l5 3q35 24 63 43q24 16 44.5 30.5
t22.5 16.5q24 18 43 32q17 12 31.5 23t18.5 15q5 2 9 5q4 2 8.5 3.5t9.5 1.5q6 0 9 -2l22 -17q2 -2 5 -4q2 -2 3.5 -4.5t1.5 -6.5q0 -6 -4 -11q-46 -51 -78 -85t-53 -57t-32 -38t-15 -28l-4 -8q-4 -10 -4 -17q0 -2 1.5 -5.5t9.5 -3.5q9 0 36 12q31 13 63.5 34.5t70 49
t82 61.5t100.5 73q2 -2 4 -5q2 -2 3.5 -5t1.5 -7z" />
    <glyph glyph-name="n" unicode="n" horiz-adv-x="460" 
d="M650 266q0 -10 -9 -18q-80 -78 -152 -140q-31 -26 -63 -51.5t-61 -45t-54 -31.5t-41 -12q-13 0 -26.5 3t-25 12t-18.5 25t-7 42q0 11 5 28t19 37l43 59q1 2 3 5q1 2 2 3.5t1 2.5t-6 -4q-40 -33 -77 -62.5t-66.5 -52t-50 -37t-28.5 -18.5q-3 -2 -6 -3t-6 -1.5t-8 -0.5
q-12 0 -22.5 6t-10.5 24q0 10 5 18q21 20 40 40q17 17 34.5 36t29.5 35q21 22 39.5 51t34 54.5t28.5 43t23 17.5q2 0 9 -2t15 -5t14.5 -8t6.5 -11q0 -7 -5 -14l-75 -104q-4 -4 -7 -8q-6 -8 -6 -11l1 -1l5 3q47 32 98 69.5t93 72.5q5 2 9 5q4 2 8.5 3.5t9.5 1.5q6 0 9 -2
l28 -8q2 -2 5 -4q2 -2 3.5 -4.5t1.5 -6.5q0 -6 -4 -11q-48 -54 -79 -87t-49 -56.5t-25 -41t-7 -39.5q0 -2 1.5 -5.5t9.5 -3.5q9 0 36 12q31 13 63.5 34.5t70 49t82 61.5t100.5 73q2 -2 4 -5q2 -2 3.5 -5t1.5 -7z" />
    <glyph glyph-name="o" unicode="o" horiz-adv-x="328" 
d="M521 280q0 -10 -9 -18q-15 -14 -44 -39.5t-64 -51t-72.5 -44t-69.5 -18.5q-5 0 -9 0.5t-9 1.5q-23 -27 -48 -51t-50.5 -41.5t-49.5 -28t-46 -10.5q-11 1 -24 4t-24.5 11t-19.5 22.5t-8 38.5q0 30 18.5 70.5t53 82t84 79t111.5 60.5q13 0 14.5 -4.5t9.5 -5.5q7 1 10.5 5
t14.5 5q5 0 11.5 -2.5t14.5 -10.5q4 -4 8 -9q3 -5 5.5 -10.5t2.5 -12.5q0 -28 -15.5 -66t-41.5 -77q12 0 28.5 6t35 15.5t39 21.5t39.5 25q45 30 95 69q2 -2 4 -5q2 -2 3.5 -5t1.5 -7zM275 287q0 2 -2 2q-5 0 -17 -9.5t-24.5 -21.5t-22 -24.5t-9.5 -18.5q0 -3 6 -12t9 -9
q10 0 20.5 13.5t19.5 30.5t14.5 31.5t5.5 17.5zM185 144q-8 6 -14.5 16.5t-12 21t-9 18t-4.5 7.5q-26 -24 -44 -51t-29 -49.5t-15.5 -37.5t-4.5 -17q0 -8 5 -8q18 0 39.5 13t41 30.5t33 34t14.5 22.5z" />
    <glyph glyph-name="p" unicode="p" horiz-adv-x="436" 
d="M455 208q0 -18 -14.5 -42.5t-38.5 -50t-55 -50t-65 -43.5t-68.5 -31t-64.5 -12q-13 0 -30.5 6t-27.5 20l-11 16h-1q-1 0 -1 0.5t-1 0.5q-7 0 -29.5 -19.5t-52.5 -51t-64 -70t-65.5 -76.5t-56.5 -71.5t-36 -54.5q-2 -5 -4 -9q-5 -9 -12 -9q-6 0 -11 4l-45 35l-2 2
q-2 2 -2 7q0 4 26 38.5t68.5 87.5t98 119.5t115 135t118 133.5t107.5 116t84 82t48 31q6 0 12.5 -5t12 -11.5t9 -14t3.5 -12.5q0 -6 -3 -9q-59 -51 -106 -98.5t-82 -84.5q-40 -43 -72 -81q-8 -8 -8 -12q0 -2 2 -2t5 3q-1 -1 11.5 10t33.5 28t48 37t56.5 37.5t59 29
t55.5 11.5q12 0 22 -7q20 -17 27 -31t7 -32zM383 215q0 3 -3 3q-12 0 -38 -13t-57.5 -33t-64.5 -43.5t-60.5 -44t-45 -34.5t-17.5 -16t4 -3t7 -1q17 0 44.5 11t58 29t61.5 39t55.5 42t40 38t15.5 26z" />
    <glyph glyph-name="q" unicode="q" horiz-adv-x="314" 
d="M382 265q0 -3 -1.5 -6t-8 -11t-21.5 -24t-41.5 -44.5t-67.5 -72.5t-100 -108q5 -7 9 -18q4 -9 7 -22t3 -30q0 -36 -15.5 -75t-40.5 -77t-55.5 -72.5t-60.5 -60.5t-56 -41.5t-42 -15.5q-24 0 -43 26.5t-19 67.5q0 39 21.5 82t51 82.5t61.5 72.5t53 53q22 20 51.5 47
t56.5 51q32 28 65 57q6 6 10 11q4 4 6.5 7.5t1.5 3.5q-2 0 -13 -10q-7 -6 -28 -22.5t-46 -33.5t-50 -30.5t-41 -13.5q-6 0 -13.5 2t-14 8t-11 16.5t-4.5 28.5q0 22 15.5 49t41.5 53.5t60.5 51.5t73.5 44.5t79 31t78 11.5q3 0 10 -4t14 -10.5t13 -14t7 -14.5q0 -2 -3 -4.5
t-3 -5.5q0 -4 5 -6t5 -10zM317 272q0 2 -4 2q-16 0 -39 -9.5t-48.5 -24t-50.5 -32t-45 -34t-32.5 -29t-12.5 -17.5q0 -1 2 -1q8 0 28 9.5t45.5 24t53.5 32t50.5 34t37.5 28.5t15 17zM139 -36q0 2 -0.5 4t-0.5 4v3q-3 10 -6 10q-1 0 -3 -2q-1 -1 -1 -2q-15 -16 -38 -42
t-48.5 -57.5t-50.5 -65t-45.5 -62.5t-33 -51t-12.5 -30q0 -3 3 -3q6 0 26.5 15.5t46.5 40.5t55 57t53 64.5t39.5 63t15.5 53.5z" />
    <glyph glyph-name="r" unicode="r" horiz-adv-x="415" 
d="M596 281q0 -6 -23 -31t-59.5 -58.5t-82 -71t-90 -69t-84 -52t-63.5 -20.5q-11 0 -23.5 2.5t-23 10t-17 21.5t-6.5 36q0 17 4.5 33.5t18.5 36t40 43.5t70 56q-7 0 -19 2t-25 6t-24 9.5t-15 11.5q-15 -14 -38.5 -34t-51.5 -43q-5 -4 -19 -7.5t-26 -3.5q-8 0 -13 1.5t-5 6.5
q0 3 3.5 8.5t12.5 11.5q26 19 54.5 39t60.5 43q-27 18 -35.5 34t-8.5 19q0 22 14.5 27.5t40.5 5.5q9 0 26.5 -8.5t38 -18.5t40 -18.5t32.5 -8.5q18 0 37 8.5t41 8.5q16 0 23 -7q17 -22 21 -28t4 -10q0 -9 -12 -17q-3 -3 -19 -13.5t-37.5 -26t-45.5 -34t-44.5 -37.5t-34 -37
t-13.5 -32q0 -3 5 -3q14 0 47 16.5t81 45.5t108 69t128 88q1 0 3 -1q4 -2 4 -10z" />
    <glyph glyph-name="s" unicode="s" horiz-adv-x="348" 
d="M523 269q0 -10 -9 -18q-3 0 -25.5 -20t-57.5 -49.5t-78.5 -63.5t-86.5 -63.5t-82.5 -49t-67.5 -19.5q-47 0 -70.5 29t-23.5 84l0.5 4t3 8.5t8 8t15.5 3.5q3 -14 11 -25q7 -10 20 -17.5t35 -7.5q31 0 54 25t38 58.5t22 66.5t7 48q0 2 -2 4.5t-8 2.5q-4 0 -10.5 -2.5
t-14.5 -8.5q-18 -14 -40.5 -31t-42.5 -33q-24 -18 -48 -37q-14 -8 -32 -8q-8 0 -13 4t-5 9q0 8 2.5 11t14.5 11q26 18 48.5 36t45 38.5t48.5 43t60 48.5q5 6 9 10t8 7t9 3q3 0 14.5 -1.5t23.5 -5t21.5 -8t9.5 -10.5q0 -51 -7 -88.5t-15.5 -63t-15.5 -40.5t-7 -19q0 -2 2 -2
t8 3q28 14 50 27t43 27t44.5 30.5t53.5 39.5q5 5 11.5 9t12.5 9q2 -2 4 -5q2 -2 3.5 -5t1.5 -7z" />
    <glyph glyph-name="t" unicode="t" horiz-adv-x="313" 
d="M676 417q0 -8 -12 -9l-28 -4t-49.5 -6t-61 -6.5t-63.5 -7t-57 -5.5t-42 -3q-10 0 -34 -19.5t-55.5 -49.5t-65 -66.5t-61.5 -71.5t-46 -65t-18 -46q0 -5 5 -8.5t12 -3.5t24 6q55 33 117 73q53 34 118.5 77.5t133.5 94.5q2 -2 4 -5q2 -2 3.5 -5t1.5 -7q0 -10 -9 -18
q-79 -74 -151 -136q-31 -26 -63 -52t-62.5 -48t-57 -38t-45.5 -22q-6 -2 -12 -3q-5 -1 -12 -1.5t-15 -0.5q-26 0 -47.5 23t-21.5 75q0 17 13 46.5t39 67t64.5 81.5t90.5 90l4 4q5 5 5 8t-4.5 5t-16.5 2q-5 0 -22 -1t-41 -1q-21 0 -44 0.5t-43.5 3.5t-34.5 9t-15 17
q-9 1 -16 4q-6 2 -10.5 5.5t-4.5 8.5t7.5 6t27.5 3q57 8 116 16q50 6 108 12.5t108 10.5l69 92q4 8 17 10t29 2q11 0 21.5 -3t10.5 -12q0 -5 -8 -18l-25 -35q-2 -5 -3 -9l-2 -8t-1 -7t2.5 -5t11.5 -2q21 0 46.5 0.5t52 -1.5t51.5 -8t45 -18q6 -2 11 -5q4 -2 7.5 -5.5
t3.5 -7.5z" />
    <glyph glyph-name="u" unicode="u" horiz-adv-x="404" 
d="M601 285q0 -10 -9 -18q-77 -70 -147 -128q-30 -25 -61.5 -49.5t-61.5 -45.5t-56 -36t-45 -21q-6 -2 -12 -3q-5 -1 -12 -1.5t-15 -0.5q-17 0 -25.5 15t-8.5 38q0 14 8 28.5t13 31.5q2 4 3.5 6t1.5 4q0 3 -3 3q-9 0 -24 -16q-5 -4 -21 -19.5t-37 -33t-43 -31t-38 -13.5
q-22 0 -31 10.5t-9 26.5q0 12 4 26t11 28q18 38 47 77.5t59.5 72t57.5 53t41 20.5q11 0 20 -7.5t9 -20.5q0 -8 -12.5 -21t-31 -30.5t-39 -40.5t-36.5 -50q-2 -3 -4 -7q-3 -6 -3 -12t6 -6q4 0 11.5 2.5t19.5 10.5q24 16 58 41t67 51t60.5 49.5t39.5 37.5q2 5 6 9q3 3 8.5 6
t15.5 3q16 0 32 -3.5t16 -13.5q0 -5 -14 -19.5t-35 -35t-45 -44.5t-45 -47t-35 -42.5t-14 -30.5q0 -5 5 -5q4 0 16 6q44 24 97 57q45 28 104 66.5t127 89.5q2 -2 4 -5q2 -2 3.5 -5t1.5 -7z" />
    <glyph glyph-name="v" unicode="v" horiz-adv-x="290" 
d="M383 321q0 -28 -19 -63.5t-50 -73.5t-69.5 -74t-77.5 -64t-75 -45.5t-61 -17.5q-8 0 -17 2t-17 7t-13 15t-5 26t8 36.5t21 43t29.5 45.5t34.5 44q41 50 94 104q6 7 11 12t10 8.5t10 3.5q3 0 10 -1t14.5 -3.5t13 -7t5.5 -11.5q0 -4 -2 -8.5t-8 -10.5q-30 -32 -58 -65
q-24 -29 -50 -63.5t-43 -66.5q-3 -6 -5 -11t-3 -10t-1 -9q0 -7 5 -7q9 0 32 15.5t52.5 41.5t62 59.5t60 69t46 70.5t21.5 64q0 3 1 10t4 7t7 -8q8 -14 15 -29t7 -35z" />
    <glyph glyph-name="w" unicode="w" horiz-adv-x="458" 
d="M534 299q0 -16 -15.5 -46t-41.5 -65.5t-59 -72t-68.5 -66.5t-70 -49t-62.5 -19q-9 0 -19.5 2t-19 8.5t-14.5 18t-6 30.5q0 14 2.5 26.5t6.5 21.5q4 11 9 20v2q0 1 0.5 1.5t0.5 1.5q0 3 -3 3q-2 0 -9 -4l-96 -74q-2 -3 -6 -5q-7 -5 -18 -5q-8 0 -16.5 4t-19.5 15
q-9 10 -9 24q0 16 10.5 36.5t27 42.5t36 44t38.5 40q-7 0 -18 1.5t-11 7.5t15 16q25 14 47 26q19 11 37.5 22.5t27.5 20.5q8 8 14 9.5t13 1.5q17 0 33.5 -1.5t16.5 -10.5q0 -4 -4 -9q-6 -8 -18.5 -20t-24.5 -24q-15 -14 -31 -29q-2 -2 -14 -15.5t-26 -30t-25.5 -32.5
t-11.5 -22q0 -2 2 -2q9 0 35 17.5t55.5 41t56 46.5t37.5 35q9 10 15 13.5t11 3.5q3 0 5.5 -1.5t4.5 -3.5t3 -4q6 -1 11 -4q4 -2 7.5 -5t3.5 -8q0 -6 -4 -11q-6 -8 -20 -24.5t-30.5 -36t-32 -39t-24.5 -32.5q-5 -8 -11.5 -20.5t-12 -25t-9 -23.5t-3.5 -17q0 -7 5 -7
q8 0 33 19q27 21 62.5 60t68.5 81t57.5 79.5t29.5 54.5q7 22 11 29t8 7t9 -6t9 -16t6.5 -22t2.5 -25z" />
    <glyph glyph-name="x" unicode="x" horiz-adv-x="422" 
d="M635 285q0 -10 -9 -18q-21 -21 -56.5 -50.5t-77.5 -61t-87.5 -62.5t-87.5 -55.5t-76.5 -39.5t-54.5 -15q-13 0 -25 4t-21.5 14t-15.5 27t-6 43q-7 -3 -25.5 -15t-41 -25t-43.5 -23.5t-33 -10.5q-11 0 -20.5 9.5t-9.5 21.5q0 13 11.5 20.5t34 16.5t56 24.5t77.5 45.5
q1 7 1.5 13.5t3.5 18t10.5 30t22.5 49.5q0 3 -4 3q-5 0 -15.5 1.5t-10.5 6.5t11 11q11 7 20.5 15t16.5 16q8 9 14 17q7 7 18 12q9 5 22 9t32 5q8 1 12 -2.5t4 -8.5q0 -6 -4 -13.5t-9 -14.5q-6 -8 -13 -16q-1 -1 -6 -10.5t-11 -22t-10.5 -24t-4.5 -17.5q0 -2 2 -2q9 0 38 15
t62 34.5t60.5 38t33.5 24.5q5 6 11 6q5 0 12 -9t7 -17q0 -6 -6 -11t-35 -25.5t-66.5 -47t-77 -54.5t-65.5 -47q-2 -13 -4 -24t-1 -19t5.5 -12.5t15.5 -4.5q15 0 43 11t71 35.5t101.5 62.5t134.5 92q14 10 29 21t31 22q2 -2 4 -5q2 -2 3.5 -5t1.5 -7z" />
    <glyph glyph-name="y" unicode="y" horiz-adv-x="329" 
d="M426 302q0 -7 -8 -16q-87 -96 -155 -182.5t-123.5 -160t-101.5 -132t-87.5 -99.5t-82 -63t-85.5 -22q-12 0 -23.5 3.5t-21 10t-15.5 16t-6 22.5q0 30 15 60t39.5 57.5t55.5 51.5t63.5 42.5t63 30.5t54.5 15q8 0 16 -2q3 -1 5 -1q4 0 15.5 11.5t27 29t32 37.5t30.5 37.5
t23.5 30t9.5 13.5v1q0 2 -2 2l-19 -15q-22 -20 -43 -35q-18 -14 -38 -24.5t-36 -10.5q-12 0 -19.5 8.5t-7.5 29.5q0 17 11.5 43.5t30 56.5t41.5 60.5t45.5 55t43 40t33.5 15.5q3 0 7 -2q8 -2 14 -5q5 -2 9.5 -6t4.5 -9t-4 -9l-26 -26t-44.5 -47.5t-42.5 -53t-19 -42.5
q0 -6 6 -6q7 0 25 11q41 28 81 59q34 26 72.5 59.5t68.5 66.5q2 3 5 7q2 2 6 4.5t9 2.5q12 -2 23 -5q9 -2 16.5 -6t7.5 -10zM12 -90q0 2 -3 2q-17 0 -41.5 -14t-52 -36.5t-54 -50t-48 -54t-35 -49t-13.5 -34.5q0 -3 4 -3q15 4 32.5 16.5t37 29.5t39.5 37.5t39 40.5
q43 48 89 105q6 7 6 10z" />
    <glyph glyph-name="z" unicode="z" horiz-adv-x="367" 
d="M410 285q0 -9 -10 -15q-58 -31 -111 -63q-23 -14 -46 -29t-45 -30.5t-40.5 -31t-30.5 -29.5q-1 -1 0 -1h4q9 0 20.5 3.5t25.5 8t32 8t41 3.5q13 0 23.5 -2.5t16.5 -8.5q14 -17 25 -32q10 -13 18 -26.5t8 -21.5t-8 -8q-6 0 -9.5 3t-8 6t-12.5 6t-23 3q-13 0 -25 -4
q-15 -5 -38.5 -10.5t-49.5 -11t-52 -9t-46 -3.5q-4 0 -12.5 5.5t-17 14t-15 19.5t-6.5 22q0 27 30 53.5t73 52.5t90 50.5t81 47.5q2 1 2.5 2t1.5 2l1 1l-4 -1q-42 -11 -64 -14.5t-34 -3.5q-13 0 -22 9q-8 11 -14 22q-5 9 -9.5 18.5t-4.5 15.5q0 13 16 17q9 2 26 5t38.5 6
t44.5 5.5t44 2.5t36.5 -2.5t22.5 -10.5q12 -12 19.5 -20t11.5 -12.5t5 -7t1 -4.5z" />
    <glyph glyph-name="braceleft" unicode="{" horiz-adv-x="467" 
d="M637 703q0 -6 -5.5 -10.5t-11.5 -7.5q-8 -4 -17 -7q-11 -3 -26.5 -17.5t-32.5 -36t-35.5 -48.5t-36.5 -54q-41 -64 -86 -145q-9 -16 -26.5 -28t-34.5 -21q-20 -11 -43 -19q8 -17 11 -30t3 -20q0 -13 -9 -37.5t-23 -54t-30 -61.5t-30 -61.5t-23 -53.5t-9 -37q0 -15 4 -25
t10 -20q8 -13 8 -19q0 -13 -20 -13q-5 0 -17.5 7t-25 21.5t-22 35.5t-9.5 48q0 42 20 89.5t44 91t44 78t20 50.5q0 7 -3 10t-6.5 5.5t-6.5 6t-3 12.5v1q2 8 14 13.5t34 13.5h-1q7 3 17.5 12t28 32.5t42 64t58.5 106.5q25 49 51.5 78.5t51 45t45 20.5t34.5 5q15 0 26 -3
q10 -2 18.5 -6t8.5 -12z" />
    <glyph glyph-name="bar" unicode="|" horiz-adv-x="410" 
d="M633 659q0 -6 -3 -9q-218 -234 -372.5 -403t-256 -285t-156 -184t-72.5 -99q-2 -5 -4 -9q-5 -9 -12 -9q-6 0 -11 4l-45 35l-2 2q-2 2 -2 7q0 3 23.5 33t63.5 79t94.5 112.5t116 135t127 146t129 144.5t121.5 132.5t104.5 109.5t78 74t41.5 27q6 0 12.5 -5t12 -11.5t9 -14
t3.5 -12.5z" />
    <glyph glyph-name="braceright" unicode="}" horiz-adv-x="395" 
d="M566 613q0 -42 -20 -89.5t-44 -91t-44 -78t-20 -50.5q0 -8 3 -10.5t6.5 -5t6.5 -6t3 -12.5v-1q-2 -8 -14 -13.5t-34 -13.5h1q-7 -3 -17.5 -12t-28 -32.5t-42 -64t-58.5 -106.5q-26 -49 -52 -78.5t-50.5 -45t-45 -20.5t-34.5 -5q-16 0 -27 3q-10 2 -18 6t-8 12q0 5 5 10
t12 8q7 4 17 7q11 3 26 17t32.5 36t36 49t36.5 54q41 64 86 145q9 15 26.5 27.5t34.5 21.5q20 11 43 19q-8 17 -11 30t-3 20q0 14 9 38t23 53.5t30 61.5t30 61.5t23 53.5t9 37q0 15 -4 25t-10 20q-8 13 -8 19q0 13 20 13q5 0 17.5 -7t25 -21.5t22 -35.5t9.5 -48z" />
    <glyph glyph-name="asciitilde" unicode="~" horiz-adv-x="500" 
d="M575 521q0 -4 -10 -20.5t-29 -35t-46.5 -33t-62.5 -14.5q-15 0 -30.5 6t-32.5 13t-35.5 13t-38.5 6q-25 0 -48 -9.5t-39 -11.5q-3 0 -3 3q0 7 11 24t30 35t45 32t57 14q5 0 9.5 -0.5t9.5 -1.5q12 0 26.5 -6.5t32 -14.5t39.5 -14.5t49 -6.5q8 0 16.5 5t16 11t12.5 11t6 5
q6 0 10.5 -2t4.5 -8z" />
    <glyph glyph-name="exclamdown" unicode="&#xa1;" horiz-adv-x="687" 
d="M648 390q0 -5 -1 -9.5t-6 -9.5q-10 -13 -22 -23q-11 -9 -26.5 -16t-35.5 -7q-5 1 -9 4q-9 5 -9 18q0 16 9 30t22 24t27 15t24 5q6 0 11 -4t8.5 -9.5t5.5 -10.5t2 -7zM536 284q0 -4 -3 -7q-25 -24 -66.5 -71t-90 -103t-98.5 -115t-91.5 -108.5t-69 -83t-31.5 -38.5
q-10 -16 -20 -27q-8 -11 -18.5 -19t-19.5 -8q-2 0 -21 10t-50 39l-2 2q-2 2 -2 7t19.5 29.5t52 61t74.5 81.5t88 92t92.5 92.5t87.5 82.5t74 62.5t52 32.5q2 1 5 3q2 1 5 2t6 1q11 0 19 -7t8 -11z" />
    <glyph glyph-name="cent" unicode="&#xa2;" horiz-adv-x="659" 
d="M759 768q0 -2 -2 -6q-35 -35 -64.5 -65t-49.5 -53q1 -1 3 -2.5t4 -4.5q19 -3 37 -9.5t32 -17t23 -26.5t9 -37t-14.5 -45t-38.5 -48t-55 -46.5t-64 -39.5t-66 -27.5t-60 -10.5q-9 0 -22 3t-25.5 9.5t-21 16t-8.5 23.5q0 12 22 23q22 8 43 19q18 8 38 19t35 22q2 2 5 4
q2 2 4 3.5t4 1.5q3 0 3 -7q0 -4 -5 -11.5t-25 -18.5q-13 -10 -17.5 -13.5t-4.5 -5.5l1 -1q5 0 22.5 10t40 25t47 33.5t45 36.5t34 32.5t13.5 21.5q0 4 -4 8.5t-20 4.5q-76 0 -148 -29.5t-136 -75.5t-117.5 -103t-92 -112t-60 -102t-21.5 -73q0 -6 3.5 -13t15.5 -7q8 0 41 10
t85 31.5t118.5 54.5t140.5 80q1 1 3 2t2.5 2t2.5 1t2 -2q0 -3 -10 -21.5t-29.5 -45t-47 -57.5t-62 -58.5t-76.5 -48.5t-89 -28q-26 -35 -52.5 -73t-44.5 -69q-1 -3 -2 -5q-3 -5 -8 -5q-10 0 -19.5 17t-9.5 38t13.5 47t33.5 54q-3 0 -5 6q-29 14 -44.5 40t-22.5 52
q-9 30 -9 63q1 54 24 108t62 104t91.5 94.5t111.5 79.5t122 58.5t124 32.5q19 19 41.5 41t45 42.5t44.5 38t39 27.5q1 1 4 3q2 1 4.5 2t5.5 1q7 0 8 -4q14 -9 17 -12.5t3 -6.5z" />
    <glyph glyph-name="sterling" unicode="&#xa3;" horiz-adv-x="749" 
d="M826 602q0 -13 -16 -43t-52 -66t-93.5 -72t-140.5 -61q-9 -2 -17 -3q-7 -1 -14.5 -1.5t-13.5 -0.5q-11 0 -11 3t7 7q28 15 61 38t65.5 49t62.5 52.5t53 50.5t37 42.5t14 28.5q0 4 -6 4q-5 0 -14 -3q-32 -8 -72 -34q-35 -23 -81.5 -67.5t-103.5 -122.5q-13 -19 -29 -41
q-14 -19 -31 -43t-36 -50l96 3q23 1 29.5 -3t7.5 -5q0 -8 -7.5 -15.5t-17.5 -9.5q-20 -5 -58 -8.5t-84 -7.5q-28 -37 -51.5 -68t-37.5 -45q0 -1 16 -1q14 0 30 0.5t20 0.5q39 0 84 -6.5t88.5 -22t84 -42.5t70.5 -68q0 -1 1 -2q2 -2 2 -4q0 -3 -5 -3q-6 0 -37.5 7t-82.5 16
t-119 16t-149 7q-63 0 -107 -1t-76 -3.5t-54.5 -6t-43 -8.5t-42 -10.5t-50.5 -12.5q-1 -1 -2 -1h-7q-3 0 -15.5 3.5t-25.5 9.5t-23.5 15t-10.5 20q0 9 12 17q15 9 51.5 20.5t80 21.5t87 17.5t71.5 9.5q26 30 50.5 58.5t47.5 55.5q-27 -2 -50 -3t-40 -2q-20 -1 -36 -1
q-4 -1 -10 -1t-8 2l-4 4q0 4 8 11t18.5 14t19 12.5l8.5 5.5q5 1 13 2.5t23 2.5t39 2t62 2q75 95 137.5 171t119.5 128.5t113.5 80.5t120.5 28q6 0 18.5 -3t25 -11t21.5 -21.5t9 -34.5z" />
    <glyph glyph-name="currency" unicode="&#xa4;" horiz-adv-x="629" 
d="M938 572q0 -23 -16 -49.5t-42.5 -53.5t-60.5 -51.5t-70.5 -43.5t-73 -30.5t-66.5 -11.5q-11 0 -25.5 3.5t-27.5 10t-22.5 17.5t-9.5 26q0 6 5 12t19 14q23 10 47 21q20 10 42 21.5t39 23.5l5 5q2 2 4.5 3.5t4.5 1.5q4 0 4 -8q0 -4 -6 -12.5t-28 -20.5q-14 -11 -19 -15
t-5 -6l1 -1q6 0 25 11t44 27.5t52 37.5t50 40.5t38 35.5t15 24q0 5 -5 9.5t-22 4.5q-73 0 -142.5 -24.5t-132.5 -64.5t-118.5 -91t-100.5 -105l142 5q23 1 29.5 -3t7.5 -5q0 -8 -7.5 -15t-17.5 -10q-35 -8 -79 -11.5t-92 -5.5l-20 -1q-10 -14 -19.5 -27.5t-17.5 -26.5l151 5
q23 1 29.5 -3t7.5 -5q0 -8 -7.5 -15t-17.5 -10q-38 -8 -88 -11.5t-102 -6.5q-20 -37 -31 -67t-11 -50q0 -7 3.5 -14.5t17.5 -7.5q9 0 45.5 12t93.5 36t130.5 60.5t156.5 86.5q2 1 4 3q2 1 3 2t3 1t2 -2q0 -4 -12.5 -27t-36.5 -55t-58.5 -68.5t-77.5 -68t-94 -52t-109 -20.5
q-28 0 -49 8t-37 21t-26.5 29.5t-17.5 34.5q-17 40 -19 93q0 17 3 35q-23 -2 -42 -2t-33 -1q-17 -1 -29 -1q-4 -1 -10 -1t-8 2l-4 4q0 4 8 11t18.5 14t19 12.5l8.5 5.5q7 2 24.5 3.5t58.5 3.5q4 12 8.5 24t10.5 24q-16 -1 -28.5 -1.5t-21.5 -0.5q-11 -1 -19 -1q-4 -1 -10 -1
t-8 2l-4 4q0 4 8 11t18.5 14t19 12.5l8.5 5.5q7 2 20.5 3t44.5 3q44 71 113.5 134.5t150.5 111t167.5 75.5t166.5 28q22 0 50 -4.5t52.5 -16.5t41 -32t16.5 -51z" />
    <glyph glyph-name="yen" unicode="&#xa5;" horiz-adv-x="551" 
d="M889 622q0 -8 -6 -14l-115 -124q-50 -59 -109 -134q-51 -64 -119 -153.5t-146 -200.5q-5 -9 -14 -21.5t-21 -26.5h95q23 0 29.5 -3.5t7.5 -4.5q0 -8 -7.5 -15t-17.5 -10q-30 -6 -66 -9t-76 -6q-11 -14 -22.5 -27.5t-25.5 -28.5l113 4q23 1 29.5 -3t7.5 -5q0 -8 -7.5 -15
t-17.5 -10q-35 -7 -78 -10t-90 -6q-36 -36 -76 -69.5t-82 -59.5t-84.5 -41.5t-84.5 -15.5q-40 0 -57 11t-17 24q0 12 13 22t35 10q14 0 30 -5t34 -16q36 28 71.5 60.5t70.5 68.5l-96 -5q-4 -1 -10 -1t-8 2l-4 4q0 4 8 11t18.5 14t19 12.5l8.5 5.5q4 1 11 2.5t20 2.5t33 2
t50 2q11 12 22.5 24t22.5 25q-27 -2 -50 -3t-40 -2q-20 -1 -36 -1q-4 -1 -10 -1t-8 2l-4 4q0 4 8 11t18.5 14t19 12.5l8.5 5.5q5 1 13 3t23 3t39 2t62 1h1q49 58 97 116.5t92.5 114t86 106t78.5 91.5l8 10q3 4 5 7t1 3q-2 0 -17 -14l-119 -117q-4 -4 -26 -26.5t-56 -54
t-76.5 -67t-87 -66t-87.5 -50.5t-78 -20q-12 0 -26.5 5t-26.5 16t-20.5 27.5t-8.5 39.5q0 11 4 31t19 48.5t44 65.5t80 82l267 238l24 24q9 10 16.5 20t7.5 15q0 4 -6 4q-3 0 -43.5 -8t-104.5 -32.5t-145 -71.5t-165 -125q-3 -4 -7 -7q-7 -7 -15 -7h-3q-4 1 -4 5q0 7 7 16
q4 4 8 9q41 68 96 122t114.5 91.5t118.5 57t107 19.5q16 0 35.5 -4t36.5 -15t28.5 -30t11.5 -49q0 -33 -32.5 -77.5t-81.5 -93.5t-105.5 -99t-105.5 -94.5t-81.5 -80.5t-32.5 -57q0 -2 3 -2q19 0 57.5 21t86 54t100.5 73.5t102 79.5t88.5 71.5t61.5 50.5q8 6 21 17t29.5 25
t35 30t36.5 31q42 36 90 78l59 58q2 2 6 5q8 6 16 6q5 0 10 -3l23 -16q1 -1 3 -4q4 -6 4 -11z" />
    <glyph glyph-name="brokenbar" unicode="&#xa6;" horiz-adv-x="410" 
d="M633 659q0 -6 -3 -9q-94 -100 -174 -187t-151 -163q-8 -19 -30 -28.5t-43 -9.5q-17 0 -28.5 6t-11.5 17q0 7 5 15q72 80 139 152.5t121 128t91 88.5t48 33q6 0 12.5 -5t12 -11.5t9 -14t3.5 -12.5zM148 134q0 -4 -3 -10q-87 -97 -151.5 -171t-109.5 -128t-72 -90t-39 -56
q-2 -5 -4 -9q-5 -9 -12 -9q-6 0 -11 4l-45 35l-2 2q-2 2 -2 7q0 4 28 39.5t75 92.5t110 130t132 153q5 17 24.5 25t39.5 8q17 0 29.5 -6t12.5 -17z" />
    <glyph glyph-name="section" unicode="&#xa7;" horiz-adv-x="785" 
d="M953 571q0 -12 -13.5 -28.5t-41 -31.5t-70.5 -25.5t-103 -10.5h-23t-27.5 1.5t-23 4.5t-9.5 8q0 7 17 14t43 14t55.5 14.5t55.5 17t43 21t17 25.5q1 1 -6 5t-25.5 8.5t-50.5 8.5t-81 4q-27 0 -57 -4.5t-64.5 -16t-73 -32t-82.5 -51.5q-11 -8 -20 -17q-8 -8 -13.5 -16.5
t-5.5 -16.5q0 -11 23.5 -17.5t56.5 -10t68.5 -4.5t59.5 -1q35 0 68.5 -5t60 -16t42.5 -30.5t16 -48.5q0 -39 -22 -72t-59.5 -58.5t-88 -44t-107.5 -30.5q17 -11 26.5 -27.5t9.5 -38.5q0 -56 -35.5 -90.5t-95 -54t-136.5 -26.5t-159 -8q-23 0 -52.5 6.5t-55.5 19t-44.5 30.5
t-18.5 40q0 5 4.5 9t17.5 5q33 4 63 8q26 4 50.5 9t37.5 11q2 0 5 1q2 0 4 0.5t4 0.5q5 0 5 -2q0 -4 -12 -13q-20 -11 -36 -15t-16 -10q0 -2 13 -2q16 0 50.5 0.5t77 4t87.5 9.5t82 17.5t61 28.5t24 42q0 11 -16.5 16.5t-35.5 5.5q-20 0 -45 -2t-57 -2q-20 0 -45.5 0.5
t-53 3t-54.5 8.5t-49 17q-13 6 -23 14q-17 13 -27 31t-10 44q0 12 8.5 38t37.5 55.5t84.5 57.5t148.5 44q-17 13 -27.5 31.5t-10.5 44.5q0 10 4.5 28.5t20 41t44 46.5t76 44.5t117 35t166.5 17.5q6 0 25 -1t44.5 -5.5t53 -13t51 -23.5t38.5 -37t15 -53zM714 355
q0 11 -16.5 16.5t-35.5 5.5q-20 0 -45 -2t-57 -2h-33.5t-38.5 1q-69 -14 -145 -44t-151 -84q-11 -8 -20 -17q-8 -8 -13.5 -16.5t-5.5 -16.5q0 -11 23.5 -18t56.5 -10q31 4 78.5 13.5t101 23t107.5 30.5t97 36.5t70 40.5t27 43z" />
    <glyph glyph-name="dieresis" unicode="&#xa8;" horiz-adv-x="500" 
d="M444 464q0 -5 -1 -9.5t-6 -9.5q-13 -17 -29 -30q-14 -11 -31 -20t-37 -9q-5 1 -9 4q-9 5 -9 18q0 16 11 32t26.5 28t31.5 19.5t26 7.5q2 -1 5 -1q2 -1 4 -1t4 -2q8 -10 11 -15.5t3 -11.5zM277 464q0 -5 -1 -9.5t-6 -9.5q-13 -17 -29 -30q-14 -11 -31 -20t-37 -9
q-5 1 -9 4q-9 5 -9 18q0 16 11 32t26.5 28t31.5 19.5t26 7.5q2 -1 5 -1q2 -1 4 -1t4 -2q8 -10 11 -15.5t3 -11.5z" />
    <glyph glyph-name="copyright" unicode="&#xa9;" horiz-adv-x="830" 
d="M765 364q0 -39 -14.5 -82t-39 -84.5t-58 -79t-70.5 -65.5t-76 -44.5t-76 -16.5q-63 0 -106.5 14.5t-72 37.5t-44.5 50.5t-24 53.5t-9.5 47.5t-1.5 32.5q0 26 12.5 59t35.5 66.5t55 65.5t71 57t84 40t95 15q66 0 111.5 -13t74 -35.5t41 -53t12.5 -65.5zM701 344
q0 28 -10 52t-32 42t-58 28.5t-87 10.5q-39 0 -74.5 -12t-66.5 -32t-56 -45.5t-42.5 -52.5t-27.5 -53t-10 -47q0 -8 1.5 -25.5t7.5 -38.5t18.5 -43t35 -40.5t57 -30t83.5 -11.5q43 0 89 28.5t84.5 72.5t63 96.5t24.5 100.5zM645 361q0 -15 -14.5 -33t-35.5 -33.5t-44.5 -26
t-42.5 -10.5q-11 0 -26 7.5t-15 21.5q0 9 13 15q9 4 19 8l17 8.5t15 9.5q1 1 3 2t2.5 2t2.5 1q5 0 6 -3t1 -8q9 6 19.5 14t18.5 15.5t13.5 13.5t5.5 9h-1q-1 0 -1.5 0.5t-1.5 0.5q-34 0 -66 -13t-60 -33t-51.5 -45t-40.5 -49t-26.5 -45t-9.5 -32q0 -4 5 -4q3 0 18 4t37.5 13
t51.5 24t61 37q-1 0 1 1.5t6 1.5t6 -1q0 -2 -11.5 -22.5t-33 -43.5t-51 -42t-65.5 -19q-25 0 -38.5 12.5t-19.5 27.5q-7 18 -8 40q1 40 27.5 79t66 70.5t87 51t90.5 19.5q10 0 22 -2t22.5 -7t18 -14t7.5 -23z" />
    <glyph glyph-name="ordfeminine" unicode="&#xaa;" horiz-adv-x="341" 
d="M662 556q0 -3 -1.5 -7.5t-6.5 -8.5q-81 -71 -149 -126q-29 -24 -58 -46.5t-54.5 -40t-44.5 -28.5t-28 -11q-16 0 -23 10.5t-7 38.5q0 14 3.5 33.5t3.5 24.5q0 3 -1 3q-2 0 -6 -4q-29 -31 -58 -56q-25 -21 -53 -38t-51 -17q-11 2 -20 8q-8 5 -13.5 15t-5.5 27
q0 18 16.5 46.5t43 60t61.5 63t72.5 57t74.5 41.5t69 16q9 0 15.5 -7t11.5 -17l6 4q2 2 5 3.5t7 1.5q5 0 15 -11q5 -1 10.5 -5.5t5.5 -12.5q0 -3 -2.5 -8.5t-10.5 -12.5q-31 -39 -54 -66t-38 -46t-23 -32.5t-9 -25.5q51 24 125.5 74t163.5 116q2 -2 4 -5q4 -6 4 -11z
M321 161q0 -10 -5 -18.5t-16 -10.5q-42 1 -69 1t-45 0.5t-30.5 0.5h-25.5t-31 0.5t-47 1.5q-2 -1 -5 -2t-10 -1q-6 0 -9 4q-1 1 -1 11l10 57q2 2 19 2t47.5 -0.5t65.5 -0.5q44 0 86 3q7 3 14 3q14 0 25.5 -9t18.5 -22q8 -10 8 -20zM423 557q0 1 -3 1q-28 0 -66.5 -24
t-73.5 -55.5t-59.5 -61t-24.5 -40.5q0 -2 2 -2q4 0 16 7.5t28.5 20t35.5 28t39 32.5q46 39 102 89q4 3 4 5z" />
    <glyph glyph-name="guillemotleft" unicode="&#xab;" horiz-adv-x="399" 
d="M381 336q0 -5 -1 -10t-2 -9q-3 -10 -19 -31t-35 -42t-36 -37t-20 -17q4 -16 9.5 -32t11 -34t9 -39t3.5 -48q0 -11 -8 -17.5t-13 -7.5l-17 16q-36 69 -54 110.5t-17 70.5q1 12 14 27t33 30.5t43.5 29.5t43.5 25.5t33.5 18t14.5 6.5q7 0 7 -10zM222 336q0 -5 -1 -10t-2 -9
q-3 -10 -19 -31t-35 -42t-36 -37t-20 -17q4 -16 9.5 -32t11 -34t9 -39t3.5 -48q0 -11 -8 -17.5t-13 -7.5l-17 16q-36 69 -54 110.5t-17 70.5q0 12 13.5 27t33.5 30.5t43.5 29.5t43.5 25.5t33.5 18t14.5 6.5q7 0 7 -10z" />
    <glyph glyph-name="registered" unicode="&#xae;" horiz-adv-x="830" 
d="M765 364q0 -39 -14.5 -82t-39 -84.5t-58 -79t-70.5 -65.5t-76 -44.5t-76 -16.5q-63 0 -106.5 14.5t-72 37.5t-44.5 50.5t-24 53.5t-9.5 47.5t-1.5 32.5q0 26 12.5 59t35.5 66.5t55 65.5t71 57t84 40t95 15q66 0 111.5 -13t74 -35.5t41 -53t12.5 -65.5zM701 344
q0 28 -10 52t-32 42t-58 28.5t-87 10.5q-39 0 -74.5 -12t-66.5 -32t-56 -45.5t-42.5 -52.5t-27.5 -53t-10 -47q0 -8 1.5 -25.5t7.5 -38.5t18.5 -43t35 -40.5t57 -30t83.5 -11.5q32 0 65.5 16t65.5 43q-8 2 -16.5 5.5t-16.5 11.5q-23 24 -42 45q-17 18 -33 36.5t-24 29.5v1
l-2 1q-2 0 -2 -2q-10 -12 -22.5 -28t-24.5 -32.5t-21.5 -30.5t-12.5 -22v-4q0 -3 -3 -3q-1 0 -4.5 1.5t-8 5.5t-8 9.5t-3.5 14.5q0 6 2.5 12t6.5 14q27 39 58 75q26 31 59 63t68 52l2 2q2 2 5 2q2 0 6.5 -3t4.5 -9q0 -3 -2 -5q-16 -17 -31 -33q-13 -14 -26 -29t-21 -26
q-1 -1 -2.5 -3.5t-1.5 -5.5h2q35 9 69 23q29 11 61 29t56 42q2 1 4 4q4 4 4 9q0 11 -17 15.5t-45 4.5q-30 0 -69.5 -6.5t-79 -19t-73.5 -31.5t-54 -44l-2 -4l1 -2q4 0 13.5 3.5t20 8t21.5 10t19 10.5t15 9q6 3 11.5 6t7.5 3q3 0 3 -2q0 -1 -1 -1l-2 -2q-6 -8 -17 -20.5
t-25 -24.5t-29.5 -21t-30.5 -9q-12 0 -20 6.5t-13 14.5q-6 9 -9 21q13 18 33.5 42.5t52.5 46.5t79 37.5t113 16.5q16 0 37.5 -4t40.5 -13t32 -23t13 -34q0 -13 -8 -26.5t-27.5 -28.5t-51 -31.5t-77.5 -35.5l-4 -2q-4 -2 -4 -4t2 -2q14 -17 30 -34q13 -14 29 -30t31 -28
q45 46 74.5 103.5t29.5 111.5z" />
    <glyph glyph-name="degree" unicode="&#xb0;" 
d="M325 601q0 -17 -5 -34.5t-17 -31t-33 -22t-54 -8.5q-19 0 -33.5 13t-14.5 38q0 10 3 27t13.5 33t31 27.5t55.5 11.5q15 -1 27 -7q10 -5 18.5 -16t8.5 -31zM287 588q0 14 -5 22t-21 8q-19 0 -29.5 -2.5t-16 -9t-6.5 -17t-1 -25.5q0 -8 5 -13.5t10 -7.5q39 0 51.5 9
t12.5 36z" />
    <glyph glyph-name="plusminus" unicode="&#xb1;" horiz-adv-x="410" 
d="M553 325q0 -9 -6 -13q-4 -4 -9 -5q-52 1 -85 2t-57 1.5t-44 1.5t-45 1q-29 -32 -57 -62.5t-58 -62.5q-8 -19 -30 -28.5t-43 -9.5q-17 0 -28.5 6t-11.5 17q0 7 5 15q29 33 57.5 64t54.5 60q-48 -1 -79 -2.5t-49 -5.5q-1 -1 -4 -2t-10 -1q-6 0 -10 4t-4 11l-3 57v1q0 4 4 7
q1 1 18.5 2.5t47 2t70 1t88.5 0.5q74 78 122.5 124.5t63.5 46.5q6 0 12.5 -5t12 -11.5t9 -14t3.5 -12.5q0 -6 -3 -9q-32 -34 -58.5 -63t-51.5 -56q14 0 35.5 -0.5t60.5 -0.5q6 3 13 3q14 0 28 -9t25 -22q16 -16 16 -33zM405 16q0 -9 -6 -13q-4 -4 -9 -5q-59 1 -93.5 2.5
t-60 2t-48 1t-56.5 0.5q-84 0 -135 -2t-77 -7q-1 -1 -4 -2t-10 -1q-6 0 -10 4t-4 11l-3 57v1q0 4 4 7q2 2 22 3t55.5 2t83.5 1h105h46.5h29.5t32.5 -0.5t55.5 -0.5q6 3 13 3q14 0 28 -9t25 -22q16 -16 16 -33z" />
    <glyph glyph-name="twosuperior" unicode="&#xb2;" horiz-adv-x="566" 
d="M741 547q0 -38 -33 -93t-87 -121t-122.5 -141t-140.5 -154q-3 -2 -6 -6q-3 -3 -6 -7t-8 -9q64 -7 110.5 -10t85.5 -14t74.5 -35t77.5 -72q2 -3 5 -7q6 -8 6 -10q0 -3 -3 -3q-5 0 -13 4q-40 11 -95 20q-47 8 -113.5 14t-152.5 6h-42t-50 -1q-27 -26 -67.5 -50t-83 -43.5
t-82.5 -31t-66 -11.5q-18 0 -40 5.5t-42 17.5t-33.5 29.5t-13.5 41.5q0 12 16 37t59.5 50.5t119 45t194.5 20.5q10 7 23 17.5t42 34.5q52 43 105.5 91t103.5 96t94 94t76.5 84.5t51 67.5t18.5 44q0 8 -8 8q-25 0 -71.5 -19.5t-101.5 -50.5t-113 -70.5t-105 -80t-77 -78.5
t-30 -66q0 -2 3 -2q13 0 44 18.5t66.5 45t68.5 54.5t50 48q5 5 9.5 7.5t6.5 2.5t4 -1q4 -2 4 -7q0 -4 -10.5 -23t-29 -46t-43.5 -57t-54 -55.5t-61.5 -42t-64.5 -16.5q-18 0 -30 9t-19 22.5t-10 28t-3 25.5q0 48 27.5 97.5t71.5 96t100 87.5t114 71.5t112 48t94 17.5
q16 0 33 -3t30.5 -11t22 -22t8.5 -37zM86 -94q-30 0 -69.5 -6t-75.5 -16t-61 -22.5t-25 -24.5q0 -10 24 -13q18 0 38 1.5t45 9.5t55.5 24.5t68.5 46.5z" />
    <glyph glyph-name="acute" unicode="&#xb4;" 
d="M467 527q0 -5 -0.5 -9t-0.5 -7q-1 -4 -1 -7q-17 -33 -48 -54.5t-62.5 -33.5t-56 -17t-28.5 -5q-8 0 -11.5 5t-3.5 10t2.5 9t5.5 8l9 9q37 22 62 45.5t41 43.5q18 23 29 44q6 8 11 11t10 3q12 0 20 -6t13 -14t7 -18t2 -17z" />
    <glyph glyph-name="mu" unicode="&#xb5;" horiz-adv-x="881" 
d="M1072 483q0 -18 -8 -43t-20.5 -52t-28.5 -52.5t-31 -44.5q-23 -27 -47.5 -51t-50 -42t-50 -28t-46.5 -10q-11 1 -24 4t-24.5 11t-19.5 22.5t-8 38.5q0 30 18.5 70.5t53 82t84 79t111.5 60.5q13 0 14.5 -4.5t9.5 -5.5q7 1 10.5 5t14.5 5q5 0 11.5 -2.5t14.5 -10.5
q4 -4 8 -9q3 -5 5.5 -10.5t2.5 -12.5zM917 52q0 -10 -5 -18.5t-16 -10.5q-43 1 -69.5 1t-44.5 0.5t-30.5 0.5h-25.5t-31 0.5t-47 1.5q-2 -1 -5 -2t-10 -1q-6 0 -9 4q-1 1 -1 11l10 57q2 2 19 2t47.5 -0.5t65.5 -0.5q44 0 86 3q7 3 14 3q14 0 25.5 -9t18.5 -22q8 -10 8 -20z
M970 651q0 -2 -2 -4.5t-9 -6.5q-59 -33 -134 -98.5t-154 -148.5t-155.5 -175.5t-139.5 -179.5q-20 -33 -34 -51.5t-25.5 -27.5t-22 -10.5t-22.5 -1.5q-24 0 -38 27t-14 83q0 20 4 45t15 53q21 54 43 104q19 43 42 88t46 76q9 15 17 26q6 10 11.5 18.5t5.5 10.5q0 3 -12 -12
q-71 -91 -136 -171q-28 -34 -57.5 -69t-58 -67t-54.5 -59t-46 -44q-53 -56 -107 -105q-46 -43 -99 -86t-99 -68q-5 -4 -11 -7q-12 -7 -28 -7q-6 0 -17.5 4t-23 10.5t-20.5 16.5t-9 22q0 11 12 20l164 138l8 6q3 2 6.5 4.5t5.5 2.5t2 -2q0 -14 -18 -31t-44 -44
q-5 -5 -8.5 -9.5t-3.5 -6.5t2 -2t10 6q40 28 92.5 74t111 102.5t120 119t119.5 124.5q136 144 281 309q9 7 20 12q10 5 22.5 8.5t29.5 3.5q8 0 19.5 -2.5t11.5 -12.5q0 -6 -9 -18q-8 -19 -29.5 -57t-49 -87.5t-58 -105.5t-55.5 -110.5t-41.5 -102.5t-16.5 -81q0 -8 4 -8
q6 0 20 20q1 3 23 39.5t58.5 91t84.5 119t102 122.5t109.5 102t108.5 58q28 4 53 8q21 3 42 5.5t32 2.5q0 -1 1 -1zM1015 467q0 2 -2 2q-5 0 -20.5 -7t-35 -18t-39.5 -26t-33 -31q-26 -24 -44 -51t-29 -49.5t-15.5 -37.5t-4.5 -17q0 -8 5 -8q18 0 38.5 13.5t39.5 31t33 33.5
t17 22q8 6 23 24t30 39.5t26 43t11 36.5z" />
    <glyph glyph-name="paragraph" unicode="&#xb6;" horiz-adv-x="642" 
d="M722 621q0 -55 -29.5 -121t-79 -136.5t-113.5 -143t-132.5 -139.5t-137 -126t-126.5 -102.5t-101 -68.5t-61 -25q-11 0 -24 2.5t-24 8.5t-18.5 15t-7.5 22q0 10 38.5 32.5t99.5 59t135.5 88t145.5 118.5t130 151.5t89 186.5q0 2 -1 2q-2 0 -5 -4l-13.5 -13.5l-30 -30
l-32 -32t-19.5 -20.5q-29 -31 -72 -73t-91 -79.5t-97 -64t-90 -26.5q-26 0 -42.5 13.5t-26 33t-13 41.5t-3.5 39q0 63 30.5 122.5t81.5 112t118.5 96.5t141.5 76t149.5 49.5t144.5 17.5h1q35 0 60 -22t25 -60z" />
    <glyph glyph-name="periodcentered" unicode="&#xb7;" horiz-adv-x="126" 
d="M207 338q0 -5 -1 -9.5t-6 -9.5q-13 -17 -29 -30q-14 -11 -31 -20t-37 -9q-5 1 -9 4q-9 5 -9 18q0 16 11 32t26.5 28t31.5 19.5t26 7.5q2 -1 5 -1q2 -1 4 -1t4 -2q8 -10 11 -15.5t3 -11.5z" />
    <glyph glyph-name="cedilla" unicode="&#xb8;" horiz-adv-x="333" 
d="M124 -97q0 -23 -13 -42.5t-33 -34t-45.5 -22.5t-50.5 -8q-12 0 -21 3t-9 11t7 9.5t15 3.5q31 5 54.5 22t23.5 38q0 10 -5.5 15.5t-13.5 4.5l-14 -1q-12 -2 -12 12q0 6 6.5 17.5t14.5 26t14.5 30t6.5 29.5h30q-1 -17 -9.5 -34.5t-19.5 -31.5q5 1 10 1.5t10 0.5
q25 0 39.5 -13.5t14.5 -36.5z" />
    <glyph glyph-name="ordmasculine" unicode="&#xba;" horiz-adv-x="321" 
d="M456 592q0 -18 -8 -43t-20.5 -52t-28.5 -52.5t-31 -44.5q-23 -27 -47.5 -51t-50 -42t-50 -28t-46.5 -10q-11 1 -24 4t-24.5 11t-19.5 22.5t-8 38.5q0 30 18.5 70.5t53 82t84 79t111.5 60.5q13 0 14.5 -4.5t9.5 -5.5q7 1 10.5 5t14.5 5q5 0 11.5 -2.5t14.5 -10.5
q4 -4 8 -9q3 -5 5.5 -10.5t2.5 -12.5zM301 161q0 -10 -5 -18.5t-16 -10.5q-42 1 -69 1t-45 0.5t-30.5 0.5h-25.5t-31 0.5t-47 1.5q-2 -1 -5 -2t-10 -1q-6 0 -9 4q-1 1 -1 11l10 57q2 2 19 2t47.5 -0.5t65.5 -0.5q44 0 86 3q7 3 14 3q14 0 25.5 -9t18.5 -22q8 -10 8 -20z
M399 576q0 2 -2 2q-5 0 -20.5 -7t-35 -18t-39.5 -26t-33 -31q-26 -24 -44 -51t-29 -49.5t-15.5 -37.5t-4.5 -17q0 -8 5 -8q18 0 38.5 13.5t39.5 31t33 33.5t17 22q8 6 23 24t30 39.5t26 43t11 36.5z" />
    <glyph glyph-name="guillemotright" unicode="&#xbb;" horiz-adv-x="399" 
d="M380 149q-1 -12 -14 -27t-33 -30.5t-43.5 -29.5t-43.5 -25.5t-33.5 -18t-14.5 -6.5q-7 0 -7 10q0 5 1 10t2 9q3 10 19 31t35 42t36 37t20 17q-4 16 -9.5 32t-11 34t-9 39t-3.5 48q0 11 8 17.5t13 7.5l17 -16q36 -69 54 -110.5t17 -70.5zM221 149q-1 -12 -14 -27
t-33 -30.5t-43.5 -29.5t-43.5 -25.5t-33.5 -18t-14.5 -6.5q-7 0 -7 10q0 5 1 10t2 9q3 10 19 31t35 42t36 37t20 17q-4 16 -9.5 32t-11 34t-9 39t-3.5 48q0 11 8 17.5t13 7.5l17 -16q36 -69 54 -110.5t17 -70.5z" />
    <glyph glyph-name="questiondown" unicode="&#xbf;" horiz-adv-x="417" 
d="M334 365q0 -5 -1 -9.5t-6 -9.5q-10 -13 -22 -23q-11 -9 -26.5 -16t-35.5 -7q-5 1 -9 4q-9 5 -9 18q0 16 9 30t22 23.5t27 15t24 5.5q6 0 11 -4q11 -7 16 -27zM295 162q0 -18 -10 -36.5t-41 -42.5t-88 -56.5t-151 -78.5q-9 -7 -20 -16.5t-20 -20t-15.5 -22.5t-6.5 -24
q0 -16 6.5 -24.5t17 -12.5t22.5 -5t24 -1q42 0 74.5 10t70.5 24q2 1 8 3q19 -6 35 -13q13 -6 24 -15.5t11 -20.5t-10 -21q-11 -18 -38 -30.5t-59 -21t-63.5 -12.5t-50.5 -4q-36 0 -63.5 10.5t-46 28.5t-28 41.5t-9.5 49.5q0 41 23.5 81t71.5 69l233 138q11 11 18.5 20
t7.5 25l-6 27q0 23 22 23q12 0 22.5 -7t18 -18t12 -23.5t4.5 -23.5z" />
    <glyph glyph-name="Agrave" unicode="&#xc0;" horiz-adv-x="443" 
d="M615 690q-2 -4 -6 -7.5t-10 -3.5q-5 1 -28 12t-50 31t-51.5 49t-32.5 65q0 -2 1 8.5t5.5 23t14 23.5t26.5 11q6 0 13.5 -2.5t14.5 -17.5q5 -24 17 -50q10 -23 28.5 -52.5t47.5 -60.5q2 -5 5 -9q2 -4 3.5 -9.5t1.5 -10.5zM669 547q0 -8 -7 -16q-14 -17 -32 -37
q-15 -17 -35 -40t-42 -50q-2 -3 -16.5 -19t-35 -41.5t-44 -59t-43.5 -71t-33 -78t-13 -79.5q0 -36 3.5 -70.5t9.5 -63t13 -48.5t14 -27q0 -3 -7 -3q-37 0 -63 21.5t-43 53t-25 68.5t-8 69q0 23 6 49.5t13 46.5v2q0 1 0.5 2t0.5 2q0 2 -1 2q-2 0 -7 -5q-28 -37 -62 -71
q-29 -30 -68.5 -62.5t-86.5 -56.5l-10 -4t-11.5 -3t-13.5 -1q-20 0 -34 8.5t-22.5 23.5t-12.5 35t-4 43q0 48 25 109.5t69 126t104 126t131 109.5t149.5 77.5t158.5 29.5q20 -4 36 -10q14 -5 25 -13t11 -20q0 -3 -3 -6.5t-10 -4.5q-2 -1 -3 -1q-2 -2 -2 -3q0 -4 4.5 -7.5
t10 -8t10 -10t4.5 -14.5zM611 580q0 3 -5 3q-68 -11 -136.5 -48.5t-132 -89t-119 -111t-96.5 -114t-64.5 -98t-23.5 -63.5q0 -4 4 -4q17 4 64 38q19 15 47 38t66 57t86.5 80.5t110.5 108.5l192 193q7 7 7 10z" />
    <glyph glyph-name="Aacute" unicode="&#xc1;" horiz-adv-x="443" 
d="M790 814q0 -5 -0.5 -9t-0.5 -7q-1 -4 -1 -7q-17 -33 -48 -54.5t-62.5 -33.5t-56 -17t-28.5 -5q-8 0 -11.5 5t-3.5 10t2.5 9t5.5 8l9 9q37 22 62 45.5t41 43.5q18 23 29 44q6 8 11 11t10 3q12 0 20 -6t13 -14t7 -18t2 -17zM669 547q0 -8 -7 -16q-14 -17 -32 -37
q-15 -17 -35 -40t-42 -50q-2 -3 -16.5 -19t-35 -41.5t-44 -59t-43.5 -71t-33 -78t-13 -79.5q0 -36 3.5 -70.5t9.5 -63t13 -48.5t14 -27q0 -3 -7 -3q-37 0 -63 21.5t-43 53t-25 68.5t-8 69q0 23 6 49.5t13 46.5v2q0 1 0.5 2t0.5 2q0 2 -1 2q-2 0 -7 -5q-28 -37 -62 -71
q-29 -30 -68.5 -62.5t-86.5 -56.5l-10 -4t-11.5 -3t-13.5 -1q-20 0 -34 8.5t-22.5 23.5t-12.5 35t-4 43q0 48 25 109.5t69 126t104 126t131 109.5t149.5 77.5t158.5 29.5q20 -4 36 -10q14 -5 25 -13t11 -20q0 -3 -3 -6.5t-10 -4.5q-2 -1 -3 -1q-2 -2 -2 -3q0 -4 4.5 -7.5
t10 -8t10 -10t4.5 -14.5zM611 580q0 3 -5 3q-68 -11 -136.5 -48.5t-132 -89t-119 -111t-96.5 -114t-64.5 -98t-23.5 -63.5q0 -4 4 -4q17 4 64 38q19 15 47 38t66 57t86.5 80.5t110.5 108.5l192 193q7 7 7 10z" />
    <glyph glyph-name="Acircumflex" unicode="&#xc2;" horiz-adv-x="443" 
d="M753 689q-1 -8 -12 -10t-19 -2q-10 0 -23 12.5t-24.5 27.5t-19.5 29t-8 17q-22 -18 -51.5 -33.5t-59.5 -26.5t-55.5 -17.5t-40.5 -6.5q-12 0 -18 5t-6 10t2 9t4 7t7 3q39 8 75.5 30.5t66 46.5t50 42.5t28.5 18.5q13 0 24 -6.5t11 -7.5q5 2 9 2h9q17 -2 23 -6.5t6 -11.5
l-7 -31q0 -17 4.5 -34.5t10 -32t10 -24t4.5 -10.5zM669 547q0 -8 -7 -16q-14 -17 -32 -37q-15 -17 -35 -40t-42 -50q-2 -3 -16.5 -19t-35 -41.5t-44 -59t-43.5 -71t-33 -78t-13 -79.5q0 -36 3.5 -70.5t9.5 -63t13 -48.5t14 -27q0 -3 -7 -3q-37 0 -63 21.5t-43 53t-25 68.5
t-8 69q0 23 6 49.5t13 46.5v2q0 1 0.5 2t0.5 2q0 2 -1 2q-2 0 -7 -5q-28 -37 -62 -71q-29 -30 -68.5 -62.5t-86.5 -56.5l-10 -4t-11.5 -3t-13.5 -1q-20 0 -34 8.5t-22.5 23.5t-12.5 35t-4 43q0 48 25 109.5t69 126t104 126t131 109.5t149.5 77.5t158.5 29.5q20 -4 36 -10
q14 -5 25 -13t11 -20q0 -3 -3 -6.5t-10 -4.5q-2 -1 -3 -1q-2 -2 -2 -3q0 -4 4.5 -7.5t10 -8t10 -10t4.5 -14.5zM611 580q0 3 -5 3q-68 -11 -136.5 -48.5t-132 -89t-119 -111t-96.5 -114t-64.5 -98t-23.5 -63.5q0 -4 4 -4q17 4 64 38q19 15 47 38t66 57t86.5 80.5
t110.5 108.5l192 193q7 7 7 10z" />
    <glyph glyph-name="Atilde" unicode="&#xc3;" horiz-adv-x="443" 
d="M788 767q0 -4 -7 -16t-22 -25.5t-39 -24t-59 -10.5q-15 0 -31 6t-33.5 13.5t-36.5 13.5t-40 5q-22 -1 -44.5 -11t-38.5 -10q-6 0 -6 2q0 6 8 13q22 18 45 32q20 12 44 22t47 10q12 0 26.5 -6.5t32 -14.5t39.5 -14.5t49 -6.5q8 0 16.5 5t16 11t12.5 11t6 5q6 0 10.5 -2
t4.5 -8zM669 547q0 -8 -7 -16q-14 -17 -32 -37q-15 -17 -35 -40t-42 -50q-2 -3 -16.5 -19t-35 -41.5t-44 -59t-43.5 -71t-33 -78t-13 -79.5q0 -36 3.5 -70.5t9.5 -63t13 -48.5t14 -27q0 -3 -7 -3q-37 0 -63 21.5t-43 53t-25 68.5t-8 69q0 23 6 49.5t13 46.5v2q0 1 0.5 2
t0.5 2q0 2 -1 2q-2 0 -7 -5q-28 -37 -62 -71q-29 -30 -68.5 -62.5t-86.5 -56.5l-10 -4t-11.5 -3t-13.5 -1q-20 0 -34 8.5t-22.5 23.5t-12.5 35t-4 43q0 48 25 109.5t69 126t104 126t131 109.5t149.5 77.5t158.5 29.5q20 -4 36 -10q14 -5 25 -13t11 -20q0 -3 -3 -6.5
t-10 -4.5q-2 -1 -3 -1q-2 -2 -2 -3q0 -4 4.5 -7.5t10 -8t10 -10t4.5 -14.5zM611 580q0 3 -5 3q-68 -11 -136.5 -48.5t-132 -89t-119 -111t-96.5 -114t-64.5 -98t-23.5 -63.5q0 -4 4 -4q17 4 64 38q19 15 47 38t66 57t86.5 80.5t110.5 108.5l192 193q7 7 7 10z" />
    <glyph glyph-name="Adieresis" unicode="&#xc4;" horiz-adv-x="443" 
d="M773 758q0 -5 -1 -9.5t-6 -9.5q-13 -17 -29 -30q-14 -11 -31 -20t-37 -9q-5 1 -9 4q-9 5 -9 18q0 16 11 32t26.5 28t31.5 19.5t26 7.5q2 -1 5 -1q2 -1 4 -1t4 -2q8 -10 11 -15.5t3 -11.5zM606 758q0 -5 -1 -9.5t-6 -9.5q-13 -17 -29 -30q-14 -11 -31 -20t-37 -9
q-5 1 -9 4q-9 5 -9 18q0 16 11 32t26.5 28t31.5 19.5t26 7.5q2 -1 5 -1q2 -1 4 -1t4 -2q8 -10 11 -15.5t3 -11.5zM669 547q0 -8 -7 -16q-14 -17 -32 -37q-15 -17 -35 -40t-42 -50q-2 -3 -16.5 -19t-35 -41.5t-44 -59t-43.5 -71t-33 -78t-13 -79.5q0 -36 3.5 -70.5t9.5 -63
t13 -48.5t14 -27q0 -3 -7 -3q-37 0 -63 21.5t-43 53t-25 68.5t-8 69q0 23 6 49.5t13 46.5v2q0 1 0.5 2t0.5 2q0 2 -1 2q-2 0 -7 -5q-28 -37 -62 -71q-29 -30 -68.5 -62.5t-86.5 -56.5l-10 -4t-11.5 -3t-13.5 -1q-20 0 -34 8.5t-22.5 23.5t-12.5 35t-4 43q0 48 25 109.5
t69 126t104 126t131 109.5t149.5 77.5t158.5 29.5q20 -4 36 -10q14 -5 25 -13t11 -20q0 -3 -3 -6.5t-10 -4.5q-2 -1 -3 -1q-2 -2 -2 -3q0 -4 4.5 -7.5t10 -8t10 -10t4.5 -14.5zM611 580q0 3 -5 3q-68 -11 -136.5 -48.5t-132 -89t-119 -111t-96.5 -114t-64.5 -98t-23.5 -63.5
q0 -4 4 -4q17 4 64 38q19 15 47 38t66 57t86.5 80.5t110.5 108.5l192 193q7 7 7 10z" />
    <glyph glyph-name="Aring" unicode="&#xc5;" horiz-adv-x="443" 
d="M724 763q0 -17 -5 -34.5t-17 -31t-33 -22t-54 -8.5q-19 0 -33.5 13t-14.5 38q0 10 3 27t13.5 33t31 27.5t55.5 11.5q15 -1 27 -7q10 -5 18.5 -16t8.5 -31zM669 547q0 -8 -7 -16q-14 -17 -32 -37q-15 -17 -35 -40t-42 -50q-2 -3 -16.5 -19t-35 -41.5t-44 -59t-43.5 -71
t-33 -78t-13 -79.5q0 -36 3.5 -70.5t9.5 -63t13 -48.5t14 -27q0 -3 -7 -3q-37 0 -63 21.5t-43 53t-25 68.5t-8 69q0 23 6 49.5t13 46.5v2q0 1 0.5 2t0.5 2q0 2 -1 2q-2 0 -7 -5q-28 -37 -62 -71q-29 -30 -68.5 -62.5t-86.5 -56.5l-10 -4t-11.5 -3t-13.5 -1q-20 0 -34 8.5
t-22.5 23.5t-12.5 35t-4 43q0 48 25 109.5t69 126t104 126t131 109.5t149.5 77.5t158.5 29.5q20 -4 36 -10q14 -5 25 -13t11 -20q0 -3 -3 -6.5t-10 -4.5q-2 -1 -3 -1q-2 -2 -2 -3q0 -4 4.5 -7.5t10 -8t10 -10t4.5 -14.5zM686 750q0 14 -5 22t-21 8q-19 0 -29.5 -2.5t-16 -9
t-6.5 -17t-1 -25.5q0 -8 5 -13.5t10 -7.5q39 0 51.5 9t12.5 36zM611 580q0 3 -5 3q-68 -11 -136.5 -48.5t-132 -89t-119 -111t-96.5 -114t-64.5 -98t-23.5 -63.5q0 -4 4 -4q17 4 64 38q19 15 47 38t66 57t86.5 80.5t110.5 108.5l192 193q7 7 7 10z" />
    <glyph glyph-name="AE" unicode="&#xc6;" horiz-adv-x="675" 
d="M1036 542q0 -8 -15 -9q-67 -2 -135 -6q-58 -4 -125 -10t-124 -14q-15 -17 -37 -42.5t-47 -56.5q-2 -3 -16 -18.5t-34 -40.5l-1 -2l1 -2q0 -3 4 -3q1 0 11 2q19 1 39 2q17 1 37.5 1.5t40.5 0.5q23 0 41.5 -1t24.5 -5l11.5 -6.5t25.5 -15.5t25.5 -19t13.5 -18l1 -5
q0 -4 -4 -7t-15 -4q-79 -8 -145 -13q-28 -3 -56 -5t-52 -4t-41.5 -3t-24.5 -1h-3q-2 0 -4 0.5t-4 0.5h-1q-25 -43 -42.5 -89.5t-17.5 -92.5v-4l1 -1l-1 -1v-2v-11q1 -1 3 -1q4 0 12 4q27 3 58 7q26 3 61 5.5t75 2.5q24 0 49.5 -1t50.5 -4q4 0 15 -2t28.5 -10t42 -24
t54.5 -45l4 -4q2 -2 3 -4l2 -4v-2q0 -5 -13 -5q-72 0 -141 -1q-29 0 -60.5 -1t-62.5 -2t-60 -2.5t-53 -3.5q-1 -1 -3 -1h-9q-9 0 -22 2t-25 7q6 -38 14.5 -65.5t16.5 -35.5q0 -3 -7 -3q-37 0 -63 21.5t-43 53t-25 68.5t-8 69q0 23 6 49.5t13 46.5v2q0 1 0.5 2t0.5 2
q0 2 -1 2q-2 0 -7 -5q-28 -37 -62 -71q-29 -30 -68.5 -62.5t-86.5 -56.5l-10 -4t-11.5 -3t-13.5 -1q-20 0 -34 8.5t-22.5 23.5t-12.5 35t-4 43q0 54 31 124t84.5 141.5t126 137t155.5 109.5q2 2 3 2q57 29 116.5 46.5t120.5 17.5q10 -2 21 -5q20 -5 37 -16q26 2 53 3.5
t56 1.5q43 0 90 -2.5t87.5 -10.5t69 -25t35.5 -45l1 -4v0zM611 580q0 3 -5 3q-68 -11 -136.5 -48.5t-132 -89t-119 -111t-96.5 -114t-64.5 -98t-23.5 -63.5q0 -4 4 -4q18 3 64 38q19 15 47 38t65.5 57.5t86 81.5t109.5 109q36 37 57 58t32.5 31.5t15.5 13.5t7 5l82 83
q7 7 7 10z" />
    <glyph glyph-name="Ccedilla" unicode="&#xc7;" horiz-adv-x="511" 
d="M820 572q0 -23 -16 -49.5t-42.5 -53.5t-60.5 -51.5t-70.5 -43.5t-73 -30.5t-66.5 -11.5q-11 0 -25.5 3.5t-27.5 10t-22.5 17.5t-9.5 26q0 6 5 12t19 14q23 10 47 21q20 10 42 21.5t39 23.5l5 5q2 2 4.5 3.5t4.5 1.5q4 0 4 -8q0 -4 -6 -12.5t-28 -20.5q-14 -11 -19 -15
t-5 -6l1 -1q6 0 25 11t44 27.5t52 37.5t50 40.5t38 35.5t15 24q0 5 -5 9.5t-22 4.5q-84 0 -164 -32.5t-151 -83.5t-130 -114t-101.5 -124t-66.5 -113t-24 -81q0 -7 3.5 -14.5t17.5 -7.5q9 0 45.5 12t93.5 36t130.5 60.5t156.5 86.5q2 1 4 3q2 1 3 2t3 1t2 -2q0 -4 -12.5 -27
t-36.5 -55t-58.5 -68.5t-77.5 -68t-94 -52t-109 -20.5q-2 0 -4 0.5t-4 0.5q-5 -10 -12.5 -18t-13.5 -16q5 1 10 1.5t10 0.5q25 0 39.5 -13.5t14.5 -36.5t-13 -42.5t-33 -34t-45.5 -22.5t-50.5 -8q-12 0 -21 3t-9 11t7 9.5t15 3.5q31 5 54.5 22t23.5 38q0 10 -5.5 15.5
t-13.5 4.5l-14 -1q-12 -2 -12 12q0 4 4.5 12t11 18t13 21.5t11.5 22.5q-42 11 -64.5 40t-33.5 61q-12 37 -14 81q1 64 30.5 129t79.5 124t116 110.5t139 89.5t148.5 59.5t145.5 21.5q22 0 50 -4.5t52.5 -16.5t41 -32t16.5 -51z" />
    <glyph glyph-name="Egrave" unicode="&#xc8;" horiz-adv-x="493" 
d="M587 673q-2 -4 -6 -7.5t-10 -3.5q-5 1 -28 12t-50 31t-51.5 49t-32.5 65q0 -2 1 8.5t5.5 23t14 23.5t26.5 11q6 0 13.5 -2.5t14.5 -17.5q5 -24 17 -50q10 -23 28.5 -52.5t47.5 -60.5q2 -5 5 -9q2 -4 3.5 -9.5t1.5 -10.5zM854 546q0 -5 -3.5 -8.5t-14.5 -4.5
q-73 -3 -145 -7q-62 -4 -133 -10t-131 -15q-4 0 -8 -2q-8 -4 -8 -9q0 -3 1 -5q0 -1 -1 -3q-2 -4 -7 -9l-113 -121l-4 -4q-3 -3 -3 -7q0 -3 4 -3q1 0 11 2q19 1 39 2q17 1 38 1.5t41 0.5q23 0 41.5 -1t23.5 -5l9 -6.5t20.5 -15.5t20.5 -19t9 -18q0 -6 -3.5 -10t-18.5 -6
q-75 -8 -137 -13q-27 -3 -53.5 -5t-49 -4t-39 -3t-23.5 -1h-3q-2 0 -3.5 0.5t-3.5 0.5q-7 0 -17.5 -7t-18.5 -18l-122 -162q-2 -3 -3 -5q-2 -6 -2 -7q0 -3 3 -3q5 0 13 4q27 3 60 7q28 3 63.5 5.5t75.5 2.5q24 0 49 -1t49 -4q4 0 14.5 -2t26 -10t35 -24t42.5 -45l2 -4l2 -4
t1 -4q0 -3 -3 -5t-12 -2q-72 0 -141 -1q-60 -1 -124.5 -3t-113.5 -6q-2 -1 -4 -1h-9q-13 0 -30.5 3.5t-28.5 16.5q-1 1 -2 3q-2 1 -3.5 2t-3.5 1q-3 0 -7.5 -2t-10.5 -10l-1 -1q-1 -1 -2 -1q-2 0 -8.5 3.5t-14 11t-13 18.5t-5.5 26t7 30q15 34 36 69q18 30 44 65.5t60 67.5
q1 1 2 3t2 3t1 3q0 5 -8 5q-11 0 -22.5 6.5t-11.5 22.5q0 4 6 10t29 12l54 14q5 -1 10 2q10 3 23 19q33 32 61 58q24 23 47.5 43t33.5 25q2 1 4 3q5 5 5 7q0 3 -7 3q-5 0 -9 -1q-27 -4 -56 -8q-25 -3 -55 -5t-59 -2q-45 0 -70 7.5t-37 16.5q-14 11 -17 25q0 15 20 26l117 46
q1 0 3 1q2 0 3 0.5t3 0.5q4 0 8 -1.5t9 -6.5q1 -2 4 -3q4 -3 12 -3q5 0 38 8.5t87 19t124.5 19t150.5 8.5q43 0 89 -2.5t84 -11t62 -25t24 -44.5z" />
    <glyph glyph-name="Eacute" unicode="&#xc9;" horiz-adv-x="493" 
d="M673 789q0 -5 -0.5 -9t-0.5 -7q-1 -4 -1 -7q-17 -33 -48 -54.5t-62.5 -33.5t-56 -17t-28.5 -5q-8 0 -11.5 5t-3.5 10t2.5 9t5.5 8l9 9q37 22 62 45.5t41 43.5q18 23 29 44q6 8 11 11t10 3q12 0 20 -6t13 -14t7 -18t2 -17zM854 546q0 -5 -3.5 -8.5t-14.5 -4.5
q-73 -3 -145 -7q-62 -4 -133 -10t-131 -15q-4 0 -8 -2q-8 -4 -8 -9q0 -3 1 -5q0 -1 -1 -3q-2 -4 -7 -9l-113 -121l-4 -4q-3 -3 -3 -7q0 -3 4 -3q1 0 11 2q19 1 39 2q17 1 38 1.5t41 0.5q23 0 41.5 -1t23.5 -5l9 -6.5t20.5 -15.5t20.5 -19t9 -18q0 -6 -3.5 -10t-18.5 -6
q-75 -8 -137 -13q-27 -3 -53.5 -5t-49 -4t-39 -3t-23.5 -1h-3q-2 0 -3.5 0.5t-3.5 0.5q-7 0 -17.5 -7t-18.5 -18l-122 -162q-2 -3 -3 -5q-2 -6 -2 -7q0 -3 3 -3q5 0 13 4q27 3 60 7q28 3 63.5 5.5t75.5 2.5q24 0 49 -1t49 -4q4 0 14.5 -2t26 -10t35 -24t42.5 -45l2 -4l2 -4
t1 -4q0 -3 -3 -5t-12 -2q-72 0 -141 -1q-60 -1 -124.5 -3t-113.5 -6q-2 -1 -4 -1h-9q-13 0 -30.5 3.5t-28.5 16.5q-1 1 -2 3q-2 1 -3.5 2t-3.5 1q-3 0 -7.5 -2t-10.5 -10l-1 -1q-1 -1 -2 -1q-2 0 -8.5 3.5t-14 11t-13 18.5t-5.5 26t7 30q15 34 36 69q18 30 44 65.5t60 67.5
q1 1 2 3t2 3t1 3q0 5 -8 5q-11 0 -22.5 6.5t-11.5 22.5q0 4 6 10t29 12l54 14q5 -1 10 2q10 3 23 19q33 32 61 58q24 23 47.5 43t33.5 25q2 1 4 3q5 5 5 7q0 3 -7 3q-5 0 -9 -1q-27 -4 -56 -8q-25 -3 -55 -5t-59 -2q-45 0 -70 7.5t-37 16.5q-14 11 -17 25q0 15 20 26l117 46
q1 0 3 1q2 0 3 0.5t3 0.5q4 0 8 -1.5t9 -6.5q1 -2 4 -3q4 -3 12 -3q5 0 38 8.5t87 19t124.5 19t150.5 8.5q43 0 89 -2.5t84 -11t62 -25t24 -44.5z" />
    <glyph glyph-name="Ecircumflex" unicode="&#xca;" horiz-adv-x="493" 
d="M680 686q-1 -8 -12 -10t-19 -2q-10 0 -23 12.5t-24.5 27.5t-19.5 29t-8 17q-22 -18 -51.5 -33.5t-59.5 -26.5t-55.5 -17.5t-40.5 -6.5q-12 0 -18 5t-6 10t2 9t4 7t7 3q39 8 75.5 30.5t66 46.5t50 42.5t28.5 18.5q13 0 24 -6.5t11 -7.5q5 2 9 2h9q17 -2 23 -6.5t6 -11.5
l-7 -31q0 -17 4.5 -34.5t10 -32t10 -24t4.5 -10.5zM854 546q0 -5 -3.5 -8.5t-14.5 -4.5q-73 -3 -145 -7q-62 -4 -133 -10t-131 -15q-4 0 -8 -2q-8 -4 -8 -9q0 -3 1 -5q0 -1 -1 -3q-2 -4 -7 -9l-113 -121l-4 -4q-3 -3 -3 -7q0 -3 4 -3q1 0 11 2q19 1 39 2q17 1 38 1.5t41 0.5
q23 0 41.5 -1t23.5 -5l9 -6.5t20.5 -15.5t20.5 -19t9 -18q0 -6 -3.5 -10t-18.5 -6q-75 -8 -137 -13q-27 -3 -53.5 -5t-49 -4t-39 -3t-23.5 -1h-3q-2 0 -3.5 0.5t-3.5 0.5q-7 0 -17.5 -7t-18.5 -18l-122 -162q-2 -3 -3 -5q-2 -6 -2 -7q0 -3 3 -3q5 0 13 4q27 3 60 7
q28 3 63.5 5.5t75.5 2.5q24 0 49 -1t49 -4q4 0 14.5 -2t26 -10t35 -24t42.5 -45l2 -4l2 -4t1 -4q0 -3 -3 -5t-12 -2q-72 0 -141 -1q-60 -1 -124.5 -3t-113.5 -6q-2 -1 -4 -1h-9q-13 0 -30.5 3.5t-28.5 16.5q-1 1 -2 3q-2 1 -3.5 2t-3.5 1q-3 0 -7.5 -2t-10.5 -10l-1 -1
q-1 -1 -2 -1q-2 0 -8.5 3.5t-14 11t-13 18.5t-5.5 26t7 30q15 34 36 69q18 30 44 65.5t60 67.5q1 1 2 3t2 3t1 3q0 5 -8 5q-11 0 -22.5 6.5t-11.5 22.5q0 4 6 10t29 12l54 14q5 -1 10 2q10 3 23 19q33 32 61 58q24 23 47.5 43t33.5 25q2 1 4 3q5 5 5 7q0 3 -7 3q-5 0 -9 -1
q-27 -4 -56 -8q-25 -3 -55 -5t-59 -2q-45 0 -70 7.5t-37 16.5q-14 11 -17 25q0 15 20 26l117 46q1 0 3 1q2 0 3 0.5t3 0.5q4 0 8 -1.5t9 -6.5q1 -2 4 -3q4 -3 12 -3q5 0 38 8.5t87 19t124.5 19t150.5 8.5q43 0 89 -2.5t84 -11t62 -25t24 -44.5z" />
    <glyph glyph-name="Edieresis" unicode="&#xcb;" horiz-adv-x="493" 
d="M679 756q0 -5 -1 -9.5t-6 -9.5q-13 -17 -29 -30q-14 -11 -31 -20t-37 -9q-5 1 -9 4q-9 5 -9 18q0 16 11 32t26.5 28t31.5 19.5t26 7.5q2 -1 5 -1q2 -1 4 -1t4 -2q8 -10 11 -15.5t3 -11.5zM512 756q0 -5 -1 -9.5t-6 -9.5q-13 -17 -29 -30q-14 -11 -31 -20t-37 -9
q-5 1 -9 4q-9 5 -9 18q0 16 11 32t26.5 28t31.5 19.5t26 7.5q2 -1 5 -1q2 -1 4 -1t4 -2q8 -10 11 -15.5t3 -11.5zM854 546q0 -5 -3.5 -8.5t-14.5 -4.5q-73 -3 -145 -7q-62 -4 -133 -10t-131 -15q-4 0 -8 -2q-8 -4 -8 -9q0 -3 1 -5q0 -1 -1 -3q-2 -4 -7 -9l-113 -121l-4 -4
q-3 -3 -3 -7q0 -3 4 -3q1 0 11 2q19 1 39 2q17 1 38 1.5t41 0.5q23 0 41.5 -1t23.5 -5l9 -6.5t20.5 -15.5t20.5 -19t9 -18q0 -6 -3.5 -10t-18.5 -6q-75 -8 -137 -13q-27 -3 -53.5 -5t-49 -4t-39 -3t-23.5 -1h-3q-2 0 -3.5 0.5t-3.5 0.5q-7 0 -17.5 -7t-18.5 -18l-122 -162
q-2 -3 -3 -5q-2 -6 -2 -7q0 -3 3 -3q5 0 13 4q27 3 60 7q28 3 63.5 5.5t75.5 2.5q24 0 49 -1t49 -4q4 0 14.5 -2t26 -10t35 -24t42.5 -45l2 -4l2 -4t1 -4q0 -3 -3 -5t-12 -2q-72 0 -141 -1q-60 -1 -124.5 -3t-113.5 -6q-2 -1 -4 -1h-9q-13 0 -30.5 3.5t-28.5 16.5q-1 1 -2 3
q-2 1 -3.5 2t-3.5 1q-3 0 -7.5 -2t-10.5 -10l-1 -1q-1 -1 -2 -1q-2 0 -8.5 3.5t-14 11t-13 18.5t-5.5 26t7 30q15 34 36 69q18 30 44 65.5t60 67.5q1 1 2 3t2 3t1 3q0 5 -8 5q-11 0 -22.5 6.5t-11.5 22.5q0 4 6 10t29 12l54 14q5 -1 10 2q10 3 23 19q33 32 61 58
q24 23 47.5 43t33.5 25q2 1 4 3q5 5 5 7q0 3 -7 3q-5 0 -9 -1q-27 -4 -56 -8q-25 -3 -55 -5t-59 -2q-45 0 -70 7.5t-37 16.5q-14 11 -17 25q0 15 20 26l117 46q1 0 3 1q2 0 3 0.5t3 0.5q4 0 8 -1.5t9 -6.5q1 -2 4 -3q4 -3 12 -3q5 0 38 8.5t87 19t124.5 19t150.5 8.5
q43 0 89 -2.5t84 -11t62 -25t24 -44.5z" />
    <glyph glyph-name="Igrave" unicode="&#xcc;" horiz-adv-x="385" 
d="M560 769q-2 -4 -6 -7.5t-10 -3.5q-5 1 -28 12t-50 31t-51.5 49t-32.5 65q0 -2 1 8.5t5.5 23t14 23.5t26.5 11q6 0 13.5 -2.5t14.5 -17.5q5 -24 17 -50q10 -23 28.5 -52.5t47.5 -60.5q2 -5 5 -9q2 -4 3.5 -9.5t1.5 -10.5zM646 648q0 -36 -26.5 -86.5t-71 -109.5
t-102 -121.5t-119 -122t-123.5 -111.5t-114 -89q-27 -20 -55 -35q-24 -13 -53 -23.5t-56 -10.5q-4 0 -8.5 0.5t-11.5 3.5t-18.5 8.5t-28.5 14.5q-3 1 -5 4q-5 5 -5 11q0 5 7.5 10t28.5 7q27 3 72.5 28.5t101.5 66.5t118 93.5t123.5 108.5t117 112t98 104t67.5 84.5t25 53.5
q0 8 -8 8q-25 0 -71.5 -19.5t-101.5 -50.5t-113 -70.5t-105 -80t-77 -78.5t-30 -66q0 -2 3 -2q13 0 44 18.5t66.5 45t68.5 54.5t50 48q5 5 9.5 7.5t6.5 2.5t4 -1q4 -2 4 -7q0 -4 -10.5 -23t-29 -46t-43.5 -57t-54 -55.5t-61.5 -42t-64.5 -16.5q-18 0 -30 9t-19 22.5t-10 28
t-3 25.5q0 48 27.5 97.5t71.5 96t100 87.5t114 71.5t112 48t94 17.5q16 0 33 -3t30.5 -11t22 -22t8.5 -37z" />
    <glyph glyph-name="Iacute" unicode="&#xcd;" horiz-adv-x="385" 
d="M686 886q0 -5 -0.5 -9t-0.5 -7q-1 -4 -1 -7q-17 -33 -48 -54.5t-62.5 -33.5t-56 -17t-28.5 -5q-8 0 -11.5 5t-3.5 10t2.5 9t5.5 8l9 9q37 22 62 45.5t41 43.5q18 23 29 44q6 8 11 11t10 3q12 0 20 -6t13 -14t7 -18t2 -17zM646 648q0 -36 -26.5 -86.5t-71 -109.5
t-102 -121.5t-119 -122t-123.5 -111.5t-114 -89q-27 -20 -55 -35q-24 -13 -53 -23.5t-56 -10.5q-4 0 -8.5 0.5t-11.5 3.5t-18.5 8.5t-28.5 14.5q-3 1 -5 4q-5 5 -5 11q0 5 7.5 10t28.5 7q27 3 72.5 28.5t101.5 66.5t118 93.5t123.5 108.5t117 112t98 104t67.5 84.5t25 53.5
q0 8 -8 8q-25 0 -71.5 -19.5t-101.5 -50.5t-113 -70.5t-105 -80t-77 -78.5t-30 -66q0 -2 3 -2q13 0 44 18.5t66.5 45t68.5 54.5t50 48q5 5 9.5 7.5t6.5 2.5t4 -1q4 -2 4 -7q0 -4 -10.5 -23t-29 -46t-43.5 -57t-54 -55.5t-61.5 -42t-64.5 -16.5q-18 0 -30 9t-19 22.5t-10 28
t-3 25.5q0 48 27.5 97.5t71.5 96t100 87.5t114 71.5t112 48t94 17.5q16 0 33 -3t30.5 -11t22 -22t8.5 -37z" />
    <glyph glyph-name="Icircumflex" unicode="&#xce;" horiz-adv-x="385" 
d="M723 765q-1 -8 -12 -10t-19 -2q-10 0 -23 12.5t-24.5 27.5t-19.5 29t-8 17q-22 -18 -51.5 -33.5t-59.5 -26.5t-55.5 -17.5t-40.5 -6.5q-12 0 -18 5t-6 10t2 9t4 7t7 3q39 8 75.5 30.5t66 46.5t50 42.5t28.5 18.5q13 0 24 -6.5t11 -7.5q5 2 9 2h9q17 -2 23 -6.5t6 -11.5
l-7 -31q0 -17 4.5 -34.5t10 -32t10 -24t4.5 -10.5zM646 648q0 -36 -26.5 -86.5t-71 -109.5t-102 -121.5t-119 -122t-123.5 -111.5t-114 -89q-27 -20 -55 -35q-24 -13 -53 -23.5t-56 -10.5q-4 0 -8.5 0.5t-11.5 3.5t-18.5 8.5t-28.5 14.5q-3 1 -5 4q-5 5 -5 11q0 5 7.5 10
t28.5 7q27 3 72.5 28.5t101.5 66.5t118 93.5t123.5 108.5t117 112t98 104t67.5 84.5t25 53.5q0 8 -8 8q-25 0 -71.5 -19.5t-101.5 -50.5t-113 -70.5t-105 -80t-77 -78.5t-30 -66q0 -2 3 -2q13 0 44 18.5t66.5 45t68.5 54.5t50 48q5 5 9.5 7.5t6.5 2.5t4 -1q4 -2 4 -7
q0 -4 -10.5 -23t-29 -46t-43.5 -57t-54 -55.5t-61.5 -42t-64.5 -16.5q-18 0 -30 9t-19 22.5t-10 28t-3 25.5q0 48 27.5 97.5t71.5 96t100 87.5t114 71.5t112 48t94 17.5q16 0 33 -3t30.5 -11t22 -22t8.5 -37z" />
    <glyph glyph-name="Idieresis" unicode="&#xcf;" horiz-adv-x="385" 
d="M685 832q0 -5 -1 -9.5t-6 -9.5q-13 -17 -29 -30q-14 -11 -31 -20t-37 -9q-5 1 -9 4q-9 5 -9 18q0 16 11 32t26.5 28t31.5 19.5t26 7.5q2 -1 5 -1q2 -1 4 -1t4 -2q8 -10 11 -15.5t3 -11.5zM518 832q0 -5 -1 -9.5t-6 -9.5q-13 -17 -29 -30q-14 -11 -31 -20t-37 -9
q-5 1 -9 4q-9 5 -9 18q0 16 11 32t26.5 28t31.5 19.5t26 7.5q2 -1 5 -1q2 -1 4 -1t4 -2q8 -10 11 -15.5t3 -11.5zM646 648q0 -36 -26.5 -86.5t-71 -109.5t-102 -121.5t-119 -122t-123.5 -111.5t-114 -89q-27 -20 -55 -35q-24 -13 -53 -23.5t-56 -10.5q-4 0 -8.5 0.5
t-11.5 3.5t-18.5 8.5t-28.5 14.5q-3 1 -5 4q-5 5 -5 11q0 5 7.5 10t28.5 7q27 3 72.5 28.5t101.5 66.5t118 93.5t123.5 108.5t117 112t98 104t67.5 84.5t25 53.5q0 8 -8 8q-25 0 -71.5 -19.5t-101.5 -50.5t-113 -70.5t-105 -80t-77 -78.5t-30 -66q0 -2 3 -2q13 0 44 18.5
t66.5 45t68.5 54.5t50 48q5 5 9.5 7.5t6.5 2.5t4 -1q4 -2 4 -7q0 -4 -10.5 -23t-29 -46t-43.5 -57t-54 -55.5t-61.5 -42t-64.5 -16.5q-18 0 -30 9t-19 22.5t-10 28t-3 25.5q0 48 27.5 97.5t71.5 96t100 87.5t114 71.5t112 48t94 17.5q16 0 33 -3t30.5 -11t22 -22t8.5 -37z
" />
    <glyph glyph-name="Eth" unicode="&#xd0;" horiz-adv-x="776" 
d="M895 434q1 -40 -21 -92.5t-60.5 -108t-92 -109t-117 -96t-134.5 -69t-144 -26.5q-18 2 -32 12q-12 8 -22 24t-10 45q2 10 6 21q4 9 10 19.5t15 19.5l4 4q4 4 4 6h-1q-3 0 -10 -5l-181 -135q-5 -6 -11 -10q-5 -4 -11.5 -7t-12.5 -3q-5 0 -11 3l-24 23l-2 2q-1 1 -1 7
q0 4 2 10.5t7 16.5q4 8 20 34.5t44.5 66t69 90t92.5 106.5t116 115t140 115q6 6 13 10q6 4 12.5 7t14.5 3q5 0 10 -3l10 -6q8 -5 12 -11v-1q0 -1 0.5 -2t0.5 -2q0 -6 -5 -10l-70 -68q-69 -72 -131 -138q-26 -28 -53 -57.5t-51.5 -57t-44.5 -51.5t-32 -41q-8 -11 -8 -14
q0 -2 2 -2q3 0 6 3q23 15 51 32q24 14 55.5 31t67.5 34q1 1 4 2q4 2 9 2t8 -4l19 -23l2 -4q2 -4 2 -8q0 -5 -4 -8q0 -1 -11 -11.5t-24.5 -25t-24.5 -28.5t-12 -21q0 -2 1 -3q2 -2 4 -2q30 0 77 20.5t100 53.5t107 75.5t97.5 87t70.5 87.5t27 77q0 9 -10 28t-36.5 38.5
t-72 34t-117.5 14.5q-71 0 -138.5 -14.5t-127 -37.5t-110 -50.5t-86.5 -53.5t-56 -48t-20 -32q0 -3 3 -3q11 0 29.5 6t41.5 15.5t47.5 22t46.5 25t40 24t27 20.5q7 5 13 9q5 3 10.5 6t8.5 3q4 0 4 -11q0 -3 -9.5 -17t-26.5 -34.5t-40.5 -43.5t-51.5 -42t-59 -32t-64 -13
q-8 0 -23 6t-29.5 17.5t-25.5 29t-11 40.5q0 42 28 80.5t74.5 72t107 61t125 47t128 30t117.5 10.5q68 0 118 -12.5t85.5 -32t58 -44t35 -47.5t17.5 -43t5 -31zM532 260q0 -3 -3.5 -6t-16.5 -5q-93 -20 -174 -36q-35 -7 -70 -13.5t-66 -12t-56 -9.5t-39 -4q-10 -1 -19 4.5
t-11 13.5q0 1 5 6.5t28 10.5l294 70q21 5 38 7t27 2l9.5 -3t21 -7t21.5 -9t11 -9z" />
    <glyph glyph-name="Ntilde" unicode="&#xd1;" horiz-adv-x="503" 
d="M936 792q0 -4 -7 -16t-22 -25.5t-39 -24t-59 -10.5q-15 0 -31 6t-33.5 13.5t-36.5 13.5t-40 5q-22 -1 -44.5 -11t-38.5 -10q-6 0 -6 2q0 6 8 13q22 18 45 32q20 12 44 22t47 10q12 0 26.5 -6.5t32 -14.5t39.5 -14.5t49 -6.5q8 0 16.5 5t16 11t12.5 11t6 5q6 0 10.5 -2
t4.5 -8zM970 651q0 -2 -2 -4.5t-9 -6.5q-59 -33 -134 -98.5t-154 -148.5t-155.5 -175.5t-139.5 -179.5q-20 -33 -34 -51.5t-25.5 -27.5t-22 -10.5t-22.5 -1.5q-24 0 -38 27t-14 83q0 20 4 45t15 53q21 54 43 104q19 43 42 88t46 76q9 15 17 26q6 10 11.5 18.5t5.5 10.5
q0 3 -12 -12q-71 -91 -136 -171q-28 -34 -57.5 -69t-58 -67t-54.5 -59t-46 -44q-53 -56 -107 -105q-46 -43 -99 -86t-99 -68q-5 -4 -11 -7q-12 -7 -28 -7q-6 0 -17.5 4t-23 10.5t-20.5 16.5t-9 22q0 11 12 20l164 138l8 6q3 2 6.5 4.5t5.5 2.5t2 -2q0 -14 -18 -31t-44 -44
q-5 -5 -8.5 -9.5t-3.5 -6.5t2 -2t10 6q40 28 92.5 74t111 102.5t120 119t119.5 124.5q136 144 281 309q9 7 20 12q10 5 22.5 8.5t29.5 3.5q8 0 19.5 -2.5t11.5 -12.5q0 -6 -9 -18q-8 -19 -29.5 -57t-49 -87.5t-58 -105.5t-55.5 -110.5t-41.5 -102.5t-16.5 -81q0 -8 4 -8
q6 0 20 20q1 3 23 39.5t58.5 91t84.5 119t102 122.5t109.5 102t108.5 58q28 4 53 8q21 3 42 5.5t32 2.5q0 -1 1 -1z" />
    <glyph glyph-name="Ograve" unicode="&#xd2;" horiz-adv-x="497" 
d="M669 723q-2 -4 -6 -7.5t-10 -3.5q-5 1 -28 12t-50 31t-51.5 49t-32.5 65q0 -2 1 8.5t5.5 23t14 23.5t26.5 11q6 0 13.5 -2.5t14.5 -17.5q5 -24 17 -50q10 -23 28.5 -52.5t47.5 -60.5q2 -5 5 -9q2 -4 3.5 -9.5t1.5 -10.5zM746 627q0 -24 -17.5 -65.5t-48.5 -94t-73 -111
t-91 -116.5t-102 -110.5t-106 -93t-104 -64.5t-95 -24q-21 0 -43.5 9.5t-41 28.5t-30.5 45.5t-12 61.5q0 42 23 99t62.5 117.5t93 119.5t114.5 106t126 75.5t128 28.5q8 0 16.5 -1t16.5 -3q21 12 42 23q18 8 39.5 15.5t40.5 7.5q23 0 35.5 -8.5t18.5 -18.5t7 -18.5zM681 602
q0 3 -4 3q-25 0 -60.5 -19t-74.5 -48t-77.5 -62.5t-69.5 -62.5t-50.5 -49.5t-20.5 -21.5q-9 -13 -13 -13q-2 0 -2 5q0 7 1 10q0 3 1 5q4 14 18 39t29 48q18 27 39 58q7 13 7 16q0 2 -2 2q-3 0 -7 -3t-9 -6q-5 -4 -11 -8q-100 -90 -159.5 -169t-91 -140t-41 -99t-9.5 -47
q0 -10 2.5 -13t6.5 -3q21 0 57.5 22t82.5 58.5t97.5 84t102.5 98.5t97.5 101.5t82.5 93.5t57 75t21 45z" />
    <glyph glyph-name="Oacute" unicode="&#xd3;" horiz-adv-x="497" 
d="M716 842q0 -5 -0.5 -9t-0.5 -7q-1 -4 -1 -7q-17 -33 -48 -54.5t-62.5 -33.5t-56 -17t-28.5 -5q-8 0 -11.5 5t-3.5 10t2.5 9t5.5 8l9 9q37 22 62 45.5t41 43.5q18 23 29 44q6 8 11 11t10 3q12 0 20 -6t13 -14t7 -18t2 -17zM746 627q0 -24 -17.5 -65.5t-48.5 -94t-73 -111
t-91 -116.5t-102 -110.5t-106 -93t-104 -64.5t-95 -24q-21 0 -43.5 9.5t-41 28.5t-30.5 45.5t-12 61.5q0 42 23 99t62.5 117.5t93 119.5t114.5 106t126 75.5t128 28.5q8 0 16.5 -1t16.5 -3q21 12 42 23q18 8 39.5 15.5t40.5 7.5q23 0 35.5 -8.5t18.5 -18.5t7 -18.5zM681 602
q0 3 -4 3q-25 0 -60.5 -19t-74.5 -48t-77.5 -62.5t-69.5 -62.5t-50.5 -49.5t-20.5 -21.5q-9 -13 -13 -13q-2 0 -2 5q0 7 1 10q0 3 1 5q4 14 18 39t29 48q18 27 39 58q7 13 7 16q0 2 -2 2q-3 0 -7 -3t-9 -6q-5 -4 -11 -8q-100 -90 -159.5 -169t-91 -140t-41 -99t-9.5 -47
q0 -10 2.5 -13t6.5 -3q21 0 57.5 22t82.5 58.5t97.5 84t102.5 98.5t97.5 101.5t82.5 93.5t57 75t21 45z" />
    <glyph glyph-name="Ocircumflex" unicode="&#xd4;" horiz-adv-x="497" 
d="M797 720q-1 -8 -12 -10t-19 -2q-10 0 -23 12.5t-24.5 27.5t-19.5 29t-8 17q-22 -18 -51.5 -33.5t-59.5 -26.5t-55.5 -17.5t-40.5 -6.5q-12 0 -18 5t-6 10t2 9t4 7t7 3q39 8 75.5 30.5t66 46.5t50 42.5t28.5 18.5q13 0 24 -6.5t11 -7.5q5 2 9 2h9q17 -2 23 -6.5t6 -11.5
l-7 -31q0 -17 4.5 -34.5t10 -32t10 -24t4.5 -10.5zM746 627q0 -24 -17.5 -65.5t-48.5 -94t-73 -111t-91 -116.5t-102 -110.5t-106 -93t-104 -64.5t-95 -24q-21 0 -43.5 9.5t-41 28.5t-30.5 45.5t-12 61.5q0 42 23 99t62.5 117.5t93 119.5t114.5 106t126 75.5t128 28.5
q8 0 16.5 -1t16.5 -3q21 12 42 23q18 8 39.5 15.5t40.5 7.5q23 0 35.5 -8.5t18.5 -18.5t7 -18.5zM681 602q0 3 -4 3q-25 0 -60.5 -19t-74.5 -48t-77.5 -62.5t-69.5 -62.5t-50.5 -49.5t-20.5 -21.5q-9 -13 -13 -13q-2 0 -2 5q0 7 1 10q0 3 1 5q4 14 18 39t29 48q18 27 39 58
q7 13 7 16q0 2 -2 2q-3 0 -7 -3t-9 -6q-5 -4 -11 -8q-100 -90 -159.5 -169t-91 -140t-41 -99t-9.5 -47q0 -10 2.5 -13t6.5 -3q21 0 57.5 22t82.5 58.5t97.5 84t102.5 98.5t97.5 101.5t82.5 93.5t57 75t21 45z" />
    <glyph glyph-name="Otilde" unicode="&#xd5;" horiz-adv-x="497" 
d="M864 811q0 -4 -7 -16t-22 -25.5t-39 -24t-59 -10.5q-15 0 -31 6t-33.5 13.5t-36.5 13.5t-40 5q-22 -1 -44.5 -11t-38.5 -10q-6 0 -6 2q0 6 8 13q22 18 45 32q20 12 44 22t47 10q12 0 26.5 -6.5t32 -14.5t39.5 -14.5t49 -6.5q8 0 16.5 5t16 11t12.5 11t6 5q6 0 10.5 -2
t4.5 -8zM746 627q0 -24 -17.5 -65.5t-48.5 -94t-73 -111t-91 -116.5t-102 -110.5t-106 -93t-104 -64.5t-95 -24q-21 0 -43.5 9.5t-41 28.5t-30.5 45.5t-12 61.5q0 42 23 99t62.5 117.5t93 119.5t114.5 106t126 75.5t128 28.5q8 0 16.5 -1t16.5 -3q21 12 42 23
q18 8 39.5 15.5t40.5 7.5q23 0 35.5 -8.5t18.5 -18.5t7 -18.5zM681 602q0 3 -4 3q-25 0 -60.5 -19t-74.5 -48t-77.5 -62.5t-69.5 -62.5t-50.5 -49.5t-20.5 -21.5q-9 -13 -13 -13q-2 0 -2 5q0 7 1 10q0 3 1 5q4 14 18 39t29 48q18 27 39 58q7 13 7 16q0 2 -2 2q-3 0 -7 -3
t-9 -6q-5 -4 -11 -8q-100 -90 -159.5 -169t-91 -140t-41 -99t-9.5 -47q0 -10 2.5 -13t6.5 -3q21 0 57.5 22t82.5 58.5t97.5 84t102.5 98.5t97.5 101.5t82.5 93.5t57 75t21 45z" />
    <glyph glyph-name="Odieresis" unicode="&#xd6;" horiz-adv-x="497" 
d="M759 790q0 -5 -1 -9.5t-6 -9.5q-13 -17 -29 -30q-14 -11 -31 -20t-37 -9q-5 1 -9 4q-9 5 -9 18q0 16 11 32t26.5 28t31.5 19.5t26 7.5q2 -1 5 -1q2 -1 4 -1t4 -2q8 -10 11 -15.5t3 -11.5zM592 790q0 -5 -1 -9.5t-6 -9.5q-13 -17 -29 -30q-14 -11 -31 -20t-37 -9
q-5 1 -9 4q-9 5 -9 18q0 16 11 32t26.5 28t31.5 19.5t26 7.5q2 -1 5 -1q2 -1 4 -1t4 -2q8 -10 11 -15.5t3 -11.5zM746 627q0 -24 -17.5 -65.5t-48.5 -94t-73 -111t-91 -116.5t-102 -110.5t-106 -93t-104 -64.5t-95 -24q-21 0 -43.5 9.5t-41 28.5t-30.5 45.5t-12 61.5
q0 42 23 99t62.5 117.5t93 119.5t114.5 106t126 75.5t128 28.5q8 0 16.5 -1t16.5 -3q21 12 42 23q18 8 39.5 15.5t40.5 7.5q23 0 35.5 -8.5t18.5 -18.5t7 -18.5zM681 602q0 3 -4 3q-25 0 -60.5 -19t-74.5 -48t-77.5 -62.5t-69.5 -62.5t-50.5 -49.5t-20.5 -21.5
q-9 -13 -13 -13q-2 0 -2 5q0 7 1 10q0 3 1 5q4 14 18 39t29 48q18 27 39 58q7 13 7 16q0 2 -2 2q-3 0 -7 -3t-9 -6q-5 -4 -11 -8q-100 -90 -159.5 -169t-91 -140t-41 -99t-9.5 -47q0 -10 2.5 -13t6.5 -3q21 0 57.5 22t82.5 58.5t97.5 84t102.5 98.5t97.5 101.5t82.5 93.5
t57 75t21 45z" />
    <glyph glyph-name="Oslash" unicode="&#xd8;" horiz-adv-x="540" 
d="M872 732q-1 -2 -1.5 -4.5t-3.5 -4.5q-22 -20 -42.5 -38.5t-40.5 -36.5q2 -5 2.5 -8.5t1.5 -6.5q1 -4 1 -6q0 -24 -17.5 -65.5t-48.5 -94t-73 -111t-91 -116.5t-102 -110.5t-106 -93t-104 -64.5t-95 -24q-20 0 -40.5 8t-37.5 24q-16 -17 -27 -31t-21 -27q-2 -5 -5 -9
q-5 -9 -14 -9q-4 0 -15 4q-10 0 -10 6q1 5 21 27t54 57q-14 17 -23 41t-9 54q0 42 23 99t62.5 117.5t93 119.5t114.5 106t126 75.5t128 28.5q8 0 16.5 -1t16.5 -3q21 12 42 23q18 8 39.5 15.5t40.5 7.5q26 0 41 -12q39 32 65.5 51t35.5 19l3 -7v0zM684 597
q-28 -11 -62.5 -34t-69.5 -50.5t-68 -57.5t-58.5 -54.5t-41.5 -41t-17 -17.5q-9 -13 -13 -13q-2 0 -2 5q0 7 1 10q0 3 1 5q4 14 18 39t29 48q18 27 39 58q7 13 7 16q0 2 -2 2q-3 0 -7 -3t-9 -6q-5 -4 -11 -8q-86 -77 -141.5 -146t-88.5 -125.5t-48.5 -98.5t-19.5 -64
q57 57 128 126.5t147 142t150.5 142t138.5 125.5zM721 590q-133 -121 -231.5 -211.5t-170.5 -157.5t-120 -113.5t-80 -79.5q1 -4 7 -4q20 0 54.5 20t77.5 54t92 78.5t98 92.5t95 97.5t83 92.5t62.5 77.5t32.5 53.5z" />
    <glyph glyph-name="Ugrave" unicode="&#xd9;" horiz-adv-x="573" 
d="M742 687q-2 -4 -6 -7.5t-10 -3.5q-5 1 -28 12t-50 31t-51.5 49t-32.5 65q0 -2 1 8.5t5.5 23t14 23.5t26.5 11q6 0 13.5 -2.5t14.5 -17.5q5 -24 17 -50q10 -23 28.5 -52.5t47.5 -60.5q2 -5 5 -9q2 -4 3.5 -9.5t1.5 -10.5zM909 640q0 -6 -10 -17l-236 -243
q-2 -3 -15.5 -17.5t-32 -37t-40 -53t-39.5 -65.5t-30 -73.5t-12 -77.5q0 -36 3.5 -70.5t9.5 -63t13 -48.5t14 -27q0 -3 -7 -3q-37 0 -63 21.5t-43 53t-25 68.5t-8 69q0 26 4.5 48t13 44.5t20.5 48.5t26 60q0 1 -2 1q-5 0 -24 -21.5t-48.5 -53t-68 -69t-83.5 -69t-95 -53
t-102 -21.5q-30 0 -46.5 7t-24.5 17.5t-9.5 22t-1.5 21.5q0 34 21.5 73.5t57 82t80.5 86.5t92 86.5t92 81.5t80.5 72t57.5 58.5t22 40.5q0 10 -15 10q-51 0 -107.5 -18.5t-113 -50.5t-110 -74t-99.5 -89q-9 -9 -14 -9q-3 0 -3 5q0 4 1 6q0 2 1 4q30 79 84 133t113.5 88
t114 49t85.5 15q78 0 115.5 -25.5t37.5 -70.5q0 -27 -32.5 -67.5t-81 -87.5t-105.5 -96.5t-106 -95.5t-81.5 -84.5t-32.5 -62.5q0 -4 4 -4q28 0 89.5 36t143.5 98t177.5 143.5t190.5 173.5l123 119q2 5 6 9q3 3 6.5 6t8.5 3q4 0 9 -3q17 -11 33.5 -20.5t16.5 -19.5z" />
    <glyph glyph-name="Uacute" unicode="&#xda;" horiz-adv-x="573" 
d="M820 816q0 -5 -0.5 -9t-0.5 -7q-1 -4 -1 -7q-17 -33 -48 -54.5t-62.5 -33.5t-56 -17t-28.5 -5q-8 0 -11.5 5t-3.5 10t2.5 9t5.5 8l9 9q37 22 62 45.5t41 43.5q18 23 29 44q6 8 11 11t10 3q12 0 20 -6t13 -14t7 -18t2 -17zM909 640q0 -6 -10 -17l-236 -243
q-2 -3 -15.5 -17.5t-32 -37t-40 -53t-39.5 -65.5t-30 -73.5t-12 -77.5q0 -36 3.5 -70.5t9.5 -63t13 -48.5t14 -27q0 -3 -7 -3q-37 0 -63 21.5t-43 53t-25 68.5t-8 69q0 26 4.5 48t13 44.5t20.5 48.5t26 60q0 1 -2 1q-5 0 -24 -21.5t-48.5 -53t-68 -69t-83.5 -69t-95 -53
t-102 -21.5q-30 0 -46.5 7t-24.5 17.5t-9.5 22t-1.5 21.5q0 34 21.5 73.5t57 82t80.5 86.5t92 86.5t92 81.5t80.5 72t57.5 58.5t22 40.5q0 10 -15 10q-51 0 -107.5 -18.5t-113 -50.5t-110 -74t-99.5 -89q-9 -9 -14 -9q-3 0 -3 5q0 4 1 6q0 2 1 4q30 79 84 133t113.5 88
t114 49t85.5 15q78 0 115.5 -25.5t37.5 -70.5q0 -27 -32.5 -67.5t-81 -87.5t-105.5 -96.5t-106 -95.5t-81.5 -84.5t-32.5 -62.5q0 -4 4 -4q28 0 89.5 36t143.5 98t177.5 143.5t190.5 173.5l123 119q2 5 6 9q3 3 6.5 6t8.5 3q4 0 9 -3q17 -11 33.5 -20.5t16.5 -19.5z" />
    <glyph glyph-name="Ucircumflex" unicode="&#xdb;" horiz-adv-x="573" 
d="M857 727q-1 -8 -12 -10t-19 -2q-10 0 -23 12.5t-24.5 27.5t-19.5 29t-8 17q-22 -18 -51.5 -33.5t-59.5 -26.5t-55.5 -17.5t-40.5 -6.5q-12 0 -18 5t-6 10t2 9t4 7t7 3q39 8 75.5 30.5t66 46.5t50 42.5t28.5 18.5q13 0 24 -6.5t11 -7.5q5 2 9 2h9q17 -2 23 -6.5t6 -11.5
l-7 -31q0 -17 4.5 -34.5t10 -32t10 -24t4.5 -10.5zM909 640q0 -6 -10 -17l-236 -243q-2 -3 -15.5 -17.5t-32 -37t-40 -53t-39.5 -65.5t-30 -73.5t-12 -77.5q0 -36 3.5 -70.5t9.5 -63t13 -48.5t14 -27q0 -3 -7 -3q-37 0 -63 21.5t-43 53t-25 68.5t-8 69q0 26 4.5 48t13 44.5
t20.5 48.5t26 60q0 1 -2 1q-5 0 -24 -21.5t-48.5 -53t-68 -69t-83.5 -69t-95 -53t-102 -21.5q-30 0 -46.5 7t-24.5 17.5t-9.5 22t-1.5 21.5q0 34 21.5 73.5t57 82t80.5 86.5t92 86.5t92 81.5t80.5 72t57.5 58.5t22 40.5q0 10 -15 10q-51 0 -107.5 -18.5t-113 -50.5t-110 -74
t-99.5 -89q-9 -9 -14 -9q-3 0 -3 5q0 4 1 6q0 2 1 4q30 79 84 133t113.5 88t114 49t85.5 15q78 0 115.5 -25.5t37.5 -70.5q0 -27 -32.5 -67.5t-81 -87.5t-105.5 -96.5t-106 -95.5t-81.5 -84.5t-32.5 -62.5q0 -4 4 -4q28 0 89.5 36t143.5 98t177.5 143.5t190.5 173.5l123 119
q2 5 6 9q3 3 6.5 6t8.5 3q4 0 9 -3q17 -11 33.5 -20.5t16.5 -19.5z" />
    <glyph glyph-name="Udieresis" unicode="&#xdc;" horiz-adv-x="573" 
d="M845 798q0 -5 -1 -9.5t-6 -9.5q-13 -17 -29 -30q-14 -11 -31 -20t-37 -9q-5 1 -9 4q-9 5 -9 18q0 16 11 32t26.5 28t31.5 19.5t26 7.5q2 -1 5 -1q2 -1 4 -1t4 -2q8 -10 11 -15.5t3 -11.5zM678 798q0 -5 -1 -9.5t-6 -9.5q-13 -17 -29 -30q-14 -11 -31 -20t-37 -9
q-5 1 -9 4q-9 5 -9 18q0 16 11 32t26.5 28t31.5 19.5t26 7.5q2 -1 5 -1q2 -1 4 -1t4 -2q8 -10 11 -15.5t3 -11.5zM909 640q0 -6 -10 -17l-236 -243q-2 -3 -15.5 -17.5t-32 -37t-40 -53t-39.5 -65.5t-30 -73.5t-12 -77.5q0 -36 3.5 -70.5t9.5 -63t13 -48.5t14 -27q0 -3 -7 -3
q-37 0 -63 21.5t-43 53t-25 68.5t-8 69q0 26 4.5 48t13 44.5t20.5 48.5t26 60q0 1 -2 1q-5 0 -24 -21.5t-48.5 -53t-68 -69t-83.5 -69t-95 -53t-102 -21.5q-30 0 -46.5 7t-24.5 17.5t-9.5 22t-1.5 21.5q0 34 21.5 73.5t57 82t80.5 86.5t92 86.5t92 81.5t80.5 72t57.5 58.5
t22 40.5q0 10 -15 10q-51 0 -107.5 -18.5t-113 -50.5t-110 -74t-99.5 -89q-9 -9 -14 -9q-3 0 -3 5q0 4 1 6q0 2 1 4q30 79 84 133t113.5 88t114 49t85.5 15q78 0 115.5 -25.5t37.5 -70.5q0 -27 -32.5 -67.5t-81 -87.5t-105.5 -96.5t-106 -95.5t-81.5 -84.5t-32.5 -62.5
q0 -4 4 -4q28 0 89.5 36t143.5 98t177.5 143.5t190.5 173.5l123 119q2 5 6 9q3 3 6.5 6t8.5 3q4 0 9 -3q17 -11 33.5 -20.5t16.5 -19.5z" />
    <glyph glyph-name="Yacute" unicode="&#xdd;" horiz-adv-x="602" 
d="M799 777q0 -5 -0.5 -9t-0.5 -7q-1 -4 -1 -7q-17 -33 -48 -54.5t-62.5 -33.5t-56 -17t-28.5 -5q-8 0 -11.5 5t-3.5 10t2.5 9t5.5 8l9 9q37 22 62 45.5t41 43.5q18 23 29 44q6 8 11 11t10 3q12 0 20 -6t13 -14t7 -18t2 -17zM912 622q0 -8 -6 -14l-115 -124
q-51 -58 -111 -133q-51 -64 -119 -153.5t-144 -201.5q-12 -18 -39 -53.5t-64 -78t-82.5 -87t-95.5 -81t-103 -60t-104 -23.5q-5 0 -14 3.5t-17.5 12t-15 21.5t-6.5 32q0 23 16.5 50t44 54t62.5 52t71.5 44.5t72 31t63.5 11.5h4q53 62 100 116l40 46t38 43.5t32.5 37
t22.5 25.5l159 175l8 10q3 4 5 7t1 3q-2 0 -17 -14l-119 -117q-4 -4 -26 -26.5t-56 -54t-76.5 -67t-87 -66t-87.5 -50.5t-78 -20q-12 0 -26.5 5t-26.5 16t-20.5 27.5t-8.5 39.5q0 11 4 31t19 48.5t44 65.5t80 82l267 238l24 24q9 10 16.5 20t7.5 15q0 4 -6 4q-3 0 -43.5 -8
t-104.5 -32.5t-145 -71.5t-165 -125q-3 -4 -7 -7q-7 -7 -15 -7h-3q-4 1 -4 5q0 7 7 16q4 4 8 9q41 68 96 122t114.5 91.5t118.5 57t107 19.5q16 0 35.5 -4t36.5 -15t28.5 -30t11.5 -49q0 -33 -32.5 -77.5t-81.5 -93.5t-105.5 -99t-105.5 -94.5t-81.5 -80.5t-32.5 -57
q0 -2 3 -2q19 0 57.5 21t86 54t100.5 73.5t102 79.5t88.5 71.5t61.5 50.5q8 6 21 17t29.5 25t35 30t36.5 31q42 36 90 78l59 58q2 2 6 5q8 6 16 6q5 0 10 -3l23 -16q1 -1 3 -4q4 -6 4 -11zM192 -91q0 1 -2 1t-4.5 -1t-5.5 -2q-4 -2 -7 -3q-54 -29 -100.5 -68t-81 -76.5
t-54 -67.5t-19.5 -41q0 -3 3 -3t4 1q1 0 2 1q43 25 88.5 67t83.5 83q44 48 85 99q8 8 8 10z" />
    <glyph glyph-name="Thorn" unicode="&#xde;" horiz-adv-x="578" 
d="M782 396q0 -26 -18 -57t-48 -61.5t-69.5 -59t-82 -50.5t-85.5 -35t-80 -13q-6 0 -16 1t-19.5 6.5t-16.5 16.5t-7 32q-67 -90 -131 -193v-3q0 -2 0.5 -3.5t0.5 -3.5q0 -5 -1.5 -9.5t-6.5 -4.5t-13 4t-16 12.5t-14 22t-6 32.5v7.5t1 8.5q3 22 37.5 72t86.5 114t115.5 134.5
t125.5 134.5q-69 -4 -132.5 -20t-118 -38.5t-98.5 -48.5t-75.5 -49.5t-48.5 -42t-17 -25.5q0 -5 7 -5q4 0 24.5 6t52 18t72.5 30.5t85 44.5l4 2q4 2 6 2t2 -2t-9 -14.5t-24 -30.5t-36 -37.5t-44.5 -36.5t-49.5 -28t-51 -11q-14 0 -30.5 5.5t-30 17t-22.5 29.5t-9 42
q0 39 41 89.5t112.5 95.5t168.5 76t209 31q22 0 47 -3.5t51 -11.5q42 41 74 68.5t50 37.5q16 8 24 8q6 0 15.5 -4.5t9.5 -14.5q0 -5 -4 -9q-13 -12 -30 -29l-34 -34t-45 -46q49 -24 83 -65.5t34 -101.5zM744 437q0 14 -13 24.5t-33.5 18t-45 12.5t-47.5 7
q-56 -61 -121.5 -139.5t-133.5 -170.5q29 3 69.5 14.5t84.5 30t87 42.5t77 50.5t55 54.5t21 56z" />
    <glyph glyph-name="germandbls" unicode="&#xdf;" horiz-adv-x="521" 
d="M698 588q0 -26 -15 -66.5t-41.5 -80.5t-62 -72t-75.5 -41q-2 -44 -9 -77t-15 -55.5t-14 -35.5t-6 -17q0 -2 2 -2t8 3q28 14 50 27t43 27t44.5 30.5t53.5 39.5q5 5 11.5 9t12.5 9q2 -2 4 -5q2 -2 3.5 -5t1.5 -7q0 -10 -9 -18q-3 0 -25.5 -20t-57.5 -49.5t-78.5 -63.5
t-86.5 -63.5t-82.5 -49t-67.5 -19.5q-47 0 -70.5 29t-23.5 84l0.5 4t3 8.5t8 8t15.5 3.5q3 -14 11 -25q7 -10 20 -17.5t35 -7.5q31 0 54 25t38 58.5t22 66.5t7 48q0 5 -9.5 8.5t-9.5 14.5q0 8 2.5 18.5t6.5 20t7.5 16.5t5.5 10q2 5 11.5 13t19.5 8q3 0 8 -3q18 4 38 19.5
t39.5 37t37.5 46t32 47.5t22 41t8 27q0 3 -3 3q-9 0 -25.5 -4t-37.5 -14t-44.5 -26t-46.5 -41q-101 -109 -186.5 -209.5t-155.5 -188t-124.5 -160t-93.5 -126.5l1 -5q0 -15 -16.5 -22t-36.5 -7q-19 0 -34.5 6t-15.5 18q0 4 3 10q7 13 16 30t32 49.5t65 86.5t114.5 140.5
t180.5 212t263 300.5q2 6 6 10q3 4 9 7t15 3q6 -1 16 -1.5t20 -3t17.5 -7.5t7.5 -15q18 8 35.5 12.5t34.5 4.5q12 0 22 -7q20 -17 27 -31t7 -32z" />
    <glyph glyph-name="agrave" unicode="&#xe0;" horiz-adv-x="394" 
d="M379 384q-2 -4 -6 -7.5t-10 -3.5q-5 1 -28 12t-50 31t-51.5 49t-32.5 65q0 -2 1 8.5t5.5 23t14 23.5t26.5 11q6 0 13.5 -2.5t14.5 -17.5q5 -24 17 -50q10 -23 28.5 -52.5t47.5 -60.5q2 -5 5 -9q2 -4 3.5 -9.5t1.5 -10.5zM592 285q0 -10 -9 -18q-89 -78 -165 -140
q-32 -26 -64.5 -51.5t-60.5 -45t-49.5 -31.5t-31.5 -12q-17 0 -25.5 11.5t-8.5 43.5q0 7 1 17t2.5 19.5t3 17t1.5 10.5t-1 3q-2 0 -6 -4q-33 -35 -65 -62q-28 -23 -58.5 -42.5t-56.5 -19.5q-12 3 -22 10q-8 6 -15 16.5t-7 29.5q0 20 18 51.5t48 66.5t68.5 70.5t80 64t83 46
t76.5 17.5q11 0 18 -8t12 -19q2 2 6 5q3 2 6.5 3.5t7.5 1.5q5 0 8 -2.5t9 -9.5q5 -1 11.5 -6.5t6.5 -13.5q0 -4 -2.5 -10t-11.5 -14q-35 -43 -60.5 -73t-42.5 -51.5t-25.5 -36.5t-9.5 -28q57 27 139.5 82.5t181.5 128.5q2 -2 4 -5q2 -2 3.5 -5t1.5 -7zM326 286q0 1 -3 1
q-20 0 -46.5 -12.5t-54.5 -32.5t-54.5 -43.5t-47 -46t-33.5 -40.5t-13 -26q0 -2 2 -2q5 0 18 8.5t31.5 22t40 31.5t43.5 36q51 43 113 98q4 4 4 6z" />
    <glyph glyph-name="aacute" unicode="&#xe1;" horiz-adv-x="397" 
d="M533 527q0 -5 -0.5 -9t-0.5 -7q-1 -4 -1 -7q-17 -33 -48 -54.5t-62.5 -33.5t-56 -17t-28.5 -5q-8 0 -11.5 5t-3.5 10t2.5 9t5.5 8l9 9q37 22 62 45.5t41 43.5q18 23 29 44q6 8 11 11t10 3q12 0 20 -6t13 -14t7 -18t2 -17zM592 285q0 -10 -9 -18q-89 -78 -165 -140
q-32 -26 -64.5 -51.5t-60.5 -45t-49.5 -31.5t-31.5 -12q-17 0 -25.5 11.5t-8.5 43.5q0 7 1 17t2.5 19.5t3 17t1.5 10.5t-1 3q-2 0 -6 -4q-33 -35 -65 -62q-28 -23 -58.5 -42.5t-56.5 -19.5q-12 3 -22 10q-8 6 -15 16.5t-7 29.5q0 20 18 51.5t48 66.5t68.5 70.5t80 64t83 46
t76.5 17.5q11 0 18 -8t12 -19q2 2 6 5q3 2 6.5 3.5t7.5 1.5q5 0 8 -2.5t9 -9.5q5 -1 11.5 -6.5t6.5 -13.5q0 -4 -2.5 -10t-11.5 -14q-35 -43 -60.5 -73t-42.5 -51.5t-25.5 -36.5t-9.5 -28q57 27 139.5 82.5t181.5 128.5q2 -2 4 -5q2 -2 3.5 -5t1.5 -7zM326 286q0 1 -3 1
q-20 0 -46.5 -12.5t-54.5 -32.5t-54.5 -43.5t-47 -46t-33.5 -40.5t-13 -26q0 -2 2 -2q5 0 18 8.5t31.5 22t40 31.5t43.5 36q51 43 113 98q4 4 4 6z" />
    <glyph glyph-name="acircumflex" unicode="&#xe2;" horiz-adv-x="397" 
d="M483 383q-1 -8 -12 -10t-19 -2q-10 0 -23 12.5t-24.5 27.5t-19.5 29t-8 17q-22 -18 -51.5 -33.5t-59.5 -26.5t-55.5 -17.5t-40.5 -6.5q-12 0 -18 5t-6 10t2 9t4 7t7 3q39 8 75.5 30.5t66 46.5t50 42.5t28.5 18.5q13 0 24 -6.5t11 -7.5q5 2 9 2h9q17 -2 23 -6.5t6 -11.5
l-7 -31q0 -17 4.5 -34.5t10 -32t10 -24t4.5 -10.5zM592 285q0 -10 -9 -18q-89 -78 -165 -140q-32 -26 -64.5 -51.5t-60.5 -45t-49.5 -31.5t-31.5 -12q-17 0 -25.5 11.5t-8.5 43.5q0 7 1 17t2.5 19.5t3 17t1.5 10.5t-1 3q-2 0 -6 -4q-33 -35 -65 -62q-28 -23 -58.5 -42.5
t-56.5 -19.5q-12 3 -22 10q-8 6 -15 16.5t-7 29.5q0 20 18 51.5t48 66.5t68.5 70.5t80 64t83 46t76.5 17.5q11 0 18 -8t12 -19q2 2 6 5q3 2 6.5 3.5t7.5 1.5q5 0 8 -2.5t9 -9.5q5 -1 11.5 -6.5t6.5 -13.5q0 -4 -2.5 -10t-11.5 -14q-35 -43 -60.5 -73t-42.5 -51.5
t-25.5 -36.5t-9.5 -28q57 27 139.5 82.5t181.5 128.5q2 -2 4 -5q2 -2 3.5 -5t1.5 -7zM326 286q0 1 -3 1q-20 0 -46.5 -12.5t-54.5 -32.5t-54.5 -43.5t-47 -46t-33.5 -40.5t-13 -26q0 -2 2 -2q5 0 18 8.5t31.5 22t40 31.5t43.5 36q51 43 113 98q4 4 4 6z" />
    <glyph glyph-name="atilde" unicode="&#xe3;" horiz-adv-x="396" 
d="M568 461q0 -4 -7 -16t-22 -25.5t-39 -24t-59 -10.5q-15 0 -31 6t-33.5 13.5t-36.5 13.5t-40 5q-22 -1 -44.5 -11t-38.5 -10q-6 0 -6 2q0 6 8 13q22 18 45 32q20 12 44 22t47 10q12 0 26.5 -6.5t32 -14.5t39.5 -14.5t49 -6.5q8 0 16.5 5t16 11t12.5 11t6 5q6 0 10.5 -2
t4.5 -8zM592 285q0 -10 -9 -18q-89 -78 -165 -140q-32 -26 -64.5 -51.5t-60.5 -45t-49.5 -31.5t-31.5 -12q-17 0 -25.5 11.5t-8.5 43.5q0 7 1 17t2.5 19.5t3 17t1.5 10.5t-1 3q-2 0 -6 -4q-33 -35 -65 -62q-28 -23 -58.5 -42.5t-56.5 -19.5q-12 3 -22 10q-8 6 -15 16.5
t-7 29.5q0 20 18 51.5t48 66.5t68.5 70.5t80 64t83 46t76.5 17.5q11 0 18 -8t12 -19q2 2 6 5q3 2 6.5 3.5t7.5 1.5q5 0 8 -2.5t9 -9.5q5 -1 11.5 -6.5t6.5 -13.5q0 -4 -2.5 -10t-11.5 -14q-35 -43 -60.5 -73t-42.5 -51.5t-25.5 -36.5t-9.5 -28q57 27 139.5 82.5t181.5 128.5
q2 -2 4 -5q2 -2 3.5 -5t1.5 -7zM326 286q0 1 -3 1q-20 0 -46.5 -12.5t-54.5 -32.5t-54.5 -43.5t-47 -46t-33.5 -40.5t-13 -26q0 -2 2 -2q5 0 18 8.5t31.5 22t40 31.5t43.5 36q51 43 113 98q4 4 4 6z" />
    <glyph glyph-name="adieresis" unicode="&#xe4;" horiz-adv-x="396" 
d="M525 464q0 -5 -1 -9.5t-6 -9.5q-13 -17 -29 -30q-14 -11 -31 -20t-37 -9q-5 1 -9 4q-9 5 -9 18q0 16 11 32t26.5 28t31.5 19.5t26 7.5q2 -1 5 -1q2 -1 4 -1t4 -2q8 -10 11 -15.5t3 -11.5zM358 464q0 -5 -1 -9.5t-6 -9.5q-13 -17 -29 -30q-14 -11 -31 -20t-37 -9
q-5 1 -9 4q-9 5 -9 18q0 16 11 32t26.5 28t31.5 19.5t26 7.5q2 -1 5 -1q2 -1 4 -1t4 -2q8 -10 11 -15.5t3 -11.5zM592 285q0 -10 -9 -18q-89 -78 -165 -140q-32 -26 -64.5 -51.5t-60.5 -45t-49.5 -31.5t-31.5 -12q-17 0 -25.5 11.5t-8.5 43.5q0 7 1 17t2.5 19.5t3 17
t1.5 10.5t-1 3q-2 0 -6 -4q-33 -35 -65 -62q-28 -23 -58.5 -42.5t-56.5 -19.5q-12 3 -22 10q-8 6 -15 16.5t-7 29.5q0 20 18 51.5t48 66.5t68.5 70.5t80 64t83 46t76.5 17.5q11 0 18 -8t12 -19q2 2 6 5q3 2 6.5 3.5t7.5 1.5q5 0 8 -2.5t9 -9.5q5 -1 11.5 -6.5t6.5 -13.5
q0 -4 -2.5 -10t-11.5 -14q-35 -43 -60.5 -73t-42.5 -51.5t-25.5 -36.5t-9.5 -28q57 27 139.5 82.5t181.5 128.5q2 -2 4 -5q2 -2 3.5 -5t1.5 -7zM326 286q0 1 -3 1q-20 0 -46.5 -12.5t-54.5 -32.5t-54.5 -43.5t-47 -46t-33.5 -40.5t-13 -26q0 -2 2 -2q5 0 18 8.5t31.5 22
t40 31.5t43.5 36q51 43 113 98q4 4 4 6z" />
    <glyph glyph-name="aring" unicode="&#xe5;" horiz-adv-x="402" 
d="M479 468q0 -17 -5 -34.5t-17 -31t-33 -22t-54 -8.5q-19 0 -33.5 13t-14.5 38q0 10 3 27t13.5 33t31 27.5t55.5 11.5q15 -1 27 -7q10 -5 18.5 -16t8.5 -31zM592 285q0 -10 -9 -18q-89 -78 -165 -140q-32 -26 -64.5 -51.5t-60.5 -45t-49.5 -31.5t-31.5 -12
q-17 0 -25.5 11.5t-8.5 43.5q0 7 1 17t2.5 19.5t3 17t1.5 10.5t-1 3q-2 0 -6 -4q-33 -35 -65 -62q-28 -23 -58.5 -42.5t-56.5 -19.5q-12 3 -22 10q-8 6 -15 16.5t-7 29.5q0 20 18 51.5t48 66.5t68.5 70.5t80 64t83 46t76.5 17.5q11 0 18 -8t12 -19q2 2 6 5q3 2 6.5 3.5
t7.5 1.5q5 0 8 -2.5t9 -9.5q5 -1 11.5 -6.5t6.5 -13.5q0 -4 -2.5 -10t-11.5 -14q-35 -43 -60.5 -73t-42.5 -51.5t-25.5 -36.5t-9.5 -28q57 27 139.5 82.5t181.5 128.5q2 -2 4 -5q2 -2 3.5 -5t1.5 -7zM441 455q0 14 -5 22t-21 8q-19 0 -29.5 -2.5t-16 -9t-6.5 -17t-1 -25.5
q0 -8 5 -13.5t10 -7.5q39 0 51.5 9t12.5 36zM326 286q0 1 -3 1q-20 0 -46.5 -12.5t-54.5 -32.5t-54.5 -43.5t-47 -46t-33.5 -40.5t-13 -26q0 -2 2 -2q5 0 18 8.5t31.5 22t40 31.5t43.5 36q51 43 113 98q4 4 4 6z" />
    <glyph glyph-name="ae" unicode="&#xe6;" horiz-adv-x="654" 
d="M876 285q0 -10 -9 -18q-21 -21 -55 -50.5t-75.5 -61t-88 -62.5t-93 -56t-90 -40t-78.5 -15q-68 0 -76 71q-32 -30 -58.5 -50t-40.5 -20q-17 0 -25.5 11.5t-8.5 43.5q0 7 1 17t2.5 19.5t3 17t1.5 10.5t-1 3q-2 0 -6 -4q-33 -35 -65 -62q-28 -23 -58.5 -42.5t-56.5 -19.5
q-12 3 -22 10q-8 6 -15 16.5t-7 29.5q0 20 18 51.5t48 66.5t68.5 70.5t80 64t83 46t76.5 17.5q11 0 18 -8t12 -19q2 2 6 5q3 2 6.5 3.5t7.5 1.5q5 0 8 -2.5t9 -9.5q5 -1 11.5 -6.5t6.5 -13.5q0 -4 -2.5 -10t-11.5 -14q-35 -43 -60.5 -73t-42.5 -51.5t-25.5 -36.5t-9.5 -28
q16 8 29.5 17.5t27.5 20.5q15 42 48.5 83t75 73t85.5 52t79 20q13 0 24.5 -5.5t20.5 -14t14.5 -18.5t5.5 -18q0 -18 -13.5 -37.5t-34.5 -38t-46.5 -35t-49.5 -29t-43.5 -20t-28.5 -7.5q-5 0 -11 3t-11 12q-1 0 -3 1q-4 2 -7 2q-4 0 -10.5 -7.5t-13 -18.5t-11.5 -23.5
t-5 -22.5q0 -14 12 -18q39 0 79.5 11t89 35.5t107.5 62.5t135 92q14 10 29 21t31 22q2 -2 4 -5q2 -2 3.5 -5t1.5 -7zM606 297q0 5 -6 5q-15 0 -40 -17t-49.5 -38t-42.5 -40t-18 -24q0 -2 3 -2q7 0 21.5 7t31.5 18t34.5 24t32 26t24 24t9.5 17zM326 282q0 1 -3 1
q-20 0 -46.5 -12.5t-54.5 -32.5t-54.5 -43.5t-47 -46t-33.5 -40.5t-13 -26q0 -2 2 -2q5 0 18 8.5t31.5 22t40 31.5t43.5 36q51 43 113 98q4 4 4 6z" />
    <glyph glyph-name="ccedilla" unicode="&#xe7;" horiz-adv-x="381" 
d="M572 285q0 -10 -9 -18q-21 -21 -53.5 -49.5t-73 -59t-85.5 -61t-90 -55t-88 -41t-79 -18.5q-6 -15 -17 -30q3 0 6.5 0.5t7.5 0.5q18 0 28.5 -9.5t10.5 -26.5t-9 -31t-24 -24t-33 -16t-36 -6q-9 0 -15.5 2t-6.5 8t5.5 7t10.5 3q23 3 39.5 15.5t16.5 27.5q0 14 -13 14
l-10 -1q-9 0 -9 9q0 7 10 23t16 33q-12 1 -24 5.5t-21 13.5t-15 24.5t-6 38.5q0 40 17.5 76.5t47 68.5t66.5 57.5t76 44t76.5 28.5t67.5 10q24 0 36.5 -6t18.5 -14q7 -9 8 -20q0 -16 -11.5 -34.5t-31 -34.5t-47 -26.5t-60.5 -10.5q-7 0 -16.5 2t-9.5 13q0 6 9 9q17 9 32 20
q13 8 25.5 18.5t18.5 18.5l1 2q0 1 0.5 2.5t0.5 3.5q0 6 -5 6q-47 -7 -90 -35t-76 -62.5t-53 -68.5t-20 -53q0 -21 16 -21q39 0 78 11t85.5 35.5t103.5 62.5t133 92q14 10 29 21t31 22q2 -2 4 -5q2 -2 3.5 -5t1.5 -7z" />
    <glyph glyph-name="egrave" unicode="&#xe8;" horiz-adv-x="364" 
d="M392 384q-2 -4 -6 -7.5t-10 -3.5q-5 1 -28 12t-50 31t-51.5 49t-32.5 65q0 -2 1 8.5t5.5 23t14 23.5t26.5 11q6 0 13.5 -2.5t14.5 -17.5q5 -24 17 -50q10 -23 28.5 -52.5t47.5 -60.5q2 -5 5 -9q2 -4 3.5 -9.5t1.5 -10.5zM586 285q0 -10 -9 -18q-21 -21 -55 -50.5
t-75.5 -61t-88 -62.5t-93 -56t-90 -40t-78.5 -15q-77 0 -77 94q0 31 14.5 63.5t38.5 63.5t55 58t64 47.5t65.5 32.5t59.5 12q13 0 24.5 -5.5t20.5 -14t14.5 -18.5t5.5 -18q0 -18 -13.5 -37.5t-34.5 -38t-46.5 -35t-49.5 -29t-43.5 -20t-28.5 -7.5q-5 0 -11 3t-11 12
q-1 0 -3 1q-4 2 -7 2q-4 0 -10.5 -7.5t-13 -18.5t-11.5 -23.5t-5 -22.5q0 -14 12 -18q39 0 79.5 11t89 35.5t107.5 62.5t135 92q14 10 29 21t31 22q2 -2 4 -5q2 -2 3.5 -5t1.5 -7zM316 297q0 5 -6 5q-15 0 -40 -17t-49.5 -38t-42.5 -40t-18 -24q0 -2 3 -2q7 0 21.5 7
t31.5 18t34.5 24t32 26t24 24t9.5 17z" />
    <glyph glyph-name="eacute" unicode="&#xe9;" horiz-adv-x="364" 
d="M537 527q0 -5 -0.5 -9t-0.5 -7q-1 -4 -1 -7q-17 -33 -48 -54.5t-62.5 -33.5t-56 -17t-28.5 -5q-8 0 -11.5 5t-3.5 10t2.5 9t5.5 8l9 9q37 22 62 45.5t41 43.5q18 23 29 44q6 8 11 11t10 3q12 0 20 -6t13 -14t7 -18t2 -17zM586 285q0 -10 -9 -18q-21 -21 -55 -50.5
t-75.5 -61t-88 -62.5t-93 -56t-90 -40t-78.5 -15q-77 0 -77 94q0 31 14.5 63.5t38.5 63.5t55 58t64 47.5t65.5 32.5t59.5 12q13 0 24.5 -5.5t20.5 -14t14.5 -18.5t5.5 -18q0 -18 -13.5 -37.5t-34.5 -38t-46.5 -35t-49.5 -29t-43.5 -20t-28.5 -7.5q-5 0 -11 3t-11 12
q-1 0 -3 1q-4 2 -7 2q-4 0 -10.5 -7.5t-13 -18.5t-11.5 -23.5t-5 -22.5q0 -14 12 -18q39 0 79.5 11t89 35.5t107.5 62.5t135 92q14 10 29 21t31 22q2 -2 4 -5q2 -2 3.5 -5t1.5 -7zM316 297q0 5 -6 5q-15 0 -40 -17t-49.5 -38t-42.5 -40t-18 -24q0 -2 3 -2q7 0 21.5 7
t31.5 18t34.5 24t32 26t24 24t9.5 17z" />
    <glyph glyph-name="ecircumflex" unicode="&#xea;" horiz-adv-x="364" 
d="M492 383q-1 -8 -12 -10t-19 -2q-10 0 -23 12.5t-24.5 27.5t-19.5 29t-8 17q-22 -18 -51.5 -33.5t-59.5 -26.5t-55.5 -17.5t-40.5 -6.5q-12 0 -18 5t-6 10t2 9t4 7t7 3q39 8 75.5 30.5t66 46.5t50 42.5t28.5 18.5q13 0 24 -6.5t11 -7.5q5 2 9 2h9q17 -2 23 -6.5t6 -11.5
l-7 -31q0 -17 4.5 -34.5t10 -32t10 -24t4.5 -10.5zM586 285q0 -10 -9 -18q-21 -21 -55 -50.5t-75.5 -61t-88 -62.5t-93 -56t-90 -40t-78.5 -15q-77 0 -77 94q0 31 14.5 63.5t38.5 63.5t55 58t64 47.5t65.5 32.5t59.5 12q13 0 24.5 -5.5t20.5 -14t14.5 -18.5t5.5 -18
q0 -18 -13.5 -37.5t-34.5 -38t-46.5 -35t-49.5 -29t-43.5 -20t-28.5 -7.5q-5 0 -11 3t-11 12q-1 0 -3 1q-4 2 -7 2q-4 0 -10.5 -7.5t-13 -18.5t-11.5 -23.5t-5 -22.5q0 -14 12 -18q39 0 79.5 11t89 35.5t107.5 62.5t135 92q14 10 29 21t31 22q2 -2 4 -5q2 -2 3.5 -5t1.5 -7z
M316 297q0 5 -6 5q-15 0 -40 -17t-49.5 -38t-42.5 -40t-18 -24q0 -2 3 -2q7 0 21.5 7t31.5 18t34.5 24t32 26t24 24t9.5 17z" />
    <glyph glyph-name="edieresis" unicode="&#xeb;" horiz-adv-x="364" 
d="M505 464q0 -5 -1 -9.5t-6 -9.5q-13 -17 -29 -30q-14 -11 -31 -20t-37 -9q-5 1 -9 4q-9 5 -9 18q0 16 11 32t26.5 28t31.5 19.5t26 7.5q2 -1 5 -1q2 -1 4 -1t4 -2q8 -10 11 -15.5t3 -11.5zM338 464q0 -5 -1 -9.5t-6 -9.5q-13 -17 -29 -30q-14 -11 -31 -20t-37 -9
q-5 1 -9 4q-9 5 -9 18q0 16 11 32t26.5 28t31.5 19.5t26 7.5q2 -1 5 -1q2 -1 4 -1t4 -2q8 -10 11 -15.5t3 -11.5zM586 285q0 -10 -9 -18q-21 -21 -55 -50.5t-75.5 -61t-88 -62.5t-93 -56t-90 -40t-78.5 -15q-77 0 -77 94q0 31 14.5 63.5t38.5 63.5t55 58t64 47.5t65.5 32.5
t59.5 12q13 0 24.5 -5.5t20.5 -14t14.5 -18.5t5.5 -18q0 -18 -13.5 -37.5t-34.5 -38t-46.5 -35t-49.5 -29t-43.5 -20t-28.5 -7.5q-5 0 -11 3t-11 12q-1 0 -3 1q-4 2 -7 2q-4 0 -10.5 -7.5t-13 -18.5t-11.5 -23.5t-5 -22.5q0 -14 12 -18q39 0 79.5 11t89 35.5t107.5 62.5
t135 92q14 10 29 21t31 22q2 -2 4 -5q2 -2 3.5 -5t1.5 -7zM316 297q0 5 -6 5q-15 0 -40 -17t-49.5 -38t-42.5 -40t-18 -24q0 -2 3 -2q7 0 21.5 7t31.5 18t34.5 24t32 26t24 24t9.5 17z" />
    <glyph glyph-name="igrave" unicode="&#xec;" 
d="M334 384q-2 -4 -6 -7.5t-10 -3.5q-5 1 -28 12t-50 31t-51.5 49t-32.5 65q0 -2 1 8.5t5.5 23t14 23.5t26.5 11q6 0 13.5 -2.5t14.5 -17.5q5 -24 17 -50q10 -23 28.5 -52.5t47.5 -60.5q2 -5 5 -9q2 -4 3.5 -9.5t1.5 -10.5zM514 285q0 -10 -9 -18q-77 -70 -147 -128
q-30 -25 -61.5 -49.5t-61.5 -45.5t-56 -36t-45 -21q-6 -2 -12 -3q-5 -1 -12 -1.5t-15 -0.5q-13 0 -26.5 3t-25 12t-18.5 25t-7 42q0 17 10 41.5t25.5 51.5t34.5 53.5t36.5 48t31 36t18.5 16.5t11 5q5 2 11 4t12 2q7 0 21.5 -2t23.5 -6q1 -1 3 -2q1 -2 2 -3.5t1 -3.5
q0 -4 -7 -11q-33 -34 -61 -67q-24 -29 -47 -62.5t-33 -63.5l-4 -8q-4 -10 -4 -17q0 -11 12 -11q7 0 24 6q55 30 116 66q52 31 117 72.5t133 92.5q2 -2 4 -5q2 -2 3.5 -5t1.5 -7z" />
    <glyph glyph-name="iacute" unicode="&#xed;" 
d="M459 527q0 -5 -0.5 -9t-0.5 -7q-1 -4 -1 -7q-17 -33 -48 -54.5t-62.5 -33.5t-56 -17t-28.5 -5q-8 0 -11.5 5t-3.5 10t2.5 9t5.5 8l9 9q37 22 62 45.5t41 43.5q18 23 29 44q6 8 11 11t10 3q12 0 20 -6t13 -14t7 -18t2 -17zM514 285q0 -10 -9 -18q-77 -70 -147 -128
q-30 -25 -61.5 -49.5t-61.5 -45.5t-56 -36t-45 -21q-6 -2 -12 -3q-5 -1 -12 -1.5t-15 -0.5q-13 0 -26.5 3t-25 12t-18.5 25t-7 42q0 17 10 41.5t25.5 51.5t34.5 53.5t36.5 48t31 36t18.5 16.5t11 5q5 2 11 4t12 2q7 0 21.5 -2t23.5 -6q1 -1 3 -2q1 -2 2 -3.5t1 -3.5
q0 -4 -7 -11q-33 -34 -61 -67q-24 -29 -47 -62.5t-33 -63.5l-4 -8q-4 -10 -4 -17q0 -11 12 -11q7 0 24 6q55 30 116 66q52 31 117 72.5t133 92.5q2 -2 4 -5q2 -2 3.5 -5t1.5 -7z" />
    <glyph glyph-name="icircumflex" unicode="&#xee;" 
d="M388 383q-1 -8 -12 -10t-19 -2q-10 0 -23 12.5t-24.5 27.5t-19.5 29t-8 17q-22 -18 -51.5 -33.5t-59.5 -26.5t-55.5 -17.5t-40.5 -6.5q-12 0 -18 5t-6 10t2 9t4 7t7 3q39 8 75.5 30.5t66 46.5t50 42.5t28.5 18.5q13 0 24 -6.5t11 -7.5q5 2 9 2h9q17 -2 23 -6.5t6 -11.5
l-7 -31q0 -17 4.5 -34.5t10 -32t10 -24t4.5 -10.5zM514 285q0 -10 -9 -18q-77 -70 -147 -128q-30 -25 -61.5 -49.5t-61.5 -45.5t-56 -36t-45 -21q-6 -2 -12 -3q-5 -1 -12 -1.5t-15 -0.5q-13 0 -26.5 3t-25 12t-18.5 25t-7 42q0 17 10 41.5t25.5 51.5t34.5 53.5t36.5 48
t31 36t18.5 16.5t11 5q5 2 11 4t12 2q7 0 21.5 -2t23.5 -6q1 -1 3 -2q1 -2 2 -3.5t1 -3.5q0 -4 -7 -11q-33 -34 -61 -67q-24 -29 -47 -62.5t-33 -63.5l-4 -8q-4 -10 -4 -17q0 -11 12 -11q7 0 24 6q55 30 116 66q52 31 117 72.5t133 92.5q2 -2 4 -5q2 -2 3.5 -5t1.5 -7z" />
    <glyph glyph-name="idieresis" unicode="&#xef;" 
d="M426 464q0 -5 -1 -9.5t-6 -9.5q-13 -17 -29 -30q-14 -11 -31 -20t-37 -9q-5 1 -9 4q-9 5 -9 18q0 16 11 32t26.5 28t31.5 19.5t26 7.5q2 -1 5 -1q2 -1 4 -1t4 -2q8 -10 11 -15.5t3 -11.5zM259 464q0 -5 -1 -9.5t-6 -9.5q-13 -17 -29 -30q-14 -11 -31 -20t-37 -9
q-5 1 -9 4q-9 5 -9 18q0 16 11 32t26.5 28t31.5 19.5t26 7.5q2 -1 5 -1q2 -1 4 -1t4 -2q8 -10 11 -15.5t3 -11.5zM514 285q0 -10 -9 -18q-77 -70 -147 -128q-30 -25 -61.5 -49.5t-61.5 -45.5t-56 -36t-45 -21q-6 -2 -12 -3q-5 -1 -12 -1.5t-15 -0.5q-13 0 -26.5 3t-25 12
t-18.5 25t-7 42q0 17 10 41.5t25.5 51.5t34.5 53.5t36.5 48t31 36t18.5 16.5t11 5q5 2 11 4t12 2q7 0 21.5 -2t23.5 -6q1 -1 3 -2q1 -2 2 -3.5t1 -3.5q0 -4 -7 -11q-33 -34 -61 -67q-24 -29 -47 -62.5t-33 -63.5l-4 -8q-4 -10 -4 -17q0 -11 12 -11q7 0 24 6q55 30 116 66
q52 31 117 72.5t133 92.5q2 -2 4 -5q2 -2 3.5 -5t1.5 -7z" />
    <glyph glyph-name="eth" unicode="&#xf0;" horiz-adv-x="334" 
d="M493 499q0 -3 -3.5 -6t-16.5 -5t-29 -6q-28 -6 -70 -14q-4 -91 -20 -160t-39.5 -120.5t-52.5 -87t-58 -58.5q-69 -55 -154 -62q-11 1 -24 4t-24.5 11t-19.5 22.5t-8 38.5q0 30 18.5 70.5t53 82t84 79t111.5 60.5q13 0 14.5 -4.5t9.5 -5.5q7 1 10.5 5t14.5 5q6 0 10 -1
q10 -2 10 -7q8 28 8.5 59.5t2.5 59.5q-43 -7 -77 -9q-10 0 -19 5t-11 13q0 1 5.5 5.5t27.5 11.5l22 8q10 4 23 7.5t29 8.5q0 18 -7 38.5t-15 40.5l-15 37.5t-7 29.5q0 22 11.5 35.5t29.5 13.5q19 0 30.5 -20t17.5 -48.5t8 -60t2 -53.5v-1q28 6 54 6l9.5 -3t21 -7t21.5 -9
t11 -9zM275 287q0 2 -2 2q-25 0 -51 -13.5t-50.5 -35t-46.5 -48t-38 -53t-25.5 -50t-9.5 -37.5q0 -8 5 -8q18 0 49.5 19t64.5 49t61 67.5t38 74.5l1 2q2 8 3 15.5t1 15.5z" />
    <glyph glyph-name="ntilde" unicode="&#xf1;" horiz-adv-x="460" 
d="M564 461q0 -4 -7 -16t-22 -25.5t-39 -24t-59 -10.5q-15 0 -31 6t-33.5 13.5t-36.5 13.5t-40 5q-22 -1 -44.5 -11t-38.5 -10q-6 0 -6 2q0 6 8 13q22 18 45 32q20 12 44 22t47 10q12 0 26.5 -6.5t32 -14.5t39.5 -14.5t49 -6.5q8 0 16.5 5t16 11t12.5 11t6 5q6 0 10.5 -2
t4.5 -8zM650 266q0 -10 -9 -18q-80 -78 -152 -140q-31 -26 -63 -51.5t-61 -45t-54 -31.5t-41 -12q-13 0 -26.5 3t-25 12t-18.5 25t-7 42q0 11 5 28t19 37l43 59q1 2 3 5q1 2 2 3.5t1 2.5t-6 -4q-40 -33 -77 -62.5t-66.5 -52t-50 -37t-28.5 -18.5q-3 -2 -6 -3t-6 -1.5
t-8 -0.5q-12 0 -22.5 6t-10.5 24q0 10 5 18q21 20 40 40q17 17 34.5 36t29.5 35q21 22 39.5 51t34 54.5t28.5 43t23 17.5q2 0 9 -2t15 -5t14.5 -8t6.5 -11q0 -7 -5 -14l-75 -104q-4 -4 -7 -8q-6 -8 -6 -11l1 -1l5 3q47 32 98 69.5t93 72.5q5 2 9 5q4 2 8.5 3.5t9.5 1.5
q6 0 9 -2l28 -8q2 -2 5 -4q2 -2 3.5 -4.5t1.5 -6.5q0 -6 -4 -11q-48 -54 -79 -87t-49 -56.5t-25 -41t-7 -39.5q0 -2 1.5 -5.5t9.5 -3.5q9 0 36 12q31 13 63.5 34.5t70 49t82 61.5t100.5 73q2 -2 4 -5q2 -2 3.5 -5t1.5 -7z" />
    <glyph glyph-name="ograve" unicode="&#xf2;" horiz-adv-x="328" 
d="M356 384q-2 -4 -6 -7.5t-10 -3.5q-5 1 -28 12t-50 31t-51.5 49t-32.5 65q0 -2 1 8.5t5.5 23t14 23.5t26.5 11q6 0 13.5 -2.5t14.5 -17.5q5 -24 17 -50q10 -23 28.5 -52.5t47.5 -60.5q2 -5 5 -9q2 -4 3.5 -9.5t1.5 -10.5zM521 280q0 -10 -9 -18q-15 -14 -44 -39.5t-64 -51
t-72.5 -44t-69.5 -18.5q-5 0 -9 0.5t-9 1.5q-23 -27 -48 -51t-50.5 -41.5t-49.5 -28t-46 -10.5q-11 1 -24 4t-24.5 11t-19.5 22.5t-8 38.5q0 30 18.5 70.5t53 82t84 79t111.5 60.5q13 0 14.5 -4.5t9.5 -5.5q7 1 10.5 5t14.5 5q5 0 11.5 -2.5t14.5 -10.5q4 -4 8 -9
q3 -5 5.5 -10.5t2.5 -12.5q0 -28 -15.5 -66t-41.5 -77q12 0 28.5 6t35 15.5t39 21.5t39.5 25q45 30 95 69q2 -2 4 -5q2 -2 3.5 -5t1.5 -7zM275 287q0 2 -2 2q-5 0 -17 -9.5t-24.5 -21.5t-22 -24.5t-9.5 -18.5q0 -3 6 -12t9 -9q10 0 20.5 13.5t19.5 30.5t14.5 31.5t5.5 17.5z
M185 144q-8 6 -14.5 16.5t-12 21t-9 18t-4.5 7.5q-26 -24 -44 -51t-29 -49.5t-15.5 -37.5t-4.5 -17q0 -8 5 -8q18 0 39.5 13t41 30.5t33 34t14.5 22.5z" />
    <glyph glyph-name="oacute" unicode="&#xf3;" horiz-adv-x="328" 
d="M483 527q0 -5 -0.5 -9t-0.5 -7q-1 -4 -1 -7q-17 -33 -48 -54.5t-62.5 -33.5t-56 -17t-28.5 -5q-8 0 -11.5 5t-3.5 10t2.5 9t5.5 8l9 9q37 22 62 45.5t41 43.5q18 23 29 44q6 8 11 11t10 3q12 0 20 -6t13 -14t7 -18t2 -17zM521 280q0 -10 -9 -18q-15 -14 -44 -39.5
t-64 -51t-72.5 -44t-69.5 -18.5q-5 0 -9 0.5t-9 1.5q-23 -27 -48 -51t-50.5 -41.5t-49.5 -28t-46 -10.5q-11 1 -24 4t-24.5 11t-19.5 22.5t-8 38.5q0 30 18.5 70.5t53 82t84 79t111.5 60.5q13 0 14.5 -4.5t9.5 -5.5q7 1 10.5 5t14.5 5q5 0 11.5 -2.5t14.5 -10.5q4 -4 8 -9
q3 -5 5.5 -10.5t2.5 -12.5q0 -28 -15.5 -66t-41.5 -77q12 0 28.5 6t35 15.5t39 21.5t39.5 25q45 30 95 69q2 -2 4 -5q2 -2 3.5 -5t1.5 -7zM275 287q0 2 -2 2q-5 0 -17 -9.5t-24.5 -21.5t-22 -24.5t-9.5 -18.5q0 -3 6 -12t9 -9q10 0 20.5 13.5t19.5 30.5t14.5 31.5t5.5 17.5z
M185 144q-8 6 -14.5 16.5t-12 21t-9 18t-4.5 7.5q-26 -24 -44 -51t-29 -49.5t-15.5 -37.5t-4.5 -17q0 -8 5 -8q18 0 39.5 13t41 30.5t33 34t14.5 22.5z" />
    <glyph glyph-name="ocircumflex" unicode="&#xf4;" horiz-adv-x="328" 
d="M448 383q-1 -8 -12 -10t-19 -2q-10 0 -23 12.5t-24.5 27.5t-19.5 29t-8 17q-22 -18 -51.5 -33.5t-59.5 -26.5t-55.5 -17.5t-40.5 -6.5q-12 0 -18 5t-6 10t2 9t4 7t7 3q39 8 75.5 30.5t66 46.5t50 42.5t28.5 18.5q13 0 24 -6.5t11 -7.5q5 2 9 2h9q17 -2 23 -6.5t6 -11.5
l-7 -31q0 -17 4.5 -34.5t10 -32t10 -24t4.5 -10.5zM521 280q0 -10 -9 -18q-15 -14 -44 -39.5t-64 -51t-72.5 -44t-69.5 -18.5q-5 0 -9 0.5t-9 1.5q-23 -27 -48 -51t-50.5 -41.5t-49.5 -28t-46 -10.5q-11 1 -24 4t-24.5 11t-19.5 22.5t-8 38.5q0 30 18.5 70.5t53 82t84 79
t111.5 60.5q13 0 14.5 -4.5t9.5 -5.5q7 1 10.5 5t14.5 5q5 0 11.5 -2.5t14.5 -10.5q4 -4 8 -9q3 -5 5.5 -10.5t2.5 -12.5q0 -28 -15.5 -66t-41.5 -77q12 0 28.5 6t35 15.5t39 21.5t39.5 25q45 30 95 69q2 -2 4 -5q2 -2 3.5 -5t1.5 -7zM275 287q0 2 -2 2q-5 0 -17 -9.5
t-24.5 -21.5t-22 -24.5t-9.5 -18.5q0 -3 6 -12t9 -9q10 0 20.5 13.5t19.5 30.5t14.5 31.5t5.5 17.5zM185 144q-8 6 -14.5 16.5t-12 21t-9 18t-4.5 7.5q-26 -24 -44 -51t-29 -49.5t-15.5 -37.5t-4.5 -17q0 -8 5 -8q18 0 39.5 13t41 30.5t33 34t14.5 22.5z" />
    <glyph glyph-name="otilde" unicode="&#xf5;" horiz-adv-x="328" 
d="M513 461q0 -4 -7 -16t-22 -25.5t-39 -24t-59 -10.5q-15 0 -31 6t-33.5 13.5t-36.5 13.5t-40 5q-22 -1 -44.5 -11t-38.5 -10q-6 0 -6 2q0 6 8 13q22 18 45 32q20 12 44 22t47 10q12 0 26.5 -6.5t32 -14.5t39.5 -14.5t49 -6.5q8 0 16.5 5t16 11t12.5 11t6 5q6 0 10.5 -2
t4.5 -8zM521 280q0 -10 -9 -18q-15 -14 -44 -39.5t-64 -51t-72.5 -44t-69.5 -18.5q-5 0 -9 0.5t-9 1.5q-23 -27 -48 -51t-50.5 -41.5t-49.5 -28t-46 -10.5q-11 1 -24 4t-24.5 11t-19.5 22.5t-8 38.5q0 30 18.5 70.5t53 82t84 79t111.5 60.5q13 0 14.5 -4.5t9.5 -5.5
q7 1 10.5 5t14.5 5q5 0 11.5 -2.5t14.5 -10.5q4 -4 8 -9q3 -5 5.5 -10.5t2.5 -12.5q0 -28 -15.5 -66t-41.5 -77q12 0 28.5 6t35 15.5t39 21.5t39.5 25q45 30 95 69q2 -2 4 -5q2 -2 3.5 -5t1.5 -7zM275 287q0 2 -2 2q-5 0 -17 -9.5t-24.5 -21.5t-22 -24.5t-9.5 -18.5
q0 -3 6 -12t9 -9q10 0 20.5 13.5t19.5 30.5t14.5 31.5t5.5 17.5zM185 144q-8 6 -14.5 16.5t-12 21t-9 18t-4.5 7.5q-26 -24 -44 -51t-29 -49.5t-15.5 -37.5t-4.5 -17q0 -8 5 -8q18 0 39.5 13t41 30.5t33 34t14.5 22.5z" />
    <glyph glyph-name="odieresis" unicode="&#xf6;" horiz-adv-x="328" 
d="M471 464q0 -5 -1 -9.5t-6 -9.5q-13 -17 -29 -30q-14 -11 -31 -20t-37 -9q-5 1 -9 4q-9 5 -9 18q0 16 11 32t26.5 28t31.5 19.5t26 7.5q2 -1 5 -1q2 -1 4 -1t4 -2q8 -10 11 -15.5t3 -11.5zM304 464q0 -5 -1 -9.5t-6 -9.5q-13 -17 -29 -30q-14 -11 -31 -20t-37 -9
q-5 1 -9 4q-9 5 -9 18q0 16 11 32t26.5 28t31.5 19.5t26 7.5q2 -1 5 -1q2 -1 4 -1t4 -2q8 -10 11 -15.5t3 -11.5zM521 280q0 -10 -9 -18q-15 -14 -44 -39.5t-64 -51t-72.5 -44t-69.5 -18.5q-5 0 -9 0.5t-9 1.5q-23 -27 -48 -51t-50.5 -41.5t-49.5 -28t-46 -10.5q-11 1 -24 4
t-24.5 11t-19.5 22.5t-8 38.5q0 30 18.5 70.5t53 82t84 79t111.5 60.5q13 0 14.5 -4.5t9.5 -5.5q7 1 10.5 5t14.5 5q5 0 11.5 -2.5t14.5 -10.5q4 -4 8 -9q3 -5 5.5 -10.5t2.5 -12.5q0 -28 -15.5 -66t-41.5 -77q12 0 28.5 6t35 15.5t39 21.5t39.5 25q45 30 95 69q2 -2 4 -5
q2 -2 3.5 -5t1.5 -7zM275 287q0 2 -2 2q-5 0 -17 -9.5t-24.5 -21.5t-22 -24.5t-9.5 -18.5q0 -3 6 -12t9 -9q10 0 20.5 13.5t19.5 30.5t14.5 31.5t5.5 17.5zM185 144q-8 6 -14.5 16.5t-12 21t-9 18t-4.5 7.5q-26 -24 -44 -51t-29 -49.5t-15.5 -37.5t-4.5 -17q0 -8 5 -8
q18 0 39.5 13t41 30.5t33 34t14.5 22.5z" />
    <glyph glyph-name="divide" unicode="&#xf7;" horiz-adv-x="430" 
d="M445 436q0 -5 -1 -9.5t-6 -9.5q-13 -17 -29 -30q-14 -11 -31 -20t-37 -9q-5 1 -9 4q-9 5 -9 18q0 16 11 32t26.5 28t31.5 19.5t26 7.5q2 -1 5 -1q2 -1 4 -1t4 -2q8 -10 11 -15.5t3 -11.5zM481 238q0 -10 -5 -18.5t-16 -10.5q-64 1 -115 1.5t-95 0.5t-85 0.5t-84 2.5
q-2 -1 -5 -2t-10 -1q-6 0 -9 4q-1 1 -1 11l10 57q2 2 19 2t47.5 -1t65.5 -1h24h38.5t46 0.5t46 1t38.5 0.5t24 1q7 3 14 3q14 0 25.5 -9t18.5 -22q8 -10 8 -20zM204 94q0 -5 -1 -9.5t-6 -9.5q-13 -17 -29 -30q-14 -11 -31 -20t-37 -9q-5 1 -9 4q-9 5 -9 18q0 16 11 32
t26.5 28t31.5 19.5t26 7.5q2 -1 5 -1q2 -1 4 -1t4 -2q8 -10 11 -15.5t3 -11.5z" />
    <glyph glyph-name="oslash" unicode="&#xf8;" horiz-adv-x="362" 
d="M555 280q0 -10 -9 -18q-15 -14 -44 -39.5t-64 -51t-72.5 -44t-69.5 -18.5q-5 0 -9 0.5t-9 1.5q-23 -27 -48 -51t-50.5 -41.5t-49.5 -28t-46 -10.5q-17 2 -33 7q-8 -11 -15 -22t-17 -24q-2 -5 -5 -9q-5 -9 -14 -9q-6 0 -10 4l-12 -1l-2 2q-2 2 -1 7q1 4 15 21.5t38 44.5
q-9 8 -14.5 21.5t-5.5 33.5q0 30 18.5 70.5t53 82t84 79t111.5 60.5q13 0 14.5 -4.5t9.5 -5.5q7 1 10.5 5t14.5 5q5 0 11.5 -2.5t14.5 -10.5l1 -1q41 36 71.5 59t44.5 23l3 -7q-1 -2 -1.5 -4.5t-3.5 -4.5q-28 -26 -52.5 -48.5t-47.5 -43.5q0 -2 0.5 -2.5t0.5 -2.5
q0 -28 -15.5 -66t-41.5 -77q12 0 28.5 6t35 15.5t39 21.5t39.5 25q45 30 95 69q2 -2 4 -5q2 -2 3.5 -5t1.5 -7zM300 286q-6 -3 -15 -10.5t-18 -16.5t-17 -18t-12 -16l31.5 31.5t30.5 29.5zM288 235q-11 -11 -21.5 -20.5t-20.5 -19.5q1 -1 3 -1q10 0 20 12.5t19 28.5z
M193 180q-5 11 -8.5 18.5t-5.5 8.5q-19 -18 -33.5 -37t-25.5 -37t-18 -34t-11 -27q23 26 49 53t53 55zM219 144q-4 2 -7 5.5t-6 7.5q-39 -38 -65.5 -65.5t-43.5 -47.5q18 3 39 16.5t39 30t30.5 32t13.5 21.5z" />
    <glyph glyph-name="ugrave" unicode="&#xf9;" horiz-adv-x="404" 
d="M374 384q-2 -4 -6 -7.5t-10 -3.5q-5 1 -28 12t-50 31t-51.5 49t-32.5 65q0 -2 1 8.5t5.5 23t14 23.5t26.5 11q6 0 13.5 -2.5t14.5 -17.5q5 -24 17 -50q10 -23 28.5 -52.5t47.5 -60.5q2 -5 5 -9q2 -4 3.5 -9.5t1.5 -10.5zM601 285q0 -10 -9 -18q-77 -70 -147 -128
q-30 -25 -61.5 -49.5t-61.5 -45.5t-56 -36t-45 -21q-6 -2 -12 -3q-5 -1 -12 -1.5t-15 -0.5q-17 0 -25.5 15t-8.5 38q0 14 8 28.5t13 31.5q2 4 3.5 6t1.5 4q0 3 -3 3q-9 0 -24 -16q-5 -4 -21 -19.5t-37 -33t-43 -31t-38 -13.5q-22 0 -31 10.5t-9 26.5q0 12 4 26t11 28
q18 38 47 77.5t59.5 72t57.5 53t41 20.5q11 0 20 -7.5t9 -20.5q0 -8 -12.5 -21t-31 -30.5t-39 -40.5t-36.5 -50q-2 -3 -4 -7q-3 -6 -3 -12t6 -6q4 0 11.5 2.5t19.5 10.5q24 16 58 41t67 51t60.5 49.5t39.5 37.5q2 5 6 9q3 3 8.5 6t15.5 3q16 0 32 -3.5t16 -13.5
q0 -5 -14 -19.5t-35 -35t-45 -44.5t-45 -47t-35 -42.5t-14 -30.5q0 -5 5 -5q4 0 16 6q44 24 97 57q45 28 104 66.5t127 89.5q2 -2 4 -5q2 -2 3.5 -5t1.5 -7z" />
    <glyph glyph-name="uacute" unicode="&#xfa;" horiz-adv-x="404" 
d="M480 527q0 -5 -0.5 -9t-0.5 -7q-1 -4 -1 -7q-17 -33 -48 -54.5t-62.5 -33.5t-56 -17t-28.5 -5q-8 0 -11.5 5t-3.5 10t2.5 9t5.5 8l9 9q37 22 62 45.5t41 43.5q18 23 29 44q6 8 11 11t10 3q12 0 20 -6t13 -14t7 -18t2 -17zM601 285q0 -10 -9 -18q-77 -70 -147 -128
q-30 -25 -61.5 -49.5t-61.5 -45.5t-56 -36t-45 -21q-6 -2 -12 -3q-5 -1 -12 -1.5t-15 -0.5q-17 0 -25.5 15t-8.5 38q0 14 8 28.5t13 31.5q2 4 3.5 6t1.5 4q0 3 -3 3q-9 0 -24 -16q-5 -4 -21 -19.5t-37 -33t-43 -31t-38 -13.5q-22 0 -31 10.5t-9 26.5q0 12 4 26t11 28
q18 38 47 77.5t59.5 72t57.5 53t41 20.5q11 0 20 -7.5t9 -20.5q0 -8 -12.5 -21t-31 -30.5t-39 -40.5t-36.5 -50q-2 -3 -4 -7q-3 -6 -3 -12t6 -6q4 0 11.5 2.5t19.5 10.5q24 16 58 41t67 51t60.5 49.5t39.5 37.5q2 5 6 9q3 3 8.5 6t15.5 3q16 0 32 -3.5t16 -13.5
q0 -5 -14 -19.5t-35 -35t-45 -44.5t-45 -47t-35 -42.5t-14 -30.5q0 -5 5 -5q4 0 16 6q44 24 97 57q45 28 104 66.5t127 89.5q2 -2 4 -5q2 -2 3.5 -5t1.5 -7z" />
    <glyph glyph-name="ucircumflex" unicode="&#xfb;" horiz-adv-x="404" 
d="M474 383q-1 -8 -12 -10t-19 -2q-10 0 -23 12.5t-24.5 27.5t-19.5 29t-8 17q-22 -18 -51.5 -33.5t-59.5 -26.5t-55.5 -17.5t-40.5 -6.5q-12 0 -18 5t-6 10t2 9t4 7t7 3q39 8 75.5 30.5t66 46.5t50 42.5t28.5 18.5q13 0 24 -6.5t11 -7.5q5 2 9 2h9q17 -2 23 -6.5t6 -11.5
l-7 -31q0 -17 4.5 -34.5t10 -32t10 -24t4.5 -10.5zM601 285q0 -10 -9 -18q-77 -70 -147 -128q-30 -25 -61.5 -49.5t-61.5 -45.5t-56 -36t-45 -21q-6 -2 -12 -3q-5 -1 -12 -1.5t-15 -0.5q-17 0 -25.5 15t-8.5 38q0 14 8 28.5t13 31.5q2 4 3.5 6t1.5 4q0 3 -3 3q-9 0 -24 -16
q-5 -4 -21 -19.5t-37 -33t-43 -31t-38 -13.5q-22 0 -31 10.5t-9 26.5q0 12 4 26t11 28q18 38 47 77.5t59.5 72t57.5 53t41 20.5q11 0 20 -7.5t9 -20.5q0 -8 -12.5 -21t-31 -30.5t-39 -40.5t-36.5 -50q-2 -3 -4 -7q-3 -6 -3 -12t6 -6q4 0 11.5 2.5t19.5 10.5q24 16 58 41
t67 51t60.5 49.5t39.5 37.5q2 5 6 9q3 3 8.5 6t15.5 3q16 0 32 -3.5t16 -13.5q0 -5 -14 -19.5t-35 -35t-45 -44.5t-45 -47t-35 -42.5t-14 -30.5q0 -5 5 -5q4 0 16 6q44 24 97 57q45 28 104 66.5t127 89.5q2 -2 4 -5q2 -2 3.5 -5t1.5 -7z" />
    <glyph glyph-name="udieresis" unicode="&#xfc;" horiz-adv-x="404" 
d="M515 464q0 -5 -1 -9.5t-6 -9.5q-13 -17 -29 -30q-14 -11 -31 -20t-37 -9q-5 1 -9 4q-9 5 -9 18q0 16 11 32t26.5 28t31.5 19.5t26 7.5q2 -1 5 -1q2 -1 4 -1t4 -2q8 -10 11 -15.5t3 -11.5zM348 464q0 -5 -1 -9.5t-6 -9.5q-13 -17 -29 -30q-14 -11 -31 -20t-37 -9
q-5 1 -9 4q-9 5 -9 18q0 16 11 32t26.5 28t31.5 19.5t26 7.5q2 -1 5 -1q2 -1 4 -1t4 -2q8 -10 11 -15.5t3 -11.5zM601 285q0 -10 -9 -18q-77 -70 -147 -128q-30 -25 -61.5 -49.5t-61.5 -45.5t-56 -36t-45 -21q-6 -2 -12 -3q-5 -1 -12 -1.5t-15 -0.5q-17 0 -25.5 15t-8.5 38
q0 14 8 28.5t13 31.5q2 4 3.5 6t1.5 4q0 3 -3 3q-9 0 -24 -16q-5 -4 -21 -19.5t-37 -33t-43 -31t-38 -13.5q-22 0 -31 10.5t-9 26.5q0 12 4 26t11 28q18 38 47 77.5t59.5 72t57.5 53t41 20.5q11 0 20 -7.5t9 -20.5q0 -8 -12.5 -21t-31 -30.5t-39 -40.5t-36.5 -50
q-2 -3 -4 -7q-3 -6 -3 -12t6 -6q4 0 11.5 2.5t19.5 10.5q24 16 58 41t67 51t60.5 49.5t39.5 37.5q2 5 6 9q3 3 8.5 6t15.5 3q16 0 32 -3.5t16 -13.5q0 -5 -14 -19.5t-35 -35t-45 -44.5t-45 -47t-35 -42.5t-14 -30.5q0 -5 5 -5q4 0 16 6q44 24 97 57q45 28 104 66.5t127 89.5
q2 -2 4 -5q2 -2 3.5 -5t1.5 -7z" />
    <glyph glyph-name="yacute" unicode="&#xfd;" horiz-adv-x="329" 
d="M531 527q0 -5 -0.5 -9t-0.5 -7q-1 -4 -1 -7q-17 -33 -48 -54.5t-62.5 -33.5t-56 -17t-28.5 -5q-8 0 -11.5 5t-3.5 10t2.5 9t5.5 8l9 9q37 22 62 45.5t41 43.5q18 23 29 44q6 8 11 11t10 3q12 0 20 -6t13 -14t7 -18t2 -17zM426 302q0 -7 -8 -16q-87 -96 -155 -182.5
t-123.5 -160t-101.5 -132t-87.5 -99.5t-82 -63t-85.5 -22q-12 0 -23.5 3.5t-21 10t-15.5 16t-6 22.5q0 30 15 60t39.5 57.5t55.5 51.5t63.5 42.5t63 30.5t54.5 15q8 0 16 -2q3 -1 5 -1q4 0 15.5 11.5t27 29t32 37.5t30.5 37.5t23.5 30t9.5 13.5v1q0 2 -2 2l-19 -15
q-22 -20 -43 -35q-18 -14 -38 -24.5t-36 -10.5q-12 0 -19.5 8.5t-7.5 29.5q0 17 11.5 43.5t30 56.5t41.5 60.5t45.5 55t43 40t33.5 15.5q3 0 7 -2q8 -2 14 -5q5 -2 9.5 -6t4.5 -9t-4 -9l-26 -26t-44.5 -47.5t-42.5 -53t-19 -42.5q0 -6 6 -6q7 0 25 11q41 28 81 59
q34 26 72.5 59.5t68.5 66.5q2 3 5 7q2 2 6 4.5t9 2.5q12 -2 23 -5q9 -2 16.5 -6t7.5 -10zM12 -90q0 2 -3 2q-17 0 -41.5 -14t-52 -36.5t-54 -50t-48 -54t-35 -49t-13.5 -34.5q0 -3 4 -3q15 4 32.5 16.5t37 29.5t39.5 37.5t39 40.5q43 48 89 105q6 7 6 10z" />
    <glyph glyph-name="thorn" unicode="&#xfe;" horiz-adv-x="410" 
d="M633 659q0 -6 -3 -9q-29 -26 -66 -61.5t-77 -76t-81.5 -84.5t-80.5 -86q-92 -99 -189 -206q-8 -8 -8 -12q0 -2 2 -2t5 3q-1 -1 11.5 10t33.5 28t48 37t56.5 37.5t59 29t55.5 11.5q12 0 22 -7q20 -17 27 -31t7 -32t-14.5 -42.5t-38.5 -50t-55 -50t-65 -43.5t-68.5 -31
t-64.5 -12q-13 0 -30.5 6t-27.5 20l-11 16h-1q-1 0 -1 0.5t-1 0.5q-7 0 -29.5 -19.5t-52.5 -51t-64 -70t-65.5 -76.5t-56.5 -71.5t-36 -54.5q-2 -5 -4 -9q-5 -9 -12 -9q-6 0 -11 4l-45 35l-2 2q-2 2 -2 7q0 3 23.5 33t63.5 79t94.5 112.5t116 135t127 146t129 144.5
t121.5 132.5t104.5 109.5t78 74t41.5 27q6 0 12.5 -5t12 -11.5t9 -14t3.5 -12.5zM383 215q0 3 -3 3q-12 0 -38 -13t-57.5 -33t-64.5 -43.5t-60.5 -44t-45 -34.5t-17.5 -16t4 -3t7 -1q17 0 44.5 11t58 29t61.5 39t55.5 42t40 38t15.5 26z" />
    <glyph glyph-name="ydieresis" unicode="&#xff;" horiz-adv-x="329" 
d="M496 464q0 -5 -1 -9.5t-6 -9.5q-13 -17 -29 -30q-14 -11 -31 -20t-37 -9q-5 1 -9 4q-9 5 -9 18q0 16 11 32t26.5 28t31.5 19.5t26 7.5q2 -1 5 -1q2 -1 4 -1t4 -2q8 -10 11 -15.5t3 -11.5zM329 464q0 -5 -1 -9.5t-6 -9.5q-13 -17 -29 -30q-14 -11 -31 -20t-37 -9
q-5 1 -9 4q-9 5 -9 18q0 16 11 32t26.5 28t31.5 19.5t26 7.5q2 -1 5 -1q2 -1 4 -1t4 -2q8 -10 11 -15.5t3 -11.5zM426 302q0 -7 -8 -16q-87 -96 -155 -182.5t-123.5 -160t-101.5 -132t-87.5 -99.5t-82 -63t-85.5 -22q-12 0 -23.5 3.5t-21 10t-15.5 16t-6 22.5q0 30 15 60
t39.5 57.5t55.5 51.5t63.5 42.5t63 30.5t54.5 15q8 0 16 -2q3 -1 5 -1q4 0 15.5 11.5t27 29t32 37.5t30.5 37.5t23.5 30t9.5 13.5v1q0 2 -2 2l-19 -15q-22 -20 -43 -35q-18 -14 -38 -24.5t-36 -10.5q-12 0 -19.5 8.5t-7.5 29.5q0 17 11.5 43.5t30 56.5t41.5 60.5t45.5 55
t43 40t33.5 15.5q3 0 7 -2q8 -2 14 -5q5 -2 9.5 -6t4.5 -9t-4 -9l-26 -26t-44.5 -47.5t-42.5 -53t-19 -42.5q0 -6 6 -6q7 0 25 11q41 28 81 59q34 26 72.5 59.5t68.5 66.5q2 3 5 7q2 2 6 4.5t9 2.5q12 -2 23 -5q9 -2 16.5 -6t7.5 -10zM12 -90q0 2 -3 2q-17 0 -41.5 -14
t-52 -36.5t-54 -50t-48 -54t-35 -49t-13.5 -34.5q0 -3 4 -3q15 4 32.5 16.5t37 29.5t39.5 37.5t39 40.5q43 48 89 105q6 7 6 10z" />
    <glyph glyph-name="dotlessi" unicode="&#x131;" 
d="M514 285q0 -10 -9 -18q-77 -70 -147 -128q-30 -25 -61.5 -49.5t-61.5 -45.5t-56 -36t-45 -21q-6 -2 -12 -3q-5 -1 -12 -1.5t-15 -0.5q-13 0 -26.5 3t-25 12t-18.5 25t-7 42q0 17 10 41.5t25.5 51.5t34.5 53.5t36.5 48t31 36t18.5 16.5t11 5q5 2 11 4t12 2q7 0 21.5 -2
t23.5 -6q1 -1 3 -2q1 -2 2 -3.5t1 -3.5q0 -4 -7 -11q-33 -34 -61 -67q-24 -29 -47 -62.5t-33 -63.5l-4 -8q-4 -10 -4 -17q0 -11 12 -11q7 0 24 6q55 30 116 66q52 31 117 72.5t133 92.5q2 -2 4 -5q2 -2 3.5 -5t1.5 -7z" />
    <glyph glyph-name="Lslash" unicode="&#x141;" horiz-adv-x="458" 
d="M826 602q0 -13 -16 -43t-52 -66t-93.5 -72t-140.5 -61q-9 -2 -17 -3q-7 -1 -14.5 -1.5t-13.5 -0.5q-11 0 -11 3t7 7q28 15 61 38t65.5 49t62.5 52.5t53 50.5t37 42.5t14 28.5q0 4 -6 4q-5 0 -14 -3q-32 -8 -72 -34q-34 -23 -81 -67.5t-104 -122.5q-10 -13 -21 -28
l-22.5 -31.5t-26.5 -37.5q30 6 47 6l9.5 -3t21 -7t21.5 -9t11 -9q0 -3 -3.5 -5.5t-16.5 -5.5q-18 -5 -39 -9q-18 -4 -43 -9.5t-53 -10.5q-30 -40 -57 -74.5t-42 -50.5q-3 -2 -6 -6q-3 -3 -6 -7t-8 -9q64 -7 110.5 -10t85.5 -14t74.5 -35t77.5 -72q2 -3 5 -7q6 -8 6 -10
q0 -3 -3 -3q-5 0 -13 4q-40 11 -95 20q-47 8 -113.5 14t-152.5 6h-42t-50 -1q-27 -26 -67.5 -50t-83 -43.5t-82.5 -31t-66 -11.5q-18 0 -40 5.5t-42 17.5t-33.5 29.5t-13.5 41.5q0 12 16.5 37.5t61 51t122.5 45t201 19.5q26 30 50.5 58.5t47.5 55.5q-37 -5 -66.5 -10
t-45.5 -6q-10 0 -19 5t-11 13q0 1 5 6.5t28 10.5l155 37q75 94 136.5 168.5t118.5 126.5t113 79.5t120 27.5q6 0 18.5 -3t25 -11t21.5 -21.5t9 -34.5zM5 -13q-30 0 -69.5 -6t-75.5 -16t-61 -22.5t-25 -24.5q0 -10 24 -13q18 0 38 1.5t45 9.5t55.5 24.5t68.5 46.5z" />
    <glyph glyph-name="lslash" unicode="&#x142;" horiz-adv-x="329" 
d="M601 565q0 -3 -1 -6t-5 -4q-80 -27 -142.5 -61t-112.5 -71q16 -3 23 -5l10.5 -3t6.5 -2t11 -3q9 -4 16 -10t7 -19q0 -1 -7.5 -3t-30.5 -2l-81 10q-53 -47 -87.5 -94t-54.5 -87t-28 -68.5t-8 -39.5q0 -19 5 -25t12 -6q14 0 38 10t54 26.5t64 38t67 43.5q77 52 166 118
q2 -2 4 -5q2 -2 3.5 -5t1.5 -7q0 -10 -9 -18q-77 -70 -147 -128q-30 -25 -61.5 -49.5t-61.5 -45.5t-56 -36t-45 -21q-6 -2 -12 -3q-5 -1 -12 -1.5t-15 -0.5q-14 0 -27.5 3t-25 14.5t-18.5 34t-7 62.5q0 15 11 45.5t34 71.5t58 88.5t82 95.5l-15 3q-9 2 -13 2h-6
q-3 0 -11.5 5.5t-18.5 13t-19 16.5t-11 15q2 2 4 3.5t8 1.5q7 0 12 -1q10 -1 27 -4q14 -2 35.5 -5.5t50.5 -8.5q54 49 121 93t149 76q5 1 9 2t9 2t10 1q9 0 16.5 -6.5t12.5 -15t8 -16t3 -9.5z" />
    <glyph glyph-name="OE" unicode="&#x152;" horiz-adv-x="1030" 
d="M1391 546q0 -5 -3.5 -8.5t-14.5 -4.5q-73 -3 -145 -7q-62 -4 -133 -10t-131 -15q-4 0 -8 -2q-8 -4 -8 -9q0 -3 1 -5q0 -1 -1 -3q-2 -4 -7 -9l-113 -121l-4 -4q-3 -3 -3 -7q0 -3 4 -3q1 0 11 2q19 1 39 2q17 1 38 1.5t41 0.5q23 0 41.5 -1t23.5 -5l9 -6.5t20.5 -15.5
t20.5 -19t9 -18q0 -6 -3.5 -10t-18.5 -6q-75 -8 -137 -13q-27 -3 -53.5 -5t-49 -4t-39 -3t-23.5 -1h-3q-2 0 -3.5 0.5t-3.5 0.5q-7 0 -17.5 -7t-18.5 -18l-122 -162q-2 -3 -3 -5q-2 -6 -2 -7q0 -3 3 -3q5 0 13 4q27 3 60 7q28 3 63.5 5.5t75.5 2.5q24 0 49 -1t49 -4
q4 0 14.5 -2t26 -10t35 -24t42.5 -45l2 -4l2 -4t1 -4q0 -3 -3 -5t-12 -2q-72 0 -141 -1q-60 -1 -124.5 -3t-113.5 -6q-2 -1 -4 -1h-9q-13 0 -30.5 3.5t-28.5 16.5q-1 1 -2 3q-2 1 -3.5 2t-3.5 1q-3 0 -7.5 -2t-10.5 -10l-1 -1q-1 -1 -2 -1q-2 0 -8.5 3.5t-14 11t-13 18.5
t-5.5 26t7 30q15 34 36 69q18 30 44 65.5t60 67.5q1 1 2 3t2 3t1 3q0 5 -8 5q-11 0 -22.5 6.5t-11.5 22.5q0 4 6 10t29 12l54 14q5 -1 10 2q10 3 23 19q33 32 61 58q24 23 47.5 43t33.5 25q2 1 4 3q5 5 5 7q0 3 -7 3q-5 0 -9 -1q-27 -4 -56 -8q-25 -3 -54.5 -5t-58.5 -2
q-31 -52 -73 -110.5t-91 -116t-101.5 -110t-105.5 -92.5t-103.5 -64t-94.5 -24q-21 0 -43.5 9.5t-41 28.5t-30.5 45.5t-12 61.5q0 42 23 99t62.5 117.5t93 119.5t114.5 106t126 75.5t128 28.5q8 0 16.5 -1t16.5 -3q21 12 42 23q18 8 39.5 15.5t40.5 7.5q23 0 35.5 -8.5
t18.5 -18.5t7 -18.5l1 -8.5q0 -19 -13 -53q8 1 42 9.5t87.5 18.5t122.5 18.5t147 8.5q43 0 89 -2.5t84 -11t62 -25t24 -44.5zM681 602q0 3 -4 3q-25 0 -60.5 -19t-74.5 -48t-77.5 -62.5t-69.5 -62.5t-50.5 -49.5t-20.5 -21.5q-9 -13 -13 -13q-2 0 -2 5q0 7 1 10q0 3 1 5
q4 14 18 39t29 48q18 27 39 58q7 13 7 16q0 2 -2 2q-3 0 -7 -3t-9 -6q-5 -4 -11 -8q-100 -90 -159.5 -169t-91 -140t-41 -99t-9.5 -47q0 -10 2.5 -13t6.5 -3q21 0 57.5 22t82.5 58.5t97.5 84t102.5 98.5t97.5 101.5t82.5 93.5t57 75t21 45z" />
    <glyph glyph-name="oe" unicode="&#x153;" horiz-adv-x="537" 
d="M759 285q0 -10 -9 -18q-21 -21 -55 -50.5t-75.5 -61t-88 -62.5t-93 -56t-90 -40t-78.5 -15q-36 0 -54.5 19t-22.5 57q-37 -35 -74 -56.5t-69 -21.5q-11 1 -24 4t-24.5 11t-19.5 22.5t-8 38.5q0 30 18.5 70.5t53 82t84 79t111.5 60.5q13 0 14.5 -4.5t9.5 -5.5q7 1 10.5 5
t14.5 5q5 0 11.5 -2.5t14.5 -10.5q4 -4 8 -9q3 -5 5.5 -10.5t2.5 -12.5q0 -5 -0.5 -9t-1.5 -9q41 30 83 49t77 19q13 0 24.5 -5.5t20.5 -14t14.5 -18.5t5.5 -18q0 -18 -13.5 -37.5t-34.5 -38t-46.5 -35t-49.5 -29t-43.5 -20t-28.5 -7.5q-5 0 -11 3t-11 12q-1 0 -3 1
q-4 2 -7 2q-4 0 -10.5 -7.5t-13 -18.5t-11.5 -23.5t-5 -22.5q0 -14 12 -18q39 0 79.5 11t89 35.5t107.5 62.5t135 92q14 10 29 21t31 22q2 -2 4 -5q2 -2 3.5 -5t1.5 -7zM489 297q0 5 -6 5q-15 0 -40 -17t-49.5 -38t-42.5 -40t-18 -24q0 -2 3 -2q7 0 21.5 7t31.5 18t34.5 24
t32 26t24 24t9.5 17zM275 287q0 2 -2 2q-5 0 -17 -9.5t-24.5 -21.5t-22 -24.5t-9.5 -18.5q0 -3 6 -12t9 -9q10 0 20.5 13.5t19.5 30.5t14.5 31.5t5.5 17.5zM185 144q-8 6 -14.5 16.5t-12 21t-9 18t-4.5 7.5q-26 -24 -44 -51t-29 -49.5t-15.5 -37.5t-4.5 -17q0 -8 5 -8
q18 0 39.5 13t41 30.5t33 34t14.5 22.5z" />
    <glyph glyph-name="Scaron" unicode="&#x160;" horiz-adv-x="575" 
d="M815 831q0 -6 -2 -10q-4 -9 -11 -9q-39 -8 -75.5 -30.5t-66 -46.5t-50 -42.5t-28.5 -18.5q-13 0 -24 6.5t-11 7.5q-5 -2 -9 -2h-9q-17 2 -23 6.5t-6 11.5l7 31q0 17 -4.5 34.5t-10 32t-10 24t-4.5 10.5q1 8 12 10t19 2q10 0 23 -12.5t24.5 -27.5t19.5 -29t8 -17
q22 18 51.5 33.5t59.5 26.5t55.5 17.5t40.5 6.5q12 0 18 -5t6 -10zM806 500q0 -12 -13.5 -28.5t-41 -31.5t-70.5 -25.5t-103 -10.5h-23t-27.5 1.5t-23 4.5t-9.5 8q0 7 17 14t43 14t55.5 14.5t55.5 17t43 21t17 25.5q0 5 -9 9t-35 4q-33 0 -88 -4t-122 -19t-141.5 -45
t-146.5 -82q-11 -8 -20 -17q-8 -8 -13.5 -16.5t-5.5 -16.5q0 -11 23.5 -17.5t56.5 -10t68.5 -4.5t59.5 -1q35 0 68.5 -5t60 -16t42.5 -30.5t16 -48.5q0 -37 -26 -71t-70 -63.5t-101.5 -53.5t-119.5 -41.5t-125 -27.5t-118 -10q-23 0 -52.5 6.5t-55.5 19t-44.5 30.5t-18.5 40
q0 5 4.5 9t17.5 5q33 4 63 8q26 4 50.5 9t37.5 11q2 0 5 1q2 0 4 0.5t4 0.5q5 0 5 -2q0 -4 -12 -13q-20 -11 -36 -15t-16 -10q0 -2 13 -2q16 0 60.5 7t102 20t119.5 31t114 39t86 44.5t34 48.5q0 11 -16.5 16.5t-35.5 5.5q-20 0 -45 -2t-57 -2t-76.5 2t-86 13t-70.5 35
t-29 68q0 10 12 33t38.5 52t68.5 60.5t101 58.5t136 46t174 22q6 0 25 -1t44.5 -5.5t53 -13t51 -23.5t38.5 -37t15 -53z" />
    <glyph glyph-name="scaron" unicode="&#x161;" horiz-adv-x="356" 
d="M562 580q0 -6 -2 -10q-4 -9 -11 -9q-39 -8 -75.5 -30.5t-66 -46.5t-50 -42.5t-28.5 -18.5q-13 0 -24 6.5t-11 7.5q-5 -2 -9 -2h-9q-17 2 -23 6.5t-6 11.5l7 31q0 17 -4.5 34.5t-10 32t-10 24t-4.5 10.5q1 8 12 10t19 2q10 0 23 -12.5t24.5 -27.5t19.5 -29t8 -17
q22 18 51.5 33.5t59.5 26.5t55.5 17.5t40.5 6.5q12 0 18 -5t6 -10zM523 269q0 -10 -9 -18q-3 0 -25.5 -20t-57.5 -49.5t-78.5 -63.5t-86.5 -63.5t-82.5 -49t-67.5 -19.5q-47 0 -70.5 29t-23.5 84l0.5 4t3 8.5t8 8t15.5 3.5q3 -14 11 -25q7 -10 20 -17.5t35 -7.5q31 0 54 25
t38 58.5t22 66.5t7 48q0 2 -2 4.5t-8 2.5q-4 0 -10.5 -2.5t-14.5 -8.5q-18 -14 -40.5 -31t-42.5 -33q-24 -18 -48 -37q-14 -8 -32 -8q-8 0 -13 4t-5 9q0 8 2.5 11t14.5 11q26 18 48.5 36t45 38.5t48.5 43t60 48.5q5 6 9 10t8 7t9 3q3 0 14.5 -1.5t23.5 -5t21.5 -8t9.5 -10.5
q0 -51 -7 -88.5t-15.5 -63t-15.5 -40.5t-7 -19q0 -2 2 -2t8 3q28 14 50 27t43 27t44.5 30.5t53.5 39.5q5 5 11.5 9t12.5 9q2 -2 4 -5q2 -2 3.5 -5t1.5 -7z" />
    <glyph glyph-name="Ydieresis" unicode="&#x178;" horiz-adv-x="602" 
d="M794 781q0 -5 -1 -9.5t-6 -9.5q-13 -17 -29 -30q-14 -11 -31 -20t-37 -9q-5 1 -9 4q-9 5 -9 18q0 16 11 32t26.5 28t31.5 19.5t26 7.5q2 -1 5 -1q2 -1 4 -1t4 -2q8 -10 11 -15.5t3 -11.5zM627 781q0 -5 -1 -9.5t-6 -9.5q-13 -17 -29 -30q-14 -11 -31 -20t-37 -9
q-5 1 -9 4q-9 5 -9 18q0 16 11 32t26.5 28t31.5 19.5t26 7.5q2 -1 5 -1q2 -1 4 -1t4 -2q8 -10 11 -15.5t3 -11.5zM912 622q0 -8 -6 -14l-115 -124q-51 -58 -111 -133q-51 -64 -119 -153.5t-144 -201.5q-12 -18 -39 -53.5t-64 -78t-82.5 -87t-95.5 -81t-103 -60t-104 -23.5
q-5 0 -14 3.5t-17.5 12t-15 21.5t-6.5 32q0 23 16.5 50t44 54t62.5 52t71.5 44.5t72 31t63.5 11.5h4q53 62 100 116l40 46t38 43.5t32.5 37t22.5 25.5l159 175l8 10q3 4 5 7t1 3q-2 0 -17 -14l-119 -117q-4 -4 -26 -26.5t-56 -54t-76.5 -67t-87 -66t-87.5 -50.5t-78 -20
q-12 0 -26.5 5t-26.5 16t-20.5 27.5t-8.5 39.5q0 11 4 31t19 48.5t44 65.5t80 82l267 238l24 24q9 10 16.5 20t7.5 15q0 4 -6 4q-3 0 -43.5 -8t-104.5 -32.5t-145 -71.5t-165 -125q-3 -4 -7 -7q-7 -7 -15 -7h-3q-4 1 -4 5q0 7 7 16q4 4 8 9q41 68 96 122t114.5 91.5
t118.5 57t107 19.5q16 0 35.5 -4t36.5 -15t28.5 -30t11.5 -49q0 -33 -32.5 -77.5t-81.5 -93.5t-105.5 -99t-105.5 -94.5t-81.5 -80.5t-32.5 -57q0 -2 3 -2q19 0 57.5 21t86 54t100.5 73.5t102 79.5t88.5 71.5t61.5 50.5q8 6 21 17t29.5 25t35 30t36.5 31q42 36 90 78l59 58
q2 2 6 5q8 6 16 6q5 0 10 -3l23 -16q1 -1 3 -4q4 -6 4 -11zM192 -91q0 1 -2 1t-4.5 -1t-5.5 -2q-4 -2 -7 -3q-54 -29 -100.5 -68t-81 -76.5t-54 -67.5t-19.5 -41q0 -3 3 -3t4 1q1 0 2 1q43 25 88.5 67t83.5 83q44 48 85 99q8 8 8 10z" />
    <glyph glyph-name="Zcaron" unicode="&#x17d;" horiz-adv-x="500" 
d="M736 831q0 -6 -2 -10q-4 -9 -11 -9q-39 -8 -75.5 -30.5t-66 -46.5t-50 -42.5t-28.5 -18.5q-13 0 -24 6.5t-11 7.5q-5 -2 -9 -2h-9q-17 2 -23 6.5t-6 11.5l7 31q0 17 -4.5 34.5t-10 32t-10 24t-4.5 10.5q1 8 12 10t19 2q10 0 23 -12.5t24.5 -27.5t19.5 -29t8 -17
q22 18 51.5 33.5t59.5 26.5t55.5 17.5t40.5 6.5q12 0 18 -5t6 -10zM765 567q0 -10 -16 -15q-100 -40 -212 -102q-96 -53 -216.5 -133.5t-248.5 -193.5l-12 -10q-5 -5 -8 -9t-3 -6t3 -2q1 0 11 2q32 10 69 18q32 7 72 13t82 6q45 0 87.5 -11.5t75.5 -32t53 -48t20 -59.5
q0 -6 -5 -6q-2 0 -3.5 0.5l-4.5 1.5q-2 6 -27.5 11t-60.5 8t-74 5t-69 2q-37 0 -81.5 -1t-90 -5t-88.5 -10.5t-77 -17.5q-2 -1 -5 -2t-11 -1t-17 4t-17 18q-7 1 -12 5q-11 7 -11 24q0 31 36 74t96 92t138.5 100t164.5 99t173 89.5t164 70.5q2 1 4 3q5 2 5 4t-4 2
q-2 0 -5 -0.5t-8 -1.5q-53 -8 -106 -17q-45 -8 -97 -18.5t-97 -21.5q-54 -14 -102.5 -20.5t-83.5 -6.5q-37 0 -57.5 10t-31.5 22q-12 14 -16 33q0 7 9 16q4 4 9 8q23 13 45 24q19 9 39 16.5t34 7.5q4 0 4 -3q0 -2 -3 -8v-2q0 -1 3 -1l3 1q46 15 106 26q51 10 122 18t161 8
q37 0 66.5 -3.5t47.5 -14.5l67 -42l5 -5q6 -6 6 -12z" />
    <glyph glyph-name="zcaron" unicode="&#x17e;" horiz-adv-x="367" 
d="M566 536q0 -6 -2 -10q-4 -9 -11 -9q-39 -8 -75.5 -30.5t-66 -46.5t-50 -42.5t-28.5 -18.5q-13 0 -24 6.5t-11 7.5q-5 -2 -9 -2h-9q-17 2 -23 6.5t-6 11.5l7 31q0 17 -4.5 34.5t-10 32t-10 24t-4.5 10.5q1 8 12 10t19 2q10 0 23 -12.5t24.5 -27.5t19.5 -29t8 -17
q22 18 51.5 33.5t59.5 26.5t55.5 17.5t40.5 6.5q12 0 18 -5t6 -10zM410 285q0 -9 -10 -15q-58 -31 -111 -63q-23 -14 -46 -29t-45 -30.5t-40.5 -31t-30.5 -29.5q-1 -1 0 -1h4q9 0 20.5 3.5t25.5 8t32 8t41 3.5q13 0 23.5 -2.5t16.5 -8.5q14 -17 25 -32q10 -13 18 -26.5
t8 -21.5t-8 -8q-6 0 -9.5 3t-8 6t-12.5 6t-23 3q-13 0 -25 -4q-15 -5 -38.5 -10.5t-49.5 -11t-52 -9t-46 -3.5q-4 0 -12.5 5.5t-17 14t-15 19.5t-6.5 22q0 27 30 53.5t73 52.5t90 50.5t81 47.5q2 1 2.5 2t1.5 2l1 1l-4 -1q-42 -11 -64 -14.5t-34 -3.5q-13 0 -22 9
q-8 11 -14 22q-5 9 -9.5 18.5t-4.5 15.5q0 13 16 17q9 2 26 5t38.5 6t44.5 5.5t44 2.5t36.5 -2.5t22.5 -10.5q12 -12 19.5 -20t11.5 -12.5t5 -7t1 -4.5z" />
    <glyph glyph-name="circumflex" unicode="&#x2c6;" horiz-adv-x="500" 
d="M485 383q-1 -8 -12 -10t-19 -2q-10 0 -23 12.5t-24.5 27.5t-19.5 29t-8 17q-22 -18 -51.5 -33.5t-59.5 -26.5t-55.5 -17.5t-40.5 -6.5q-12 0 -18 5t-6 10t2 9t4 7t7 3q39 8 75.5 30.5t66 46.5t50 42.5t28.5 18.5q13 0 24 -6.5t11 -7.5q5 2 9 2h9q17 -2 23 -6.5t6 -11.5
l-7 -31q0 -17 4.5 -34.5t10 -32t10 -24t4.5 -10.5z" />
    <glyph glyph-name="caron" unicode="&#x2c7;" horiz-adv-x="500" 
d="M736 831q0 -6 -2 -10q-4 -9 -11 -9q-39 -8 -75.5 -30.5t-66 -46.5t-50 -42.5t-28.5 -18.5q-13 0 -24 6.5t-11 7.5q-5 -2 -9 -2h-9q-17 2 -23 6.5t-6 11.5l7 31q0 17 -4.5 34.5t-10 32t-10 24t-4.5 10.5q1 8 12 10t19 2q10 0 23 -12.5t24.5 -27.5t19.5 -29t8 -17
q22 18 51.5 33.5t59.5 26.5t55.5 17.5t40.5 6.5q12 0 18 -5t6 -10z" />
    <glyph glyph-name="dotaccent" unicode="&#x2d9;" horiz-adv-x="126" 
d="M328 623q0 -5 -1 -9.5t-6 -9.5q-13 -17 -29 -30q-14 -11 -31 -20t-37 -9q-5 1 -9 4q-9 5 -9 18q0 16 11 32t26.5 28t31.5 19.5t26 7.5q2 -1 5 -1q2 -1 4 -1t4 -2q8 -10 11 -15.5t3 -11.5z" />
    <glyph glyph-name="ring" unicode="&#x2da;" 
d="M411 468q0 -17 -5 -34.5t-17 -31t-33 -22t-54 -8.5q-19 0 -33.5 13t-14.5 38q0 10 3 27t13.5 33t31 27.5t55.5 11.5q15 -1 27 -7q10 -5 18.5 -16t8.5 -31zM373 455q0 14 -5 22t-21 8q-19 0 -29.5 -2.5t-16 -9t-6.5 -17t-1 -25.5q0 -8 5 -13.5t10 -7.5q39 0 51.5 9
t12.5 36z" />
    <glyph glyph-name="tilde" unicode="&#x2dc;" horiz-adv-x="500" 
d="M575 461q0 -4 -7 -16t-22 -25.5t-39 -24t-59 -10.5q-15 0 -31 6t-33.5 13.5t-36.5 13.5t-40 5q-22 -1 -44.5 -11t-38.5 -10q-6 0 -6 2q0 6 8 13q22 18 45 32q20 12 44 22t47 10q12 0 26.5 -6.5t32 -14.5t39.5 -14.5t49 -6.5q8 0 16.5 5t16 11t12.5 11t6 5q6 0 10.5 -2
t4.5 -8z" />
    <glyph glyph-name="hungarumlaut" unicode="&#x2dd;" horiz-adv-x="395" 
d="M550 639q0 -11 -20 -34t-45.5 -45.5t-48.5 -39.5t-30 -17q-8 0 -15 5t-7 13q0 11 13.5 34t37.5 58q10 14 18 24t16.5 16t19 8.5t25.5 2.5q14 0 25 -4.5t11 -20.5zM405 639q0 -11 -20 -34t-45.5 -45.5t-48.5 -39.5t-30 -17q-8 0 -15 5t-7 13q0 11 13.5 34t37.5 58
q10 14 18 24t16.5 16t19 8.5t25.5 2.5q14 0 25 -4.5t11 -20.5z" />
    <glyph glyph-name="endash" unicode="&#x2013;" horiz-adv-x="564" 
d="M561 250q0 -3 -3.5 -4t-17.5 -1h-16q-105 0 -175 -4.5t-121 -10t-89.5 -10t-79.5 -4.5q-6 0 -16.5 1t-21 5t-18 10.5t-7.5 17.5q0 8 25.5 16t58 14t61.5 10.5t36 5.5q4 0 10.5 -0.5t6.5 -2.5t-7 -5.5t-7 -4.5q0 1 40 4.5t120 3.5q24 0 61.5 -4.5t73 -11t61 -13.5
t25.5 -12z" />
    <glyph glyph-name="emdash" unicode="&#x2014;" horiz-adv-x="867" 
d="M851 254q0 -3 -3.5 -4t-17.5 -1h-16q-95 0 -174.5 -2t-139.5 -4.5t-100 -4.5t-56 -3q-49 -4 -99 -8q-43 -3 -93 -5t-93 -2q-6 0 -16.5 1t-21 5t-18 10.5t-7.5 17.5q0 8 25.5 16t58 14t61.5 10.5t36 5.5q4 0 10.5 -0.5t6.5 -2.5t-7 -5.5t-7 -4.5t2 -1q5 0 11 2
q56 7 118 12q53 5 118.5 8.5t131.5 3.5q78 0 145.5 -7.5t106.5 -27.5q3 -2 9 -5t12.5 -7t11.5 -7t5 -4z" />
    <glyph glyph-name="quoteleft" unicode="&#x2018;" horiz-adv-x="152" 
d="M283 611q0 -17 -11 -32.5t-26.5 -27.5t-31.5 -19.5t-26 -7.5q-2 -1 -5 0q-6 0 -8 4q-8 10 -11 15.5t-3 11.5q0 10 12 28.5t28 37t31.5 33.5t22.5 19q8 6 13 6q3 0 3 -3q0 -5 -8 -15t-16 -23l-6 -10q5 2 12 3.5t12 1.5q5 -1 9 -4q3 -2 6 -6.5t3 -11.5z" />
    <glyph glyph-name="quoteright" unicode="&#x2019;" horiz-adv-x="220" 
d="M422 647q0 -11 -12 -29t-28 -36.5t-31.5 -33.5t-22.5 -19q-8 -6 -13 -6q-3 0 -3 3q0 5 8 15t16 23l6 10q-5 -2 -12 -3.5t-12 -1.5q-5 1 -9 4q-9 5 -9 18q0 16 11 32t26.5 28t31.5 19.5t26 7.5q2 -1 5 -1q2 -1 4 -1t4 -2q8 -10 11 -15.5t3 -11.5z" />
    <glyph glyph-name="quotesinglbase" unicode="&#x201a;" horiz-adv-x="126" 
d="M122 54q0 -11 -12 -29t-28 -36.5t-31.5 -33.5t-22.5 -19q-8 -6 -13 -6q-3 0 -3 3q0 5 8 15t16 23l6 10q-5 -2 -12 -3.5t-12 -1.5q-5 1 -9 4q-9 5 -9 18q0 16 11 32t26.5 28t31.5 19.5t26 7.5q2 -1 5 -1q2 -1 4 -1t4 -2q8 -10 11 -15.5t3 -11.5z" />
    <glyph glyph-name="quotedblleft" unicode="&#x201c;" horiz-adv-x="287" 
d="M418 611q0 -17 -11 -32.5t-26.5 -27.5t-31.5 -19.5t-26 -7.5q-2 -1 -5 0q-6 0 -8 4q-8 10 -11 15.5t-3 11.5q0 10 12 28.5t28 37t31.5 33.5t22.5 19q8 6 13 6q3 0 3 -3q0 -5 -8 -15t-16 -23l-6 -10q5 2 12 3.5t12 1.5q5 -1 9 -4q3 -2 6 -6.5t3 -11.5zM283 611
q0 -17 -11 -32.5t-26.5 -27.5t-31.5 -19.5t-26 -7.5q-2 -1 -5 0q-6 0 -8 4q-8 10 -11 15.5t-3 11.5q0 10 12 28.5t28 37t31.5 33.5t22.5 19q8 6 13 6q3 0 3 -3q0 -5 -8 -15t-16 -23l-6 -10q5 2 12 3.5t12 1.5q5 -1 9 -4q3 -2 6 -6.5t3 -11.5z" />
    <glyph glyph-name="quotedblright" unicode="&#x201d;" horiz-adv-x="355" 
d="M557 647q0 -11 -12 -29t-28 -36.5t-31.5 -33.5t-22.5 -19q-8 -6 -13 -6q-3 0 -3 3q0 5 8 15t16 23l6 10q-5 -2 -12 -3.5t-12 -1.5q-5 1 -9 4q-9 5 -9 18q0 16 11 32t26.5 28t31.5 19.5t26 7.5q2 -1 5 -1q2 -1 4 -1t4 -2q8 -10 11 -15.5t3 -11.5zM422 647q0 -11 -12 -29
t-28 -36.5t-31.5 -33.5t-22.5 -19q-8 -6 -13 -6q-3 0 -3 3q0 5 8 15t16 23l6 10q-5 -2 -12 -3.5t-12 -1.5q-5 1 -9 4q-9 5 -9 18q0 16 11 32t26.5 28t31.5 19.5t26 7.5q2 -1 5 -1q2 -1 4 -1t4 -2q8 -10 11 -15.5t3 -11.5z" />
    <glyph glyph-name="quotedblbase" unicode="&#x201e;" horiz-adv-x="261" 
d="M257 54q0 -11 -12 -29t-28 -36.5t-31.5 -33.5t-22.5 -19q-8 -6 -13 -6q-3 0 -3 3q0 5 8 15t16 23l6 10q-5 -2 -12 -3.5t-12 -1.5q-5 1 -9 4q-9 5 -9 18q0 16 11 32t26.5 28t31.5 19.5t26 7.5q2 -1 5 -1q2 -1 4 -1t4 -2q8 -10 11 -15.5t3 -11.5zM122 54q0 -11 -12 -29
t-28 -36.5t-31.5 -33.5t-22.5 -19q-8 -6 -13 -6q-3 0 -3 3q0 5 8 15t16 23l6 10q-5 -2 -12 -3.5t-12 -1.5q-5 1 -9 4q-9 5 -9 18q0 16 11 32t26.5 28t31.5 19.5t26 7.5q2 -1 5 -1q2 -1 4 -1t4 -2q8 -10 11 -15.5t3 -11.5z" />
    <glyph glyph-name="dagger" unicode="&#x2020;" horiz-adv-x="516" 
d="M682 431q0 -12 -5.5 -19.5t-12.5 -11.5t-14 -5.5t-11 -1.5q-30 0 -65 2.5t-64 5.5l-68 8h-12t-17 1q-41 -44 -84.5 -89.5t-86 -89.5t-82.5 -83.5t-74 -70t-60 -51t-40 -25.5q-2 -2 -5 -3q-5 -3 -11 -3q-11 0 -19 7t-8 11t3 7q21 21 62 64t91.5 98t106.5 116.5t109 119.5
q-39 2 -88.5 4t-108.5 2h-12q-10 0 -12 1.5t-2 4.5q0 1 3.5 5t8 8t8.5 7.5t6 5.5q27 23 73.5 31.5t100.5 9.5q23 0 45.5 -1t45.5 -3q55 60 91 101t41 46q10 15 20 27q8 10 18 18.5t20 8.5q1 0 1 0.5t2 0.5q3 0 12 -5.5t31 -25.5l2 -2q2 -2 2 -7q0 -4 -11 -18.5t-30.5 -37.5
t-46 -53t-57.5 -65q14 -2 27 -4t22 -4q11 -2 19 -3q2 -1 4 -1h4h1q0 2 -5 5.5t-5 5.5q0 3 5 3.5t7 0.5q5 -2 25 -6.5t42.5 -11.5t40 -16t17.5 -19z" />
    <glyph glyph-name="daggerdbl" unicode="&#x2021;" horiz-adv-x="512" 
d="M682 431q0 -12 -5.5 -19.5t-12.5 -11.5t-14 -5.5t-11 -1.5q-30 0 -65 2.5t-64 5.5l-68 8h-12t-17 1q-33 -35 -67.5 -71.5t-69.5 -72.5q19 -3 35.5 -5.5t28.5 -4.5q14 -3 25 -4q2 -1 4 -1h4h1q0 2 -5 5.5t-5 5.5q0 3 5 3.5t7 0.5q5 -2 25 -6.5t42.5 -11.5t40 -16t17.5 -19
q0 -12 -5.5 -19.5t-12.5 -11.5t-14 -5.5t-11 -1.5q-30 0 -65 2.5t-64 5.5l-68 8q-8 1 -21.5 1.5t-33.5 2.5q-37 -37 -71.5 -70t-63 -59t-50.5 -43t-35 -22q-2 -2 -5 -3q-5 -3 -11 -3q-11 0 -19 7t-8 11t3 7q23 23 68.5 71.5t102.5 109.5q-38 2 -82.5 3.5t-97.5 1.5h-12
q-10 0 -12 1.5t-2 4.5q0 1 3.5 5t8 8t8.5 7.5t6 5.5q27 23 73.5 31.5t100.5 9.5q37 0 75 -3q33 35 65.5 71t63.5 71q-39 2 -88.5 4t-108.5 2h-12q-10 0 -12 1.5t-2 4.5q0 1 3.5 5t8 8t8.5 7.5t6 5.5q27 23 73.5 31.5t100.5 9.5q23 0 45.5 -1t45.5 -3q55 60 91 101t41 46
q10 15 20 27q8 10 18 18.5t20 8.5q1 0 1 0.5t2 0.5q3 0 12 -5.5t31 -25.5l2 -2q2 -2 2 -7q0 -4 -11 -18.5t-30.5 -37.5t-46 -53t-57.5 -65q14 -2 27 -4t22 -4q11 -2 19 -3q2 -1 4 -1h4h1q0 2 -5 5.5t-5 5.5q0 3 5 3.5t7 0.5q5 -2 25 -6.5t42.5 -11.5t40 -16t17.5 -19z" />
    <glyph glyph-name="bullet" unicode="&#x2022;" horiz-adv-x="303" 
d="M266 387q0 -8 -2.5 -16.5t-10.5 -17.5q-24 -30 -52 -54q-24 -20 -56.5 -37t-68.5 -17q-10 2 -17 7q-6 5 -11 12t-5 21q0 30 20.5 58.5t48.5 51t57 36t47 13.5q6 0 10 -1q10 -2 14 -6q15 -18 20.5 -28.5t5.5 -21.5z" />
    <glyph glyph-name="ellipsis" unicode="&#x2026;" horiz-adv-x="436" 
d="M432 54q0 -5 -1 -9.5t-6 -9.5q-13 -17 -29 -30q-14 -11 -31 -20t-37 -9q-5 1 -9 4q-9 5 -9 18q0 16 11 32t26.5 28t31.5 19.5t26 7.5q2 -1 5 -1q2 -1 4 -1t4 -2q8 -10 11 -15.5t3 -11.5zM277 54q0 -5 -1 -9.5t-6 -9.5q-13 -17 -29 -30q-14 -11 -31 -20t-37 -9q-5 1 -9 4
q-9 5 -9 18q0 16 11 32t26.5 28t31.5 19.5t26 7.5q2 -1 5 -1q2 -1 4 -1t4 -2q8 -10 11 -15.5t3 -11.5zM122 54q0 -5 -1 -9.5t-6 -9.5q-13 -17 -29 -30q-14 -11 -31 -20t-37 -9q-5 1 -9 4q-9 5 -9 18q0 16 11 32t26.5 28t31.5 19.5t26 7.5q2 -1 5 -1q2 -1 4 -1t4 -2
q8 -10 11 -15.5t3 -11.5zM122 54q0 -5 -1 -9.5t-6 -9.5q-13 -17 -29 -30q-14 -11 -31 -20t-37 -9q-5 1 -9 4q-9 5 -9 18q0 16 11 32t26.5 28t31.5 19.5t26 7.5q2 -1 5 -1q2 -1 4 -1t4 -2q8 -10 11 -15.5t3 -11.5z" />
    <glyph glyph-name="perthousand" unicode="&#x2030;" horiz-adv-x="1060" 
d="M1104 303q0 -18 -8 -43t-20.5 -52t-28.5 -52.5t-31 -44.5q-23 -27 -47.5 -51t-50 -42t-50 -28t-46.5 -10q-11 1 -24 4t-24.5 11t-19.5 22.5t-8 38.5q0 30 18.5 70.5t53 82t84 79t111.5 60.5q13 0 14.5 -4.5t9.5 -5.5q7 1 10.5 5t14.5 5q5 0 11.5 -2.5t14.5 -10.5
q4 -4 8 -9q3 -5 5.5 -10.5t2.5 -12.5zM522 642q0 -18 -8 -43t-20.5 -52t-28.5 -52.5t-31 -44.5q-23 -27 -47.5 -51t-50 -42t-50 -28t-46.5 -10q-11 1 -24 4t-24.5 11t-19.5 22.5t-8 38.5q0 30 18.5 70.5t53 82t84 79t111.5 60.5q13 0 14.5 -4.5t9.5 -5.5q7 1 10.5 5t14.5 5
q5 0 11.5 -2.5t14.5 -10.5q4 -4 8 -9q3 -5 5.5 -10.5t2.5 -12.5zM798 655q0 -5 -23.5 -34.5t-63 -74.5t-90 -101t-105.5 -114t-110.5 -114.5t-103.5 -102t-85 -76t-56 -37.5q-2 -2 -5 -3q-5 -3 -11 -3q-11 0 -19 7t-8 11t3 7q19 18 52.5 54t76 81.5t91 98.5t96.5 105.5
t92.5 101.5t79 87.5t56.5 63t25 28.5q10 15 20 27q8 10 18 18.5t20 8.5q1 0 1 0.5t2 0.5q3 0 12 -5.5t31 -25.5l2 -2q2 -2 2 -7zM779 303q0 -18 -8 -43t-20.5 -52t-28.5 -52.5t-31 -44.5q-23 -27 -47.5 -51t-50 -42t-50 -28t-46.5 -10q-11 1 -24 4t-24.5 11t-19.5 22.5
t-8 38.5q0 30 18.5 70.5t53 82t84 79t111.5 60.5q13 0 14.5 -4.5t9.5 -5.5q7 1 10.5 5t14.5 5q5 0 11.5 -2.5t14.5 -10.5q4 -4 8 -9q3 -5 5.5 -10.5t2.5 -12.5zM1047 287q0 2 -2 2q-5 0 -20.5 -7t-35 -18t-39.5 -26t-33 -31q-26 -24 -44 -51t-29 -49.5t-15.5 -37.5t-4.5 -17
q0 -8 5 -8q18 0 38.5 13.5t39.5 31t33 33.5t17 22q8 6 23 24t30 39.5t26 43t11 36.5zM465 626q0 2 -2 2q-5 0 -20.5 -7t-35 -18t-39.5 -26t-33 -31q-26 -24 -44 -51t-29 -49.5t-15.5 -37.5t-4.5 -17q0 -8 5 -8q18 0 38.5 13.5t39.5 31t33 33.5t17 22q8 6 23 24t30 39.5
t26 43t11 36.5zM722 287q0 2 -2 2q-5 0 -20.5 -7t-35 -18t-39.5 -26t-33 -31q-26 -24 -44 -51t-29 -49.5t-15.5 -37.5t-4.5 -17q0 -8 5 -8q18 0 38.5 13.5t39.5 31t33 33.5t17 22q8 6 23 24t30 39.5t26 43t11 36.5z" />
    <glyph glyph-name="guilsinglleft" unicode="&#x2039;" horiz-adv-x="240" 
d="M222 336q0 -5 -1 -10t-2 -9q-3 -10 -19 -31t-35 -42t-36 -37t-20 -17q4 -16 9.5 -32t11 -34t9 -39t3.5 -48q0 -11 -8 -17.5t-13 -7.5l-17 16q-36 69 -54 110.5t-17 70.5q0 12 13.5 27t33.5 30.5t43.5 29.5t43.5 25.5t33.5 18t14.5 6.5q7 0 7 -10z" />
    <glyph glyph-name="guilsinglright" unicode="&#x203a;" horiz-adv-x="240" 
d="M221 149q-1 -12 -14 -27t-33 -30.5t-43.5 -29.5t-43.5 -25.5t-33.5 -18t-14.5 -6.5q-7 0 -7 10q0 5 1 10t2 9q3 10 19 31t35 42t36 37t20 17q-4 16 -9.5 32t-11 34t-9 39t-3.5 48q0 11 8 17.5t13 7.5l17 -16q36 -69 54 -110.5t17 -70.5z" />
    <glyph glyph-name="fraction" unicode="&#x2044;" horiz-adv-x="364" 
d="M623 655q0 -5 -23.5 -34.5t-63 -74.5t-90 -101t-105.5 -114t-110.5 -114.5t-103.5 -102t-85 -76t-56 -37.5q-2 -2 -5 -3q-5 -3 -11 -3q-11 0 -19 7t-8 11t3 7q19 18 52.5 54t76 81.5t91 98.5t96.5 105.5t92.5 101.5t79 87.5t56.5 63t25 28.5q10 15 20 27q8 10 18 18.5
t20 8.5q1 0 1 0.5t2 0.5q3 0 12 -5.5t31 -25.5l2 -2q2 -2 2 -7z" />
    <glyph glyph-name="Euro" unicode="&#x20ac;" horiz-adv-x="629" 
d="M938 572q0 -23 -16 -49.5t-42.5 -53.5t-60.5 -51.5t-70.5 -43.5t-73 -30.5t-66.5 -11.5q-11 0 -25.5 3.5t-27.5 10t-22.5 17.5t-9.5 26q0 6 5 12t19 14q23 10 47 21q20 10 42 21.5t39 23.5l5 5q2 2 4.5 3.5t4.5 1.5q4 0 4 -8q0 -4 -6 -12.5t-28 -20.5q-14 -11 -19 -15
t-5 -6l1 -1q6 0 25 11t44 27.5t52 37.5t50 40.5t38 35.5t15 24q0 5 -5 9.5t-22 4.5q-73 0 -142.5 -24.5t-132.5 -64.5t-118.5 -91t-100.5 -105l142 5q23 1 29.5 -3t7.5 -5q0 -8 -7.5 -15t-17.5 -10q-35 -8 -79 -11.5t-92 -5.5l-20 -1q-10 -14 -19.5 -27.5t-17.5 -26.5l151 5
q23 1 29.5 -3t7.5 -5q0 -8 -7.5 -15t-17.5 -10q-38 -8 -88 -11.5t-102 -6.5q-20 -37 -31 -67t-11 -50q0 -7 3.5 -14.5t17.5 -7.5q9 0 45.5 12t93.5 36t130.5 60.5t156.5 86.5q2 1 4 3q2 1 3 2t3 1t2 -2q0 -4 -12.5 -27t-36.5 -55t-58.5 -68.5t-77.5 -68t-94 -52t-109 -20.5
q-28 0 -49 8t-37 21t-26.5 29.5t-17.5 34.5q-17 40 -19 93q0 17 3 35q-23 -2 -42 -2t-33 -1q-17 -1 -29 -1q-4 -1 -10 -1t-8 2l-4 4q0 4 8 11t18.5 14t19 12.5l8.5 5.5q7 2 24.5 3.5t58.5 3.5q4 12 8.5 24t10.5 24q-16 -1 -28.5 -1.5t-21.5 -0.5q-11 -1 -19 -1q-4 -1 -10 -1
t-8 2l-4 4q0 4 8 11t18.5 14t19 12.5l8.5 5.5q7 2 20.5 3t44.5 3q44 71 113.5 134.5t150.5 111t167.5 75.5t166.5 28q22 0 50 -4.5t52.5 -16.5t41 -32t16.5 -51z" />
    <glyph glyph-name="trademark" unicode="&#x2122;" horiz-adv-x="556" 
d="M750 704q0 -6 -17 -28t-42.5 -52.5t-55.5 -65.5t-55.5 -68.5t-42.5 -61t-17 -41.5q0 -33 3 -43t3 -13q0 -6 -13 -6q-5 0 -11 1t-12 5.5t-10.5 15t-7.5 28.5v1q0 23 9.5 47t31.5 55t57 72.5t86 98.5q-24 -22 -53 -48.5t-55 -51.5t-46.5 -45t-27.5 -29q-9 -10 -21 -24
l-24 -28t-21.5 -26t-13.5 -18l-2 -4q-3 -3 -7 -3q-7 0 -11.5 5t-7.5 12.5t-4 15.5t-1 14q5 19 15 43.5t23.5 51.5t30 54t34.5 52l12 16q-10 -11 -30.5 -34t-46.5 -51t-54.5 -58.5t-54 -57t-46.5 -46t-32 -24.5l-24 -8q-10 -3 -18.5 -5.5t-13.5 -3.5q-2 0 -5.5 0.5t-3.5 4.5
q0 2 6 8q29 29 64 63.5t80 78.5q27 27 62 60t69 64.5t64 56.5t48 35l10 2t9.5 2t9.5 1q3 0 7.5 -1t4.5 -7q0 -5 -5 -10v1l-38 -57q-15 -23 -29.5 -45t-19.5 -33l-31 -57v-1q28 23 55 46.5t50 45.5q50 45 86.5 74.5t56.5 29.5q9 0 15 4.5t11 4.5h1q1 0 3 -1t10 -7l2 -2
q2 -2 2 -5zM414 665q0 -3 -2.5 -5.5t-11.5 -2.5t-33 -0.5t-49.5 -1.5t-45 -4t-19.5 -7v-5q0 -4 -4 -6q-47 -50 -88 -98q-18 -20 -36 -41.5t-34.5 -42.5t-30 -39.5t-22.5 -33.5q0 -2 -2 -10.5t-10 -8.5q-2 0 -7.5 2.5t-10.5 7t-9 11.5t-4 16q0 12 10.5 30.5t34.5 46.5
t62 66.5t93 89.5l13 12q-2 0 -4 -0.5t-6 -0.5l-151 -15h1q-1 -1 -3 -1h-7q-4 0 -11.5 4t-15 10t-13.5 12.5t-6 11.5q0 7 10.5 12.5t23.5 9.5t23 6.5l10 2.5q1 0 2 0.5t3 0.5q5 0 5 -3.5t4 -3.5l24 4q3 1 5.5 1t5.5 1q30 6 77.5 13.5t101.5 7.5h4q24 0 46 -3t39.5 -9.5
t27.5 -15.5t10 -21z" />
    <glyph glyph-name="product" unicode="&#x220f;" horiz-adv-x="566" 
d="M741 547q0 -38 -33 -93t-87 -121t-122.5 -141t-140.5 -154q-3 -2 -6 -6q-3 -3 -6 -7t-8 -9q64 -7 110.5 -10t85.5 -14t74.5 -35t77.5 -72q2 -3 5 -7q6 -8 6 -10q0 -3 -3 -3q-5 0 -13 4q-40 11 -95 20q-47 8 -113.5 14t-152.5 6h-42t-50 -1q-27 -26 -67.5 -50t-83 -43.5
t-82.5 -31t-66 -11.5q-18 0 -40 5.5t-42 17.5t-33.5 29.5t-13.5 41.5q0 12 16 37t59.5 50.5t119 45t194.5 20.5q10 7 23 17.5t42 34.5q52 43 105.5 91t103.5 96t94 94t76.5 84.5t51 67.5t18.5 44q0 8 -8 8q-25 0 -71.5 -19.5t-101.5 -50.5t-113 -70.5t-105 -80t-77 -78.5
t-30 -66q0 -2 3 -2q13 0 44 18.5t66.5 45t68.5 54.5t50 48q5 5 9.5 7.5t6.5 2.5t4 -1q4 -2 4 -7q0 -4 -10.5 -23t-29 -46t-43.5 -57t-54 -55.5t-61.5 -42t-64.5 -16.5q-18 0 -30 9t-19 22.5t-10 28t-3 25.5q0 48 27.5 97.5t71.5 96t100 87.5t114 71.5t112 48t94 17.5
q16 0 33 -3t30.5 -11t22 -22t8.5 -37zM86 -94q-30 0 -69.5 -6t-75.5 -16t-61 -22.5t-25 -24.5q0 -10 24 -13q18 0 38 1.5t45 9.5t55.5 24.5t68.5 46.5z" />
    <glyph glyph-name="minus" unicode="&#x2212;" horiz-adv-x="430" 
d="M481 238q0 -10 -5 -18.5t-16 -10.5q-64 1 -115 1.5t-95 0.5t-85 0.5t-84 2.5q-2 -1 -5 -2t-10 -1q-6 0 -9 4q-1 1 -1 11l10 57q2 2 19 2t47.5 -1t65.5 -1h24h38.5t46 0.5t46 1t38.5 0.5t24 1q7 3 14 3q14 0 25.5 -9t18.5 -22q8 -10 8 -20z" />
    <glyph glyph-name="apple" unicode="&#xf8ff;" horiz-adv-x="632" 
d="M344 653q-7 1 -14 1h-14h-14.5t-13.5 -1l-90 85h59l58 -61l59 61h60zM632 304q0 -65 -25 -122.5t-68 -100.5t-100.5 -68t-122.5 -25q-66 0 -123.5 25t-100 68t-67.5 100.5t-25 122.5t25 122.5t67.5 100.5t100 68t123.5 25q65 0 122.5 -25t100.5 -68t68 -100.5t25 -122.5z
M586 304q0 56 -21 105.5t-58 86t-86 58t-105 21.5t-105.5 -21.5t-86.5 -58t-58 -86t-21 -105.5t21 -105.5t58 -86.5t86.5 -58t105.5 -21t105 21t86 58t58 86.5t21 105.5zM458 204q0 -28 -13 -48.5t-34.5 -33.5t-49.5 -19.5t-58 -6.5q-36 0 -68.5 12.5t-60.5 26.5l9 47
q35 -22 68 -31.5t60 -9.5q41 0 65.5 16.5t24.5 42.5q0 21 -16 36.5t-40.5 29.5t-52.5 27.5t-52.5 30t-40.5 37t-16 48.5q0 30 12.5 49.5t31.5 31.5t42.5 17t44.5 5t39 -5t33 -12t27.5 -14.5t21.5 -11.5l-11 -43q-25 22 -53 32t-54 10q-36 0 -58 -15.5t-22 -39.5
q0 -21 16.5 -35.5t41 -26.5t53 -24t53 -28t41 -39t16.5 -56z" />
    <glyph glyph-name="fi" unicode="&#xfb01;" horiz-adv-x="575" 
d="M656 464q0 -5 -1 -9.5t-6 -9.5q-13 -17 -29 -30q-14 -11 -31 -20t-37 -9q-5 1 -9 4q-9 5 -9 18q0 16 11 32t26.5 28t31.5 19.5t26 7.5q2 -1 5 -1q2 -1 4 -1t4 -2q8 -10 11 -15.5t3 -11.5zM789 285q0 -10 -9 -18q-77 -70 -147 -128q-30 -25 -61.5 -49.5t-61.5 -45.5
t-56 -36t-45 -21q-6 -2 -12 -3q-5 -1 -12 -1.5t-15 -0.5q-13 0 -26.5 3t-25 12t-18.5 25t-7 42q0 23 17 58t41 70q-31 -28 -70 -60t-80 -60.5t-81.5 -50.5t-75.5 -30q0 -3 3 -8t6.5 -13t6.5 -20.5t3 -31.5q0 -27 -13.5 -60t-35.5 -67t-50 -66t-57 -57t-56 -40t-48 -15
t-38 19.5t-25 70.5q0 18 5.5 46t24 67.5t54.5 92.5t97 122l545 617q2 6 6 10q3 4 9 7t15 3q6 -1 16.5 -1.5t20 -3t17 -8t7.5 -15.5q0 -7 -4.5 -16t-16.5 -23l-488 -533q1 -1 3 -1t6 0.5t9 2.5q60 31 124 70q55 32 122.5 76t135.5 94q1 1 11.5 6.5t23.5 5.5q7 0 21.5 -2
t23.5 -6q1 -1 3 -2q1 -2 2 -3.5t1 -3.5q0 -4 -7 -11q-33 -34 -61 -67q-24 -29 -47 -62.5t-33 -63.5l-4 -8q-4 -10 -4 -17q0 -11 12 -11q7 0 24 6q55 30 116 66q52 31 117 72.5t133 92.5q2 -2 4 -5q2 -2 3.5 -5t1.5 -7zM23 -36q0 21 -8 27.5t-13 6.5t-8.5 -1.5t-6.5 -3.5
q-4 -3 -6 -5q-40 -39 -72.5 -86t-56 -89t-36.5 -72t-13 -34q0 -6 6 -6q13 0 34.5 14.5t45 38t47.5 52.5t43.5 58.5t31.5 55.5t12 44z" />
    <glyph glyph-name="fl" unicode="&#xfb02;" horiz-adv-x="564" 
d="M836 570q0 -8 -4 -16q-4 -9 -28 -40.5t-73 -80.5t-126 -111.5t-186 -132.5q-39 -25 -53 -48.5t-14 -43.5q0 -19 5 -25t12 -6q14 0 38 10t54 26.5t64 38t67 43.5q77 52 166 118q2 -2 4 -5q2 -2 3.5 -5t1.5 -7q0 -10 -9 -18q-77 -70 -147 -128q-30 -25 -61.5 -49.5
t-61.5 -45.5t-56 -36t-45 -21q-6 -2 -12 -3q-5 -1 -12 -1.5t-15 -0.5q-14 0 -27.5 3t-25 14.5t-18.5 34t-7 62.5q0 13 7 33q-29 -23 -59 -45.5t-60.5 -41t-59.5 -32t-54 -19.5q0 -3 3 -8t6.5 -13t6.5 -20.5t3 -31.5q0 -27 -13.5 -60t-35.5 -67t-50 -66t-57 -57t-56 -40
t-48 -15t-38 19.5t-25 70.5q0 18 5.5 46t24 67.5t54.5 92.5t97 122l545 617q2 6 6 10q3 4 9 7t15 3q6 -1 16.5 -1.5t20 -3t17 -8t7.5 -15.5q0 -7 -4.5 -16t-16.5 -23l-488 -533q1 -1 3 -1t6 0.5t9 2.5q35 19 76 43q35 20 81.5 49t99.5 64q27 45 68 97.5t96 104t125 98.5
t156 81q5 1 9 2t9 2t10 1q9 0 16.5 -6.5t12.5 -14.5q6 -10 11 -21zM737 533q0 1 -1 2q-2 0 -10 -4q-4 -2 -7 -4q-26 -17 -63 -48.5t-75 -67t-71 -70.5t-49 -58q-4 -5 -4 -8q0 -2 2 -2q9 0 33 18t55 45.5t64.5 60.5t61.5 61.5t46 49.5t18 25zM23 -36q0 21 -8 27.5t-13 6.5
t-8.5 -1.5t-6.5 -3.5q-4 -3 -6 -5q-40 -39 -72.5 -86t-56 -89t-36.5 -72t-13 -34q0 -6 6 -6q13 0 34.5 14.5t45 38t47.5 52.5t43.5 58.5t31.5 55.5t12 44z" />
    </font>
</defs>
</svg>
